{
classes = (
{
automatic = 1;
code = "A Aacute Abreve Acircumflex Adieresis Agrave Amacron Aogonek Aring Aringacute Atilde AE AEacute B C Cacute Ccaron Ccedilla Ccircumflex Cdotaccent D DZ DZcaron Eth Dcaron Dcroat Ddotbelow E Eacute Ebreve Ecaron Ecircumflex Edieresis Edotaccent Edotbelow Egrave Emacron Eogonek Etilde F G Gbreve Gcircumflex Gcommaaccent Gdotaccent H Hbar Hcircumflex Hdotbelow I IJ Iacute Ibreve Icircumflex Idieresis Idotaccent Idotbelow Igrave Imacron Iogonek Itilde J Jcircumflex K Kcommaaccent L LJ Lacute Lcaron Lcommaaccent Ldot Lslash M N NJ Nacute Ncaron Ncommaaccent Ndotaccent Eng Ntilde O Oacute Obreve Ocircumflex Odieresis Odotbelow Ograve Ohungarumlaut Omacron Oogonek Oslash Oslashacute Otilde OE P Thorn Q R Racute Rcaron Rcommaaccent Rdotbelow S Sacute Scaron Scedilla Scircumflex Scommaaccent Sdotbelow Germandbls Schwa T Tbar Tcaron Tcedilla Tcommaaccent Tdotbelow U Uacute Ubreve Ucircumflex Udieresis Udotbelow Ugrave Uhungarumlaut Umacron Uogonek Uring Utilde V W Wacute Wcircumflex Wdieresis Wgrave X Y Yacute Ycircumflex Ydieresis Ygrave Ytilde Z Zacute Zcaron Zdotaccent Zdotbelow Y.loclGUA Yacute.loclGUA Ycircumflex.loclGUA Ydieresis.loclGUA Ygrave.loclGUA Ytilde.loclGUA Cacute.loclPLK Nacute.loclPLK Oacute.loclPLK Sacute.loclPLK Zacute.loclPLK Delta Omega";
name = Uppercase;
},
{
code = "A Aacute Abreve Acircumflex Adieresis Agrave Amacron Aogonek Aring Aringacute Atilde AE AEacute E Eacute Ebreve Ecaron Ecircumflex Edieresis Edotaccent Edotbelow Egrave Emacron Eogonek Etilde I IJ Iacute Ibreve Icircumflex Idieresis Idotaccent Idotbelow Igrave Imacron Iogonek Itilde O Oacute Obreve Ocircumflex Odieresis Odotbelow Ograve Ohungarumlaut Omacron Oogonek Oslash Oslashacute Otilde OE U Uacute Ubreve Ucircumflex Udieresis Udotbelow Ugrave Uhungarumlaut Umacron Uogonek Uring Utilde";
name = Voc0;
},
{

glyphs = (
{
color = 0;
glyphname = A;
lastChange = "2013-12-03 23:01:42 -0500";
layers = (
{
anchors = (
{
name = ogonek;
position = "{274, 10}";
},
{
name = top;
position = "{152, 710}";
}
);
layerId = UUID0;
name = Regular;
paths = (
{
closed = 1;
nodes = (
"254 710 LINE",
"71 710 LINE",
"26 0 LINE",
"73 0 LINE",
"119 278 LINE",
"170 278 LINE",
"196 0 LINE",
"254 0 LINE"
);
},
{
closed = 1;
nodes = (
"191 331 LINE SMOOTH",
"191 327 OFFCURVE",
"189 325 OFFCURVE",
"185 325 CURVE SMOOTH",
"142 325 LINE SMOOTH",
"138 325 OFFCURVE",
"136 327 OFFCURVE",
"136 330 CURVE SMOOTH",
"136 672 LINE SMOOTH",
"136 676 OFFCURVE",
"138 678 OFFCURVE",
"142 678 CURVE SMOOTH",
"185 678 LINE SMOOTH",
"189 678 OFFCURVE",
"191 676 OFFCURVE",
"191 672 CURVE SMOOTH"
);
}
);
width = 304;
}
);
unicode = 0041;
},
{
color = 0;
glyphname = Aacute;
lastChange = "2013-12-03 23:01:42 -0500";
layers = (
{
layerId = UUID0;
name = Regular;
paths = (
{
closed = 1;
nodes = (
"254 710 LINE",
"71 710 LINE",
"26 0 LINE",
"73 0 LINE",
"119 278 LINE",
"170 278 LINE",
"196 0 LINE",
"254 0 LINE"
);
},
{
closed = 1;
nodes = (
"191 331 LINE SMOOTH",
"191 327 OFFCURVE",
"189 325 OFFCURVE",
"185 325 CURVE SMOOTH",
"142 325 LINE SMOOTH",
"138 325 OFFCURVE",
"136 327 OFFCURVE",
"136 330 CURVE SMOOTH",
"136 672 LINE SMOOTH",
"136 676 OFFCURVE",
"138 678 OFFCURVE",
"142 678 CURVE SMOOTH",
"185 678 LINE SMOOTH",
"189 678 OFFCURVE",
"191 676 OFFCURVE",
"191 672 CURVE SMOOTH"
);
},
{
closed = 1;
nodes = (
"118 792 LINE",
"152 768 LINE",
"248 852 LINE",
"202 900 LINE"
);
}
);
width = 304;
}
);
unicode = 00C1;
},
{
color = 0;
glyphname = Abreve;
lastChange = "2013-12-03 23:01:42 -0500";
layers = (
{
layerId = UUID0;
name = Regular;
paths = (
{
closed = 1;
nodes = (
"254 710 LINE",
"71 710 LINE",
"26 0 LINE",
"73 0 LINE",
"119 278 LINE",
"170 278 LINE",
"196 0 LINE",
"254 0 LINE"
);
},
{
closed = 1;
nodes = (
"191 331 LINE SMOOTH",
"191 327 OFFCURVE",
"189 325 OFFCURVE",
"185 325 CURVE SMOOTH",
"142 325 LINE SMOOTH",
"138 325 OFFCURVE",
"136 327 OFFCURVE",
"136 330 CURVE SMOOTH",
"136 672 LINE SMOOTH",
"136 676 OFFCURVE",
"138 678 OFFCURVE",
"142 678 CURVE SMOOTH",
"185 678 LINE SMOOTH",
"189 678 OFFCURVE",
"191 676 OFFCURVE",
"191 672 CURVE SMOOTH"
);
},
{
closed = 1;
nodes = (
"60 894 LINE",
"64 813 LINE",
"109 785 LINE",
"234 785 LINE",
"273 824 LINE",
"273 900 LINE",
"227 896 LINE",
"230 830 LINE",
"120 835 LINE",
"108 846 LINE",
"113 894 LINE"
);
}
);
width = 304;
}
);
unicode = 0102;
},
{
color = 0;
glyphname = Acircumflex;
lastChange = "2013-12-03 23:01:42 -0500";
layers = (
{
layerId = UUID0;
name = Regular;
paths = (
{
closed = 1;
nodes = (
"254 710 LINE",
"71 710 LINE",
"26 0 LINE",
"73 0 LINE",
"119 278 LINE",
"170 278 LINE",
"196 0 LINE",
"254 0 LINE"
);
},
{
closed = 1;
nodes = (
"191 331 LINE SMOOTH",
"191 327 OFFCURVE",
"189 325 OFFCURVE",
"185 325 CURVE SMOOTH",
"142 325 LINE SMOOTH",
"138 325 OFFCURVE",
"136 327 OFFCURVE",
"136 330 CURVE SMOOTH",
"136 672 LINE SMOOTH",
"136 676 OFFCURVE",
"138 678 OFFCURVE",
"142 678 CURVE SMOOTH",
"185 678 LINE SMOOTH",
"189 678 OFFCURVE",
"191 676 OFFCURVE",
"191 672 CURVE SMOOTH"
);
},
{
closed = 1;
nodes = (
"68 786 LINE",
"97 767 LINE",
"162 829 LINE",
"227 767 LINE",
"256 786 LINE",
"182 896 LINE",
"142 899 LINE"
);
}
);
width = 304;
}
);
unicode = 00C2;
},
{
color = 0;
glyphname = Adieresis;
lastChange = "2013-12-03 23:01:42 -0500";
layers = (
{
layerId = UUID0;
name = Regular;
paths = (
{
closed = 1;
nodes = (
"254 710 LINE",
"71 710 LINE",
"26 0 LINE",
"73 0 LINE",
"119 278 LINE",
"170 278 LINE",
"196 0 LINE",
"254 0 LINE"
);
},
{
closed = 1;
nodes = (
"191 331 LINE SMOOTH",
"191 327 OFFCURVE",
"189 325 OFFCURVE",
"185 325 CURVE SMOOTH",
"142 325 LINE SMOOTH",
"138 325 OFFCURVE",
"136 327 OFFCURVE",
"136 330 CURVE SMOOTH",
"136 672 LINE SMOOTH",
"136 676 OFFCURVE",
"138 678 OFFCURVE",
"142 678 CURVE SMOOTH",
"185 678 LINE SMOOTH",
"189 678 OFFCURVE",
"191 676 OFFCURVE",
"191 672 CURVE SMOOTH"
);
},
{
closed = 1;
nodes = (
"37 817 LINE",
"116 817 LINE",
"120 900 LINE",
"37 897 LINE"
);
},
{
closed = 1;
nodes = (
"190 817 LINE",
"266 820 LINE",
"266 900 LINE",
"187 900 LINE"
);
}
);
width = 304;
}
);
unicode = 00C4;
},
{
color = 0;
glyphname = Agrave;
lastChange = "2013-12-03 23:01:42 -0500";
layers = (
{
layerId = UUID0;
name = Regular;
paths = (
{
closed = 1;
nodes = (
"254 710 LINE",
"71 710 LINE",
"26 0 LINE",
"73 0 LINE",
"119 278 LINE",
"170 278 LINE",
"196 0 LINE",
"254 0 LINE"
);
},
{
closed = 1;
nodes = (
"191 331 LINE SMOOTH",
"191 327 OFFCURVE",
"189 325 OFFCURVE",
"185 325 CURVE SMOOTH",
"142 325 LINE SMOOTH",
"138 325 OFFCURVE",
"136 327 OFFCURVE",
"136 330 CURVE SMOOTH",
"136 672 LINE SMOOTH",
"136 676 OFFCURVE",
"138 678 OFFCURVE",
"142 678 CURVE SMOOTH",
"185 678 LINE SMOOTH",
"189 678 OFFCURVE",
"191 676 OFFCURVE",
"191 672 CURVE SMOOTH"
);
},
{
closed = 1;
nodes = (
"133 900 LINE",
"87 852 LINE",
"183 768 LINE",
"217 792 LINE"
);
}
);
width = 304;
}
);
unicode = 00C0;
},
{
color = 0;
glyphname = Amacron;
lastChange = "2013-12-03 23:01:42 -0500";
layers = (
{
layerId = UUID0;
name = Regular;
paths = (
{
closed = 1;
nodes = (
"254 710 LINE",
"71 710 LINE",
"26 0 LINE",
"73 0 LINE",
"119 278 LINE",
"170 278 LINE",
"196 0 LINE",
"254 0 LINE"
);
},
{
closed = 1;
nodes = (
"191 331 LINE SMOOTH",
"191 327 OFFCURVE",
"189 325 OFFCURVE",
"185 325 CURVE SMOOTH",
"142 325 LINE SMOOTH",
"138 325 OFFCURVE",
"136 327 OFFCURVE",
"136 330 CURVE SMOOTH",
"136 672 LINE SMOOTH",
"136 676 OFFCURVE",
"138 678 OFFCURVE",
"142 678 CURVE SMOOTH",
"185 678 LINE SMOOTH",
"189 678 OFFCURVE",
"191 676 OFFCURVE",
"191 672 CURVE SMOOTH"
);
},
{
closed = 1;
nodes = (
"30 891 LINE",
"33 827 LINE",
"298 836 LINE",
"298 891 LINE"
);
}
);
width = 304;
}
);
unicode = 0100;
},
{
color = 0;
glyphname = Aogonek;
lastChange = "2013-12-03 23:01:42 -0500";
layers = (
{
layerId = UUID0;
name = Regular;
paths = (
{
closed = 1;
nodes = (
"254 710 LINE",
"71 710 LINE",
"26 0 LINE",
"73 0 LINE",
"119 278 LINE",
"170 278 LINE",
"196 2 LINE",
"147 -95 LINE",
"235 -209 LINE",
"348 -146 LINE",
"332 -100 LINE",
"243 -145 LINE",
"209 -83 LINE",
"235 0 LINE",
"254 0 LINE"
);
},
{
closed = 1;
nodes = (
"191 331 LINE SMOOTH",
"191 327 OFFCURVE",
"189 325 OFFCURVE",
"185 325 CURVE SMOOTH",
"142 325 LINE SMOOTH",
"138 325 OFFCURVE",
"136 327 OFFCURVE",
"136 330 CURVE SMOOTH",
"136 672 LINE SMOOTH",
"136 676 OFFCURVE",
"138 678 OFFCURVE",
"142 678 CURVE SMOOTH",
"185 678 LINE SMOOTH",
"189 678 OFFCURVE",
"191 676 OFFCURVE",
"191 672 CURVE SMOOTH"
);
}
);
width = 304;
}
);
unicode = 0104;
},
{
color = 0;
glyphname = Aring;
lastChange = "2013-12-03 23:01:42 -0500";
layers = (
{
layerId = UUID0;
name = Regular;
paths = (
{
closed = 1;
nodes = (
"254 710 LINE",
"71 710 LINE",
"26 0 LINE",
"73 0 LINE",
"119 278 LINE",
"170 278 LINE",
"196 0 LINE",
"254 0 LINE"
);
},
{
closed = 1;
nodes = (
"191 331 LINE SMOOTH",
"191 327 OFFCURVE",
"189 325 OFFCURVE",
"185 325 CURVE SMOOTH",
"142 325 LINE SMOOTH",
"138 325 OFFCURVE",
"136 327 OFFCURVE",
"136 330 CURVE SMOOTH",
"136 672 LINE SMOOTH",
"136 676 OFFCURVE",
"138 678 OFFCURVE",
"142 678 CURVE SMOOTH",
"185 678 LINE SMOOTH",
"189 678 OFFCURVE",
"191 676 OFFCURVE",
"191 672 CURVE SMOOTH"
);
},
{
closed = 1;
nodes = (
"99 899 LINE",
"99 764 LINE",
"213 764 LINE",
"238 790 LINE",
"238 899 LINE"
);
},
{
closed = 1;
nodes = (
"148 799 LINE SMOOTH",
"144 799 OFFCURVE",
"142 800 OFFCURVE",
"142 803 CURVE SMOOTH",
"142 869 LINE SMOOTH",
"142 871 OFFCURVE",
"145 872 OFFCURVE",
"150 872 CURVE",
"190 867 LINE",
"194 865 OFFCURVE",
"196 863 OFFCURVE",
"196 861 CURVE SMOOTH",
"196 805 LINE SMOOTH",
"196 801 OFFCURVE",
"194 799 OFFCURVE",
"189 799 CURVE SMOOTH"
);
}
);
width = 304;
}
);
unicode = 00C5;
},
{
color = 0;
glyphname = Aringacute;
lastChange = "2013-12-03 23:01:42 -0500";
layers = (
{
layerId = UUID0;
name = Regular;
paths = (
{
closed = 1;
nodes = (
"95 810 LINE",
"95 710 LINE",
"71 710 LINE",
"26 0 LINE",
"73 0 LINE",
"119 278 LINE",
"170 278 LINE",
"196 0 LINE",
"254 0 LINE",
"254 710 LINE",
"234 710 LINE",
"234 810 LINE"
);
},
{
closed = 1;
nodes = (
"191 331 LINE SMOOTH",
"191 327 OFFCURVE",
"189 325 OFFCURVE",
"185 325 CURVE SMOOTH",
"142 325 LINE SMOOTH",
"138 325 OFFCURVE",
"136 327 OFFCURVE",
"136 330 CURVE SMOOTH",
"136 672 LINE",
"136 675 LINE",
"190 675 LINE",
"191 674 OFFCURVE",
"191 673 OFFCURVE",
"191 672 CURVE"
);
},
{
closed = 1;
nodes = (
"108 861 LINE",
"124 823 LINE",
"250 845 LINE",
"241 900 LINE"
);
},
{
closed = 1;
nodes = (
"141 710 LINE SMOOTH",
"139 710 OFFCURVE",
"138 711 OFFCURVE",
"138 714 CURVE SMOOTH",
"138 780 LINE SMOOTH",
"138 782 OFFCURVE",
"141 783 OFFCURVE",
"146 783 CURVE",
"186 778 LINE",
"190 776 OFFCURVE",
"192 774 OFFCURVE",
"192 772 CURVE SMOOTH",
"192 716 LINE SMOOTH",
"192 712 OFFCURVE",
"190 710 OFFCURVE",
"185 710 CURVE SMOOTH"
);
}
);
width = 304;
}
);
unicode = 01FA;
},
{
color = 0;
glyphname = Atilde;
lastChange = "2013-12-03 23:01:42 -0500";
layers = (
{
layerId = UUID0;
name = Regular;
paths = (
{
closed = 1;
nodes = (
"254 710 LINE",
"71 710 LINE",
"26 0 LINE",
"73 0 LINE",
"119 278 LINE",
"170 278 LINE",
"196 0 LINE",
"254 0 LINE"
);
},
{
closed = 1;
nodes = (
"191 331 LINE SMOOTH",
"191 327 OFFCURVE",
"189 325 OFFCURVE",
"185 325 CURVE SMOOTH",
"142 325 LINE SMOOTH",
"138 325 OFFCURVE",
"136 327 OFFCURVE",
"136 330 CURVE SMOOTH",
"136 672 LINE SMOOTH",
"136 676 OFFCURVE",
"138 678 OFFCURVE",
"142 678 CURVE SMOOTH",
"185 678 LINE SMOOTH",
"189 678 OFFCURVE",
"191 676 OFFCURVE",
"191 672 CURVE SMOOTH"
);
},
{
closed = 1;
nodes = (
"107 897 OFFCURVE",
"95 892 OFFCURVE",
"84 883 CURVE SMOOTH",
"58 860 LINE",
"61 791 LINE",
"129 844 LINE",
"173 813 LINE SMOOTH",
"190 801 OFFCURVE",
"203 794 OFFCURVE",
"218 794 CURVE SMOOTH",
"230 794 OFFCURVE",
"249 805 OFFCURVE",
"262 817 CURVE SMOOTH",
"286 840 LINE",
"286 900 LINE",
"214 852 LINE",
"176 877 LINE SMOOTH",
"160 888 OFFCURVE",
"141 897 OFFCURVE",
"122 897 CURVE SMOOTH"
);
}
);
width = 304;
}
);
unicode = 00C3;
},
{
color = 0;
glyphname = AE;
lastChange = "2013-12-03 23:01:42 -0500";
layers = (
{
anchors = (
{
name = top;
position = "{236, 710}";
}
);
layerId = UUID0;
name = Regular;
paths = (
{
closed = 1;
nodes = (
"423 710 LINE",
"71 710 LINE",
"26 0 LINE",
"73 0 LINE",
"119 278 LINE",
"190 278 LINE",
"216 0 LINE",
"432 0 LINE",
"420 101 LINE",
"285 83 LINE",
"285 393 LINE",
"389 411 LINE",
"389 461 LINE",
"280 461 LINE",
"280 632 LINE",
"423 632 LINE"
);
},
{
closed = 1;
nodes = (
"191 331 LINE SMOOTH",
"191 327 OFFCURVE",
"189 325 OFFCURVE",
"185 325 CURVE SMOOTH",
"142 325 LINE SMOOTH",
"138 325 OFFCURVE",
"136 327 OFFCURVE",
"136 330 CURVE SMOOTH",
"136 672 LINE SMOOTH",
"136 676 OFFCURVE",
"138 678 OFFCURVE",
"142 678 CURVE SMOOTH",
"185 678 LINE SMOOTH",
"189 678 OFFCURVE",
"191 676 OFFCURVE",
"191 672 CURVE SMOOTH"
);
}
);
width = 472;
}
);
unicode = 00C6;
},
{
color = 0;
glyphname = AEacute;
lastChange = "2013-12-03 23:01:42 -0500";
layers = (
{
layerId = UUID0;
name = Regular;
paths = (
{
closed = 1;
nodes = (
"423 710 LINE",
"71 710 LINE",
"26 0 LINE",
"73 0 LINE",
"119 278 LINE",
"190 278 LINE",
"216 0 LINE",
"432 0 LINE",
"420 101 LINE",
"285 83 LINE",
"285 393 LINE",
"389 411 LINE",
"389 461 LINE",
"280 461 LINE",
"280 632 LINE",
"423 632 LINE"
);
},
{
closed = 1;
nodes = (
"191 331 LINE SMOOTH",
"191 327 OFFCURVE",
"189 325 OFFCURVE",
"185 325 CURVE SMOOTH",
"142 325 LINE SMOOTH",
"138 325 OFFCURVE",
"136 327 OFFCURVE",
"136 330 CURVE SMOOTH",
"136 672 LINE SMOOTH",
"136 676 OFFCURVE",
"138 678 OFFCURVE",
"142 678 CURVE SMOOTH",
"185 678 LINE SMOOTH",
"189 678 OFFCURVE",
"191 676 OFFCURVE",
"191 672 CURVE SMOOTH"
);
},
{
closed = 1;
nodes = (
"188 792 LINE",
"222 768 LINE",
"318 852 LINE",
"272 900 LINE"
);
}
);
width = 472;
}
);
unicode = 01FC;
},
{
color = 0;
glyphname = B;
lastChange = "2013-12-03 23:01:42 -0500";
layers = (
{
layerId = UUID0;
name = Regular;
paths = (
{
closed = 1;
nodes = (
"219 379 OFFCURVE",
"221 382 OFFCURVE",
"221 397 CURVE",
"250 652 LINE",
"250 653 OFFCURVE",
"251 661 OFFCURVE",
"251 662 CURVE SMOOTH",
"251 705 OFFCURVE",
"188 710 OFFCURVE",
"163 710 CURVE SMOOTH",
"50 710 LINE",
"50 20 LINE",
"186 20 LINE SMOOTH",
"198 20 OFFCURVE",
"261 21 OFFCURVE",
"261 50 CURVE SMOOTH",
"261 352 LINE SMOOTH",
"261 365 OFFCURVE",
"233 370 OFFCURVE",
"210 374 CURVE"
);
},
{
closed = 1;
nodes = (
"107 647 LINE SMOOTH",
"107 650 OFFCURVE",
"111 651 OFFCURVE",
"119 651 CURVE SMOOTH",
"162 651 LINE SMOOTH",
"171 651 OFFCURVE",
"176 650 OFFCURVE",
"176 647 CURVE SMOOTH",
"166 431 LINE SMOOTH",
"166 426 OFFCURVE",
"163 423 OFFCURVE",
"157 422 CURVE",
"119 407 LINE",
"111 407 OFFCURVE",
"107 410 OFFCURVE",
"107 415 CURVE SMOOTH"
);
},
{
closed = 1;
nodes = (
"140 76 LINE SMOOTH",
"135 76 OFFCURVE",
"129 78 OFFCURVE",
"129 79 CURVE",
"129 331 LINE",
"129 332 OFFCURVE",
"135 337 OFFCURVE",
"140 337 CURVE SMOOTH",
"182 337 LINE SMOOTH",
"187 337 OFFCURVE",
"189 336 OFFCURVE",
"189 334 CURVE SMOOTH",
"189 333 OFFCURVE",
"188 332 OFFCURVE",
"186 331 CURVE",
"186 106 LINE",
"187 106 OFFCURVE",
"188 104 OFFCURVE",
"188 100 CURVE SMOOTH",
"188 92 OFFCURVE",
"182 76 OFFCURVE",
"155 76 CURVE SMOOTH"
);
}
);
width = 306;
}
);
unicode = 0042;
},
{
color = 0;
glyphname = C;
lastChange = "2013-12-03 23:01:42 -0500";
layers = (
{
anchors = (
{
name = bottom;
position = "{167, 0}";
},
{
name = top;
position = "{167, 710}";
}
);
layerId = UUID0;
name = Regular;
paths = (
{
closed = 1;
nodes = (
"232 167 LINE",
"212 89 LINE",
"212 85 OFFCURVE",
"208 83 OFFCURVE",
"200 83 CURVE SMOOTH",
"141 83 LINE SMOOTH",
"137 83 OFFCURVE",
"132 83 OFFCURVE",
"132 86 CURVE SMOOTH",
"132 87 OFFCURVE",
"133 88 OFFCURVE",
"135 89 CURVE",
"115 588 LINE",
"113 589 OFFCURVE",
"112 593 OFFCURVE",
"112 601 CURVE SMOOTH",
"112 621 OFFCURVE",
"120 651 OFFCURVE",
"148 651 CURVE SMOOTH",
"190 651 LINE SMOOTH",
"198 651 OFFCURVE",
"202 648 OFFCURVE",
"202 642 CURVE SMOOTH",
"212 529 LINE",
"278 529 LINE",
"294 654 LINE",
"294 710 LINE",
"130 710 LINE SMOOTH",
"78 710 OFFCURVE",
"50 685 OFFCURVE",
"50 654 CURVE SMOOTH",
"50 62 LINE SMOOTH",
"50 29 OFFCURVE",
"78 0 OFFCURVE",
"151 0 CURVE SMOOTH",
"294 0 LINE",
"294 167 LINE"
);
}
);
width = 334;
}
);
unicode = 0043;
},
{
color = 0;
glyphname = Cacute;
lastChange = "2013-12-03 23:01:42 -0500";
layers = (
{
layerId = UUID0;
name = Regular;
paths = (
{
closed = 1;
nodes = (
"232 167 LINE",
"212 89 LINE",
"212 85 OFFCURVE",
"208 83 OFFCURVE",
"200 83 CURVE SMOOTH",
"141 83 LINE SMOOTH",
"137 83 OFFCURVE",
"132 83 OFFCURVE",
"132 86 CURVE SMOOTH",
"132 87 OFFCURVE",
"133 88 OFFCURVE",
"135 89 CURVE",
"115 588 LINE",
"113 589 OFFCURVE",
"112 593 OFFCURVE",
"112 601 CURVE SMOOTH",
"112 621 OFFCURVE",
"120 651 OFFCURVE",
"148 651 CURVE SMOOTH",
"190 651 LINE SMOOTH",
"198 651 OFFCURVE",
"202 648 OFFCURVE",
"202 642 CURVE SMOOTH",
"212 529 LINE",
"278 529 LINE",
"294 654 LINE",
"294 710 LINE",
"130 710 LINE SMOOTH",
"78 710 OFFCURVE",
"50 685 OFFCURVE",
"50 654 CURVE SMOOTH",
"50 62 LINE SMOOTH",
"50 29 OFFCURVE",
"78 0 OFFCURVE",
"151 0 CURVE SMOOTH",
"294 0 LINE",
"294 167 LINE"
);
},
{
closed = 1;
nodes = (
"136 792 LINE",
"170 768 LINE",
"266 852 LINE",
"220 900 LINE"
);
}
);
width = 334;
}
);
unicode = 0106;
},
{
color = 0;
glyphname = Ccaron;
lastChange = "2013-12-03 23:01:42 -0500";
layers = (
{
layerId = UUID0;
name = Regular;
paths = (
{
closed = 1;
nodes = (
"232 167 LINE",
"212 89 LINE",
"212 85 OFFCURVE",
"208 83 OFFCURVE",
"200 83 CURVE SMOOTH",
"141 83 LINE SMOOTH",
"137 83 OFFCURVE",
"132 83 OFFCURVE",
"132 86 CURVE SMOOTH",
"132 87 OFFCURVE",
"133 88 OFFCURVE",
"135 89 CURVE",
"115 588 LINE",
"113 589 OFFCURVE",
"112 593 OFFCURVE",
"112 601 CURVE SMOOTH",
"112 621 OFFCURVE",
"120 651 OFFCURVE",
"148 651 CURVE SMOOTH",
"190 651 LINE SMOOTH",
"198 651 OFFCURVE",
"202 648 OFFCURVE",
"202 642 CURVE SMOOTH",
"212 529 LINE",
"278 529 LINE",
"294 654 LINE",
"294 710 LINE",
"130 710 LINE SMOOTH",
"78 710 OFFCURVE",
"50 685 OFFCURVE",
"50 654 CURVE SMOOTH",
"50 62 LINE SMOOTH",
"50 29 OFFCURVE",
"78 0 OFFCURVE",
"151 0 CURVE SMOOTH",
"294 0 LINE",
"294 167 LINE"
);
},
{
closed = 1;
nodes = (
"283 881 LINE",
"254 900 LINE",
"189 838 LINE",
"124 900 LINE",
"95 881 LINE",
"169 771 LINE",
"209 768 LINE"
);
}
);
width = 334;
}
);
unicode = 010C;
},
{
color = 0;
glyphname = Ccedilla;
lastChange = "2013-12-03 23:01:42 -0500";
layers = (
{
layerId = UUID0;
name = Regular;
paths = (
{
closed = 1;
nodes = (
"232 167 LINE",
"212 89 LINE",
"212 85 OFFCURVE",
"208 83 OFFCURVE",
"200 83 CURVE SMOOTH",
"141 83 LINE SMOOTH",
"137 83 OFFCURVE",
"132 83 OFFCURVE",
"132 86 CURVE SMOOTH",
"132 87 OFFCURVE",
"133 88 OFFCURVE",
"135 89 CURVE",
"115 588 LINE",
"113 589 OFFCURVE",
"112 593 OFFCURVE",
"112 601 CURVE SMOOTH",
"112 621 OFFCURVE",
"120 651 OFFCURVE",
"148 651 CURVE SMOOTH",
"190 651 LINE SMOOTH",
"198 651 OFFCURVE",
"202 648 OFFCURVE",
"202 642 CURVE SMOOTH",
"212 529 LINE",
"278 529 LINE",
"294 654 LINE",
"294 710 LINE",
"130 710 LINE SMOOTH",
"78 710 OFFCURVE",
"50 685 OFFCURVE",
"50 654 CURVE SMOOTH",
"50 62 LINE SMOOTH",
"50 32 OFFCURVE",
"72 6 OFFCURVE",
"129 1 CURVE",
"104 -89 LINE",
"209 -97 LINE",
"199 -150 LINE",
"70 -150 LINE",
"70 -208 LINE",
"193 -208 LINE SMOOTH",
"222 -208 OFFCURVE",
"257 -176 OFFCURVE",
"257 -148 CURVE",
"281 -45 LINE",
"169 -45 LINE",
"192 0 LINE",
"294 0 LINE",
"294 167 LINE"
);
}
);
width = 334;
}
);
unicode = 00C7;
},
{
color = 0;
glyphname = Ccircumflex;
lastChange = "2013-12-03 23:01:42 -0500";
layers = (
{
layerId = UUID0;
name = Regular;
paths = (
{
closed = 1;
nodes = (
"232 167 LINE",
"212 89 LINE",
"212 85 OFFCURVE",
"208 83 OFFCURVE",
"200 83 CURVE SMOOTH",
"141 83 LINE SMOOTH",
"137 83 OFFCURVE",
"132 83 OFFCURVE",
"132 86 CURVE SMOOTH",
"132 87 OFFCURVE",
"133 88 OFFCURVE",
"135 89 CURVE",
"115 588 LINE",
"113 589 OFFCURVE",
"112 593 OFFCURVE",
"112 601 CURVE SMOOTH",
"112 621 OFFCURVE",
"120 651 OFFCURVE",
"148 651 CURVE SMOOTH",
"190 651 LINE SMOOTH",
"198 651 OFFCURVE",
"202 648 OFFCURVE",
"202 642 CURVE SMOOTH",
"212 529 LINE",
"278 529 LINE",
"294 654 LINE",
"294 710 LINE",
"130 710 LINE SMOOTH",
"78 710 OFFCURVE",
"50 685 OFFCURVE",
"50 654 CURVE SMOOTH",
"50 62 LINE SMOOTH",
"50 29 OFFCURVE",
"78 0 OFFCURVE",
"151 0 CURVE SMOOTH",
"294 0 LINE",
"294 167 LINE"
);
},
{
closed = 1;
nodes = (
"92 787 LINE",
"121 768 LINE",
"186 830 LINE",
"251 768 LINE",
"280 787 LINE",
"206 897 LINE",
"166 900 LINE"
);
}
);
width = 334;
}
);
unicode = 0108;
},
{
color = 0;
glyphname = Cdotaccent;
lastChange = "2013-12-03 23:01:42 -0500";
layers = (
{
layerId = UUID0;
name = Regular;
paths = (
{
closed = 1;
nodes = (
"232 167 LINE",
"212 89 LINE",
"212 85 OFFCURVE",
"208 83 OFFCURVE",
"200 83 CURVE SMOOTH",
"141 83 LINE SMOOTH",
"137 83 OFFCURVE",
"132 83 OFFCURVE",
"132 86 CURVE SMOOTH",
"132 87 OFFCURVE",
"133 88 OFFCURVE",
"135 89 CURVE",
"115 588 LINE",
"113 589 OFFCURVE",
"112 593 OFFCURVE",
"112 601 CURVE SMOOTH",
"112 621 OFFCURVE",
"120 651 OFFCURVE",
"148 651 CURVE SMOOTH",
"190 651 LINE SMOOTH",
"198 651 OFFCURVE",
"202 648 OFFCURVE",
"202 642 CURVE SMOOTH",
"212 529 LINE",
"278 529 LINE",
"294 654 LINE",
"294 710 LINE",
"130 710 LINE SMOOTH",
"78 710 OFFCURVE",
"50 685 OFFCURVE",
"50 654 CURVE SMOOTH",
"50 62 LINE SMOOTH",
"50 29 OFFCURVE",
"78 0 OFFCURVE",
"151 0 CURVE SMOOTH",
"294 0 LINE",
"294 167 LINE"
);
},
{
closed = 1;
nodes = (
"144 802 LINE",
"233 805 LINE",
"233 900 LINE",
"140 900 LINE"
);
}
);
width = 334;
}
);
unicode = 010A;
},
{
color = 0;
glyphname = D;
lastChange = "2013-12-03 23:01:42 -0500";
layers = (
{
anchors = (
{
name = center;
position = "{156, 355}";
},
{
name = top;
position = "{156, 710}";
}
);
layerId = UUID0;
name = Regular;
paths = (
{
closed = 1;
nodes = (
"50 710 LINE",
"50 0 LINE",
"183 0 LINE",
"244 57 LINE",
"274 600 LINE",
"274 664 OFFCURVE",
"229 710 OFFCURVE",
"165 710 CURVE SMOOTH"
);
},
{
closed = 1;
nodes = (
"177 84 LINE SMOOTH",
"177 79 OFFCURVE",
"174 75 OFFCURVE",
"168 71 CURVE",
"131 66 LINE",
"122 72 LINE",
"122 638 LINE SMOOTH",
"122 641 OFFCURVE",
"128 644 OFFCURVE",
"131 644 CURVE SMOOTH",
"176 644 LINE SMOOTH",
"184 644 OFFCURVE",
"188 642 OFFCURVE",
"188 638 CURVE SMOOTH"
);
}
);
width = 312;
}
);
unicode = 0044;
},
{
color = 0;
glyphname = DZ;
lastChange = "2013-12-03 23:01:42 -0500";
layers = (
{
layerId = UUID0;
name = Regular;
paths = (
{
closed = 1;
nodes = (
"50 710 LINE",
"50 0 LINE",
"183 0 LINE",
"244 57 LINE",
"274 600 LINE",
"274 664 OFFCURVE",
"229 710 OFFCURVE",
"165 710 CURVE SMOOTH"
);
},
{
closed = 1;
nodes = (
"177 84 LINE SMOOTH",
"177 79 OFFCURVE",
"174 75 OFFCURVE",
"168 71 CURVE",
"131 66 LINE",
"122 72 LINE",
"122 638 LINE SMOOTH",
"122 641 OFFCURVE",
"128 644 OFFCURVE",
"131 644 CURVE SMOOTH",
"176 644 LINE SMOOTH",
"184 644 OFFCURVE",
"188 642 OFFCURVE",
"188 638 CURVE SMOOTH"
);
},
{
closed = 1;
nodes = (
"360 0 LINE",
"342 22 LINE",
"376 88 LINE",
"494 638 LINE",
"358 670 LINE",
"358 710 LINE",
"553 710 LINE",
"584 679 LINE",
"442 84 LINE",
"576 65 LINE",
"584 0 LINE"
);
}
);
width = 614;
}
);
unicode = 01F1;
},
{
color = 0;
glyphname = DZcaron;
lastChange = "2013-12-03 23:01:42 -0500";
layers = (
{
layerId = UUID0;
name = Regular;
paths = (
{
closed = 1;
nodes = (
"50 710 LINE",
"50 0 LINE",
"183 0 LINE",
"244 57 LINE",
"274 600 LINE",
"274 664 OFFCURVE",
"229 710 OFFCURVE",
"165 710 CURVE SMOOTH"
);
},
{
closed = 1;
nodes = (
"177 84 LINE SMOOTH",
"177 79 OFFCURVE",
"174 75 OFFCURVE",
"168 71 CURVE",
"131 66 LINE",
"122 72 LINE",
"122 638 LINE SMOOTH",
"122 641 OFFCURVE",
"128 644 OFFCURVE",
"131 644 CURVE SMOOTH",
"176 644 LINE SMOOTH",
"184 644 OFFCURVE",
"188 642 OFFCURVE",
"188 638 CURVE SMOOTH"
);
},
{
closed = 1;
nodes = (
"584 0 LINE",
"576 65 LINE",
"442 84 LINE",
"584 679 LINE",
"553 710 LINE",
"358 710 LINE",
"358 670 LINE",
"494 638 LINE",
"376 88 LINE",
"342 22 LINE",
"360 0 LINE"
);
},
{
closed = 1;
nodes = (
"563 881 LINE",
"534 900 LINE",
"469 838 LINE",
"404 900 LINE",
"375 881 LINE",
"449 771 LINE",
"489 768 LINE"
);
}
);
width = 614;
}
);
unicode = 01C4;
},
{
color = 0;
glyphname = Eth;
lastChange = "2013-12-03 23:01:42 -0500";
layers = (
{
layerId = UUID0;
name = Regular;
paths = (
{
closed = 1;
nodes = (
"-3 396 LINE",
"0 338 LINE",
"50 338 LINE",
"50 0 LINE",
"183 0 LINE SMOOTH",
"191 0 OFFCURVE",
"241 4 OFFCURVE",
"244 57 CURVE SMOOTH",
"274 600 LINE SMOOTH",
"274 605 OFFCURVE",
"275 613 OFFCURVE",
"275 616 CURVE SMOOTH",
"275 671 OFFCURVE",
"213 710 OFFCURVE",
"165 710 CURVE SMOOTH",
"50 710 LINE",
"50 393 LINE"
);
},
{
closed = 1;
nodes = (
"177 84 LINE SMOOTH",
"177 79 OFFCURVE",
"174 75 OFFCURVE",
"168 71 CURVE",
"131 66 LINE",
"122 72 LINE",
"122 338 LINE",
"157 338 LINE",
"157 387 LINE",
"122 389 LINE",
"122 638 LINE SMOOTH",
"122 641 OFFCURVE",
"128 644 OFFCURVE",
"131 644 CURVE SMOOTH",
"176 644 LINE SMOOTH",
"184 644 OFFCURVE",
"188 642 OFFCURVE",
"188 638 CURVE SMOOTH"
);
}
);
width = 312;
}
);
unicode = 00D0;
},
{
color = 0;
glyphname = Dcaron;
lastChange = "2013-12-03 23:01:42 -0500";
layers = (
{
layerId = UUID0;
name = Regular;
paths = (
{
closed = 1;
nodes = (
"50 710 LINE",
"50 0 LINE",
"183 0 LINE",
"244 57 LINE",
"274 600 LINE",
"274 664 OFFCURVE",
"229 710 OFFCURVE",
"165 710 CURVE SMOOTH"
);
},
{
closed = 1;
nodes = (
"177 84 LINE SMOOTH",
"177 79 OFFCURVE",
"174 75 OFFCURVE",
"168 71 CURVE",
"131 66 LINE",
"122 72 LINE",
"122 638 LINE SMOOTH",
"122 641 OFFCURVE",
"128 644 OFFCURVE",
"131 644 CURVE SMOOTH",
"176 644 LINE SMOOTH",
"184 644 OFFCURVE",
"188 642 OFFCURVE",
"188 638 CURVE SMOOTH"
);
},
{
closed = 1;
nodes = (
"252 881 LINE",
"223 900 LINE",
"158 838 LINE",
"93 900 LINE",
"64 881 LINE",
"138 771 LINE",
"178 768 LINE"
);
}
);
width = 312;
}
);
unicode = 010E;
},
{
color = 0;
glyphname = Dcroat;
lastChange = "2013-12-03 23:01:42 -0500";
layers = (
{
layerId = UUID0;
name = Regular;
paths = (
{
closed = 1;
nodes = (
"-3 396 LINE",
"0 338 LINE",
"50 338 LINE",
"50 0 LINE",
"183 0 LINE SMOOTH",
"191 0 OFFCURVE",
"241 4 OFFCURVE",
"244 57 CURVE SMOOTH",
"274 600 LINE SMOOTH",
"274 605 OFFCURVE",
"275 613 OFFCURVE",
"275 616 CURVE SMOOTH",
"275 671 OFFCURVE",
"213 710 OFFCURVE",
"165 710 CURVE SMOOTH",
"50 710 LINE",
"50 393 LINE"
);
},
{
closed = 1;
nodes = (
"177 84 LINE SMOOTH",
"177 79 OFFCURVE",
"174 75 OFFCURVE",
"168 71 CURVE",
"131 66 LINE",
"122 72 LINE",
"122 338 LINE",
"157 338 LINE",
"157 387 LINE",
"122 389 LINE",
"122 638 LINE SMOOTH",
"122 641 OFFCURVE",
"128 644 OFFCURVE",
"131 644 CURVE SMOOTH",
"176 644 LINE SMOOTH",
"184 644 OFFCURVE",
"188 642 OFFCURVE",
"188 638 CURVE SMOOTH"
);
}
);
width = 312;
}
);
unicode = 0110;
},
{
color = 0;
glyphname = Ddotbelow;
lastChange = "2013-12-03 23:01:42 -0500";
layers = (
{
layerId = UUID0;
name = Regular;
paths = (
{
closed = 1;
nodes = (
"50 710 LINE",
"50 0 LINE",
"183 0 LINE",
"244 57 LINE",
"274 600 LINE",
"274 664 OFFCURVE",
"229 710 OFFCURVE",
"165 710 CURVE SMOOTH"
);
},
{
closed = 1;
nodes = (
"177 84 LINE SMOOTH",
"177 79 OFFCURVE",
"174 75 OFFCURVE",
"168 71 CURVE",
"131 66 LINE",
"122 72 LINE",
"122 638 LINE SMOOTH",
"122 641 OFFCURVE",
"128 644 OFFCURVE",
"131 644 CURVE SMOOTH",
"176 644 LINE SMOOTH",
"184 644 OFFCURVE",
"188 642 OFFCURVE",
"188 638 CURVE SMOOTH"
);
},
{
closed = 1;
nodes = (
"100 -154 LINE",
"189 -151 LINE",
"189 -56 LINE",
"96 -56 LINE"
);
}
);
width = 312;
}
);
unicode = 1E0C;
},
{
color = 0;
glyphname = E;
lastChange = "2013-12-03 23:01:42 -0500";
layers = (
{
anchors = (
{
name = bottom;
position = "{158, 0}";
},
{
name = ogonek;
position = "{284, 10}";
},
{
name = top;
position = "{158, 710}";
}
);
layerId = UUID0;
name = Regular;
paths = (
{
closed = 1;
nodes = (
"269 121 LINE",
"134 103 LINE",
"134 358 LINE",
"238 376 LINE",
"238 426 LINE",
"129 426 LINE",
"129 632 LINE",
"272 632 LINE",
"272 710 LINE",
"69 710 LINE",
"46 20 LINE",
"281 20 LINE"
);
}
);
width = 316;
}
);
unicode = 0045;
},
{
color = 0;
glyphname = Eacute;
lastChange = "2013-12-03 23:01:42 -0500";
layers = (
{
layerId = UUID0;
name = Regular;
paths = (
{
closed = 1;
nodes = (
"269 121 LINE",
"134 103 LINE",
"134 358 LINE",
"238 376 LINE",
"238 426 LINE",
"129 426 LINE",
"129 632 LINE",
"272 632 LINE",
"272 710 LINE",
"69 710 LINE",
"46 20 LINE",
"281 20 LINE"
);
},
{
closed = 1;
nodes = (
"113 792 LINE",
"147 768 LINE",
"243 852 LINE",
"197 900 LINE"
);
}
);
width = 316;
}
);
unicode = 00C9;
},
{
color = 0;
glyphname = Ebreve;
lastChange = "2013-12-03 23:01:42 -0500";
layers = (
{
layerId = UUID0;
name = Regular;
paths = (
{
closed = 1;
nodes = (
"269 121 LINE",
"134 103 LINE",
"134 358 LINE",
"238 376 LINE",
"238 426 LINE",
"129 426 LINE",
"129 632 LINE",
"272 632 LINE",
"272 710 LINE",
"69 710 LINE",
"46 20 LINE",
"281 20 LINE"
);
},
{
closed = 1;
nodes = (
"72 894 LINE",
"76 813 LINE",
"121 785 LINE",
"246 785 LINE",
"285 824 LINE",
"285 900 LINE",
"239 896 LINE",
"242 830 LINE",
"132 835 LINE",
"120 846 LINE",
"125 894 LINE"
);
}
);
width = 316;
}
);
unicode = 0114;
},
{
color = 0;
glyphname = Ecaron;
lastChange = "2013-12-03 23:01:42 -0500";
layers = (
{
layerId = UUID0;
name = Regular;
paths = (
{
closed = 1;
nodes = (
"269 121 LINE",
"134 103 LINE",
"134 358 LINE",
"238 376 LINE",
"238 426 LINE",
"129 426 LINE",
"129 632 LINE",
"272 632 LINE",
"272 710 LINE",
"69 710 LINE",
"46 20 LINE",
"281 20 LINE"
);
},
{
closed = 1;
nodes = (
"270 881 LINE",
"241 900 LINE",
"176 838 LINE",
"111 900 LINE",
"82 881 LINE",
"156 771 LINE",
"196 768 LINE"
);
}
);
width = 316;
}
);
unicode = 011A;
},
{
color = 0;
glyphname = Ecircumflex;
lastChange = "2013-12-03 23:01:42 -0500";
layers = (
{
layerId = UUID0;
name = Regular;
paths = (
{
closed = 1;
nodes = (
"269 121 LINE",
"134 103 LINE",
"134 358 LINE",
"238 376 LINE",
"238 426 LINE",
"129 426 LINE",
"129 632 LINE",
"272 632 LINE",
"272 710 LINE",
"69 710 LINE",
"46 20 LINE",
"281 20 LINE"
);
},
{
closed = 1;
nodes = (
"84 786 LINE",
"113 767 LINE",
"178 829 LINE",
"243 767 LINE",
"272 786 LINE",
"198 896 LINE",
"158 899 LINE"
);
}
);
width = 316;
}
);
unicode = 00CA;
},
{
color = 0;
glyphname = Edieresis;
lastChange = "2013-12-03 23:01:42 -0500";
layers = (
{
layerId = UUID0;
name = Regular;
paths = (
{
closed = 1;
nodes = (
"269 121 LINE",
"134 103 LINE",
"134 358 LINE",
"238 376 LINE",
"238 426 LINE",
"129 426 LINE",
"129 632 LINE",
"272 632 LINE",
"272 710 LINE",
"69 710 LINE",
"46 20 LINE",
"281 20 LINE"
);
},
{
closed = 1;
nodes = (
"43 817 LINE",
"122 817 LINE",
"126 900 LINE",
"43 897 LINE"
);
},
{
closed = 1;
nodes = (
"196 817 LINE",
"272 820 LINE",
"272 900 LINE",
"193 900 LINE"
);
}
);
width = 316;
}
);
unicode = 00CB;
},
{
color = 0;
glyphname = Edotaccent;
lastChange = "2013-12-03 23:01:42 -0500";
layers = (
{
layerId = UUID0;
name = Regular;
paths = (
{
closed = 1;
nodes = (
"269 121 LINE",
"134 103 LINE",
"134 358 LINE",
"238 376 LINE",
"238 426 LINE",
"129 426 LINE",
"129 632 LINE",
"272 632 LINE",
"272 710 LINE",
"69 710 LINE",
"46 20 LINE",
"281 20 LINE"
);
},
{
closed = 1;
nodes = (
"131 802 LINE",
"220 805 LINE",
"220 900 LINE",
"127 900 LINE"
);
}
);
width = 316;
}
);
unicode = 0116;
},
{
color = 0;
glyphname = Edotbelow;
lastChange = "2013-12-03 23:01:42 -0500";
layers = (
{
layerId = UUID0;
name = Regular;
paths = (
{
closed = 1;
nodes = (
"269 121 LINE",
"134 103 LINE",
"134 358 LINE",
"238 376 LINE",
"238 426 LINE",
"129 426 LINE",
"129 632 LINE",
"272 632 LINE",
"272 710 LINE",
"69 710 LINE",
"46 20 LINE",
"281 20 LINE"
);
},
{
closed = 1;
nodes = (
"117 -154 LINE",
"206 -151 LINE",
"206 -56 LINE",
"113 -56 LINE"
);
}
);
width = 316;
}
);
unicode = 1EB8;
},
{
color = 0;
glyphname = Egrave;
lastChange = "2013-12-03 23:01:42 -0500";
layers = (
{
layerId = UUID0;
name = Regular;
paths = (
{
closed = 1;
nodes = (
"269 121 LINE",
"134 103 LINE",
"134 358 LINE",
"238 376 LINE",
"238 426 LINE",
"129 426 LINE",
"129 632 LINE",
"272 632 LINE",
"272 710 LINE",
"69 710 LINE",
"46 20 LINE",
"281 20 LINE"
);
},
{
closed = 1;
nodes = (
"149 899 LINE",
"103 851 LINE",
"199 767 LINE",
"233 791 LINE"
);
}
);
width = 316;
}
);
unicode = 00C8;
},
{
color = 0;
glyphname = Emacron;
lastChange = "2013-12-03 23:01:42 -0500";
layers = (
{
layerId = UUID0;
name = Regular;
paths = (
{
closed = 1;
nodes = (
"269 121 LINE",
"134 103 LINE",
"134 358 LINE",
"238 376 LINE",
"238 426 LINE",
"129 426 LINE",
"129 632 LINE",
"272 632 LINE",
"272 710 LINE",
"69 710 LINE",
"46 20 LINE",
"281 20 LINE"
);
},
{
closed = 1;
nodes = (
"38 891 LINE",
"41 827 LINE",
"306 836 LINE",
"306 891 LINE"
);
}
);
width = 316;
}
);
unicode = 0112;
},
{
color = 0;
glyphname = Eogonek;
lastChange = "2013-12-03 23:01:42 -0500";
layers = (
{
layerId = UUID0;
name = Regular;
paths = (
{
closed = 1;
nodes = (
"269 121 LINE",
"134 103 LINE",
"134 358 LINE",
"238 376 LINE",
"238 426 LINE",
"129 426 LINE",
"129 632 LINE",
"272 632 LINE",
"272 710 LINE",
"69 710 LINE",
"46 20 LINE",
"123 20 LINE",
"65 -95 LINE",
"153 -209 LINE",
"266 -146 LINE",
"250 -100 LINE",
"161 -145 LINE",
"127 -83 LINE",
"153 0 LINE",
"153 20 LINE",
"281 20 LINE"
);
}
);
width = 316;
}
);
unicode = 0118;
},
{
color = 0;
glyphname = Etilde;
lastChange = "2013-12-03 23:01:42 -0500";
layers = (
{
layerId = UUID0;
name = Regular;
paths = (
{
closed = 1;
nodes = (
"269 121 LINE",
"134 103 LINE",
"134 358 LINE",
"238 376 LINE",
"238 426 LINE",
"129 426 LINE",
"129 632 LINE",
"272 632 LINE",
"272 710 LINE",
"69 710 LINE",
"46 20 LINE",
"281 20 LINE"
);
},
{
closed = 1;
nodes = (
"112 897 OFFCURVE",
"100 892 OFFCURVE",
"89 883 CURVE SMOOTH",
"63 860 LINE",
"66 791 LINE",
"134 844 LINE",
"178 813 LINE SMOOTH",
"195 801 OFFCURVE",
"208 794 OFFCURVE",
"223 794 CURVE SMOOTH",
"235 794 OFFCURVE",
"254 805 OFFCURVE",
"267 817 CURVE SMOOTH",
"291 840 LINE",
"291 900 LINE",
"219 852 LINE",
"181 877 LINE SMOOTH",
"165 888 OFFCURVE",
"146 897 OFFCURVE",
"127 897 CURVE SMOOTH"
);
}
);
width = 316;
}
);
unicode = 1EBC;
},
{
color = 0;
glyphname = F;
lastChange = "2013-12-03 23:01:42 -0500";
layers = (
{
layerId = UUID0;
name = Regular;
paths = (
{
closed = 1;
nodes = (
"133 0 LINE",
"133 355 LINE",
"237 373 LINE",
"237 423 LINE",
"128 423 LINE",
"128 622 LINE",
"251 622 LINE",
"251 710 LINE",
"68 710 LINE",
"45 0 LINE"
);
}
);
width = 281;
}
);
unicode = 0046;
},
{
color = 0;
glyphname = G;
lastChange = "2013-12-03 23:01:42 -0500";
layers = (
{
anchors = (
{
name = bottom;
position = "{189, 0}";
},
{
name = top;
position = "{189, 710}";
}
);
layerId = UUID0;
name = Regular;
paths = (
{
closed = 1;
nodes = (
"312 369 LINE",
"199 356 LINE",
"199 300 LINE",
"259 298 LINE",
"249 104 LINE SMOOTH",
"249 96 OFFCURVE",
"237 92 OFFCURVE",
"229 92 CURVE SMOOTH",
"156 92 LINE SMOOTH",
"147 92 OFFCURVE",
"135 101 OFFCURVE",
"135 110 CURVE SMOOTH",
"117 606 LINE",
"118 634 OFFCURVE",
"130 651 OFFCURVE",
"159 651 CURVE SMOOTH",
"226 651 LINE",
"256 561 LINE",
"299 561 LINE",
"299 710 LINE",
"86 710 LINE",
"50 656 LINE",
"50 97 LINE SMOOTH",
"50 45 OFFCURVE",
"75 20 OFFCURVE",
"102 20 CURVE SMOOTH",
"312 20 LINE"
);
}
);
width = 377;
}
);
unicode = 0047;
},
{
color = 0;
glyphname = Gbreve;
lastChange = "2013-12-03 23:01:42 -0500";
layers = (
{
layerId = UUID0;
name = Regular;
paths = (
{
closed = 1;
nodes = (
"312 369 LINE",
"199 356 LINE",
"199 300 LINE",
"259 298 LINE",
"249 104 LINE SMOOTH",
"249 96 OFFCURVE",
"237 92 OFFCURVE",
"229 92 CURVE SMOOTH",
"156 92 LINE SMOOTH",
"147 92 OFFCURVE",
"135 101 OFFCURVE",
"135 110 CURVE SMOOTH",
"117 606 LINE",
"118 634 OFFCURVE",
"130 651 OFFCURVE",
"159 651 CURVE SMOOTH",
"226 651 LINE",
"256 561 LINE",
"299 561 LINE",
"299 710 LINE",
"86 710 LINE",
"50 656 LINE",
"50 97 LINE SMOOTH",
"50 45 OFFCURVE",
"75 20 OFFCURVE",
"102 20 CURVE SMOOTH",
"312 20 LINE"
);
},
{
closed = 1;
nodes = (
"85 894 LINE",
"89 813 LINE",
"134 785 LINE",
"259 785 LINE",
"298 824 LINE",
"298 900 LINE",
"252 896 LINE",
"255 830 LINE",
"145 835 LINE",
"133 846 LINE",
"138 894 LINE"
);
}
);
width = 377;
}
);
unicode = 011E;
},
{
color = 0;
glyphname = Gcircumflex;
lastChange = "2013-12-03 23:01:42 -0500";
layers = (
{
layerId = UUID0;
name = Regular;
paths = (
{
closed = 1;
nodes = (
"312 369 LINE",
"199 356 LINE",
"199 300 LINE",
"259 298 LINE",
"249 104 LINE SMOOTH",
"249 96 OFFCURVE",
"237 92 OFFCURVE",
"229 92 CURVE SMOOTH",
"156 92 LINE SMOOTH",
"147 92 OFFCURVE",
"135 101 OFFCURVE",
"135 110 CURVE SMOOTH",
"117 606 LINE",
"118 634 OFFCURVE",
"130 651 OFFCURVE",
"159 651 CURVE SMOOTH",
"226 651 LINE",
"256 561 LINE",
"299 561 LINE",
"299 710 LINE",
"86 710 LINE",
"50 656 LINE",
"50 97 LINE SMOOTH",
"50 45 OFFCURVE",
"75 20 OFFCURVE",
"102 20 CURVE SMOOTH",
"312 20 LINE"
);
},
{
closed = 1;
nodes = (
"95 787 LINE",
"124 768 LINE",
"189 830 LINE",
"254 768 LINE",
"283 787 LINE",
"209 897 LINE",
"169 900 LINE"
);
}
);
width = 377;
}
);
unicode = 011C;
},
{
color = 0;
glyphname = Gcommaaccent;
lastChange = "2013-12-03 23:01:42 -0500";
layers = (
{
layerId = UUID0;
name = Regular;
paths = (
{
closed = 1;
nodes = (
"312 369 LINE",
"199 356 LINE",
"199 300 LINE",
"259 298 LINE",
"249 104 LINE SMOOTH",
"249 96 OFFCURVE",
"237 92 OFFCURVE",
"229 92 CURVE SMOOTH",
"156 92 LINE SMOOTH",
"147 92 OFFCURVE",
"135 101 OFFCURVE",
"135 110 CURVE SMOOTH",
"117 606 LINE",
"118 634 OFFCURVE",
"130 651 OFFCURVE",
"159 651 CURVE SMOOTH",
"226 651 LINE",
"256 561 LINE",
"299 561 LINE",
"299 710 LINE",
"86 710 LINE",
"50 656 LINE",
"50 97 LINE SMOOTH",
"50 45 OFFCURVE",
"75 20 OFFCURVE",
"102 20 CURVE SMOOTH",
"312 20 LINE"
);
},
{
closed = 1;
nodes = (
"148 -160 LINE",
"190 -160 LINE",
"144 -234 LINE",
"199 -250 LINE",
"232 -160 LINE",
"229 -78 LINE",
"148 -78 LINE"
);
}
);
width = 377;
}
);
unicode = 0122;
},
{
color = 0;
glyphname = Gdotaccent;
lastChange = "2013-12-03 23:01:42 -0500";
layers = (
{
layerId = UUID0;
name = Regular;
paths = (
{
closed = 1;
nodes = (
"312 369 LINE",
"199 356 LINE",
"199 300 LINE",
"259 298 LINE",
"249 104 LINE SMOOTH",
"249 96 OFFCURVE",
"237 92 OFFCURVE",
"229 92 CURVE SMOOTH",
"156 92 LINE SMOOTH",
"147 92 OFFCURVE",
"135 101 OFFCURVE",
"135 110 CURVE SMOOTH",
"117 606 LINE",
"118 634 OFFCURVE",
"130 651 OFFCURVE",
"159 651 CURVE SMOOTH",
"226 651 LINE",
"256 561 LINE",
"299 561 LINE",
"299 710 LINE",
"86 710 LINE",
"50 656 LINE",
"50 97 LINE SMOOTH",
"50 45 OFFCURVE",
"75 20 OFFCURVE",
"102 20 CURVE SMOOTH",
"312 20 LINE"
);
},
{
closed = 1;
nodes = (
"147 802 LINE",
"236 805 LINE",
"236 900 LINE",
"143 900 LINE"
);
}
);
width = 377;
}
);
unicode = 0120;
},
{
color = 0;
glyphname = H;
lastChange = "2013-12-03 23:01:42 -0500";
layers = (
{
anchors = (
{
name = center;
position = "{163, 355}";
},
{
name = top;
position = "{163, 710}";
}
);
layerId = UUID0;
name = Regular;
paths = (
{
closed = 1;
nodes = (
"220 -20 LINE",
"285 -20 LINE",
"264 624 LINE",
"279 648 LINE",
"279 690 LINE",
"192 690 LINE",
"192 400 LINE",
"118 385 LINE",
"118 710 LINE",
"37 710 LINE",
"60 0 LINE",
"130 0 LINE",
"119 317 LINE",
"199 326 LINE"
);
}
);
width = 325;
}
);
unicode = 0048;
},
{
color = 0;
glyphname = Hbar;
lastChange = "2013-12-03 23:01:42 -0500";
layers = (
{
layerId = UUID0;
name = Regular;
paths = (
{
closed = 1;
nodes = (
"225 -20 LINE",
"290 -20 LINE",
"272 522 LINE",
"325 524 LINE",
"325 570 LINE",
"271 570 LINE",
"269 624 LINE",
"284 648 LINE",
"284 690 LINE",
"197 690 LINE",
"197 570 LINE",
"123 570 LINE",
"123 710 LINE",
"42 710 LINE",
"46 570 LINE",
"0 570 LINE",
"3 513 LINE",
"48 514 LINE",
"65 0 LINE",
"135 0 LINE",
"124 317 LINE",
"204 326 LINE"
);
},
{
closed = 1;
nodes = (
"123 385 LINE",
"123 517 LINE",
"197 519 LINE",
"197 400 LINE"
);
}
);
width = 325;
}
);
unicode = 0126;
},
{
color = 0;
glyphname = Hcircumflex;
lastChange = "2013-12-03 23:01:42 -0500";
layers = (
{
layerId = UUID0;
name = Regular;
paths = (
{
closed = 1;
nodes = (
"220 -20 LINE",
"285 -20 LINE",
"264 624 LINE",
"279 648 LINE",
"279 690 LINE",
"192 690 LINE",
"192 400 LINE",
"118 385 LINE",
"118 710 LINE",
"37 710 LINE",
"60 0 LINE",
"130 0 LINE",
"119 317 LINE",
"199 326 LINE"
);
},
{
closed = 1;
nodes = (
"63 787 LINE",
"92 768 LINE",
"157 830 LINE",
"222 768 LINE",
"251 787 LINE",
"177 897 LINE",
"137 900 LINE"
);
}
);
width = 325;
}
);
unicode = 0124;
},
{
color = 0;
glyphname = Hdotbelow;
lastChange = "2013-12-03 23:01:42 -0500";
layers = (
{
layerId = UUID0;
name = Regular;
paths = (
{
closed = 1;
nodes = (
"220 -20 LINE",
"285 -20 LINE",
"264 624 LINE",
"279 648 LINE",
"279 690 LINE",
"192 690 LINE",
"192 400 LINE",
"118 385 LINE",
"118 710 LINE",
"37 710 LINE",
"60 0 LINE",
"130 0 LINE",
"119 317 LINE",
"199 326 LINE"
);
},
{
closed = 1;
nodes = (
"122 -154 LINE",
"211 -151 LINE",
"211 -56 LINE",
"118 -56 LINE"
);
}
);
width = 325;
}
);
unicode = 1E24;
},
{
color = 0;
glyphname = I;
lastChange = "2013-12-03 23:01:42 -0500";
layers = (
{
anchors = (
{
name = ogonek;
position = "{160, 10}";
},
{
name = top;
position = "{89, 710}";
}
);
layerId = UUID0;
name = Regular;
paths = (
{
closed = 1;
nodes = (
"133 710 LINE",
"32 710 LINE",
"32 664 LINE",
"50 616 LINE",
"50 0 LINE",
"124 0 LINE"
);
}
);
width = 178;
}
);
unicode = 0049;
},
{
color = 0;
glyphname = IJ;
lastChange = "2013-12-03 23:01:42 -0500";
layers = (
{
layerId = UUID0;
name = Regular;
paths = (
{
closed = 1;
nodes = (
"133 710 LINE",
"32 710 LINE",
"32 664 LINE",
"50 616 LINE",
"50 0 LINE",
"124 0 LINE"
);
},
{
closed = 1;
nodes = (
"400 0 LINE",
"219 0 LINE",
"183 172 LINE",
"262 192 LINE",
"267 54 LINE",
"331 49 LINE",
"331 616 LINE",
"313 664 LINE",
"313 710 LINE",
"409 710 LINE"
);
}
);
width = 454;
}
);
unicode = 0132;
},
{
color = 0;
glyphname = Iacute;
lastChange = "2013-12-03 23:01:42 -0500";
layers = (
{
layerId = UUID0;
name = Regular;
paths = (
{
closed = 1;
nodes = (
"133 710 LINE",
"32 710 LINE",
"32 664 LINE",
"50 616 LINE",
"50 0 LINE",
"124 0 LINE"
);
},
{
closed = 1;
nodes = (
"24 792 LINE",
"58 768 LINE",
"154 852 LINE",
"108 900 LINE"
);
}
);
width = 178;
}
);
unicode = 00CD;
},
{
color = 0;
glyphname = Ibreve;
lastChange = "2013-12-03 23:01:42 -0500";
layers = (
{
layerId = UUID0;
name = Regular;
paths = (
{
closed = 1;
nodes = (
"133 710 LINE",
"32 710 LINE",
"32 664 LINE",
"50 616 LINE",
"50 0 LINE",
"124 0 LINE"
);
},
{
closed = 1;
nodes = (
"-18 894 LINE",
"-14 813 LINE",
"31 785 LINE",
"156 785 LINE",
"195 824 LINE",
"195 900 LINE",
"149 896 LINE",
"152 830 LINE",
"42 835 LINE",
"30 846 LINE",
"35 894 LINE"
);
}
);
width = 178;
}
);
unicode = 012C;
},
{
color = 0;
glyphname = Icircumflex;
lastChange = "2013-12-03 23:01:42 -0500";
layers = (
{
layerId = UUID0;
name = Regular;
paths = (
{
closed = 1;
nodes = (
"133 710 LINE",
"32 710 LINE",
"32 664 LINE",
"50 616 LINE",
"50 0 LINE",
"124 0 LINE"
);
},
{
closed = 1;
nodes = (
"-5 786 LINE",
"24 767 LINE",
"89 829 LINE",
"154 767 LINE",
"183 786 LINE",
"109 896 LINE",
"69 899 LINE"
);
}
);
width = 178;
}
);
unicode = 00CE;
},
{
color = 0;
glyphname = Idieresis;
lastChange = "2013-12-03 23:01:42 -0500";
layers = (
{
layerId = UUID0;
name = Regular;
paths = (
{
closed = 1;
nodes = (
"133 710 LINE",
"32 710 LINE",
"32 664 LINE",
"50 616 LINE",
"50 0 LINE",
"124 0 LINE"
);
},
{
closed = 1;
nodes = (
"-25 817 LINE",
"54 817 LINE",
"58 900 LINE",
"-25 897 LINE"
);
},
{
closed = 1;
nodes = (
"128 817 LINE",
"204 820 LINE",
"204 900 LINE",
"125 900 LINE"
);
}
);
width = 178;
}
);
unicode = 00CF;
},
{
color = 0;
glyphname = Idotaccent;
lastChange = "2013-12-03 23:01:42 -0500";
layers = (
{
layerId = UUID0;
name = Regular;
paths = (
{
closed = 1;
nodes = (
"133 710 LINE",
"32 710 LINE",
"32 664 LINE",
"50 616 LINE",
"50 0 LINE",
"124 0 LINE"
);
},
{
closed = 1;
nodes = (
"49 802 LINE",
"138 805 LINE",
"138 900 LINE",
"45 900 LINE"
);
}
);
width = 178;
}
);
unicode = 0130;
},
{
color = 0;
glyphname = Idotbelow;
lastChange = "2013-12-03 23:01:42 -0500";
layers = (
{
layerId = UUID0;
name = Regular;
paths = (
{
closed = 1;
nodes = (
"133 710 LINE",
"32 710 LINE",
"32 664 LINE",
"50 616 LINE",
"50 0 LINE",
"124 0 LINE"
);
},
{
closed = 1;
nodes = (
"44 -154 LINE",
"133 -151 LINE",
"133 -56 LINE",
"40 -56 LINE"
);
}
);
width = 178;
}
);
unicode = 1ECA;
},
{
color = 0;
glyphname = Igrave;
lastChange = "2013-12-03 23:01:42 -0500";
layers = (
{
layerId = UUID0;
name = Regular;
paths = (
{
closed = 1;
nodes = (
"133 710 LINE",
"32 710 LINE",
"32 664 LINE",
"50 616 LINE",
"50 0 LINE",
"124 0 LINE"
);
},
{
closed = 1;
nodes = (
"60 900 LINE",
"14 852 LINE",
"110 768 LINE",
"144 792 LINE"
);
}
);
width = 178;
}
);
unicode = 00CC;
},
{
color = 0;
glyphname = Imacron;
lastChange = "2013-12-03 23:01:42 -0500";
layers = (
{
layerId = UUID0;
name = Regular;
paths = (
{
closed = 1;
nodes = (
"133 710 LINE",
"32 710 LINE",
"32 664 LINE",
"50 616 LINE",
"50 0 LINE",
"124 0 LINE"
);
},
{
closed = 1;
nodes = (
"-49 891 LINE",
"-46 827 LINE",
"219 836 LINE",
"219 891 LINE"
);
}
);
width = 178;
}
);
unicode = 012A;
},
{
color = 0;
glyphname = Iogonek;
lastChange = "2013-12-03 23:01:42 -0500";
layers = (
{
layerId = UUID0;
name = Regular;
paths = (
{
closed = 1;
nodes = (
"133 710 LINE",
"32 710 LINE",
"32 664 LINE",
"50 616 LINE",
"50 0 LINE",
"83 0 LINE",
"35 -95 LINE",
"123 -209 LINE",
"236 -146 LINE",
"220 -100 LINE",
"131 -145 LINE",
"97 -83 LINE",
"123 0 LINE",
"124 0 LINE"
);
}
);
width = 178;
}
);
unicode = 012E;
},
{
color = 0;
glyphname = Itilde;
lastChange = "2013-12-03 23:01:42 -0500";
layers = (
{
layerId = UUID0;
name = Regular;
paths = (
{
closed = 1;
nodes = (
"133 710 LINE",
"32 710 LINE",
"32 664 LINE",
"50 616 LINE",
"50 0 LINE",
"124 0 LINE"
);
},
{
closed = 1;
nodes = (
"24 897 OFFCURVE",
"12 892 OFFCURVE",
"1 883 CURVE SMOOTH",
"-25 860 LINE",
"-22 791 LINE",
"46 844 LINE",
"90 813 LINE SMOOTH",
"107 801 OFFCURVE",
"120 794 OFFCURVE",
"135 794 CURVE SMOOTH",
"147 794 OFFCURVE",
"166 805 OFFCURVE",
"179 817 CURVE SMOOTH",
"203 840 LINE",
"203 900 LINE",
"131 852 LINE",
"93 877 LINE SMOOTH",
"77 888 OFFCURVE",
"58 897 OFFCURVE",
"39 897 CURVE SMOOTH"
);
}
);
width = 178;
}
);
unicode = 0128;
},
{
color = 0;
glyphname = J;
lastChange = "2013-12-03 23:01:42 -0500";
layers = (
{
anchors = (
{
name = top;
position = "{151, 710}";
}
);
layerId = UUID0;
name = Regular;
paths = (
{
closed = 1;
nodes = (
"251 710 LINE",
"155 710 LINE",
"155 664 LINE",
"173 616 LINE",
"173 49 LINE",
"109 54 LINE",
"104 192 LINE",
"25 172 LINE",
"61 0 LINE",
"242 0 LINE"
);
}
);
width = 301;
}
);
unicode = 004A;
},
{
color = 0;
glyphname = Jcircumflex;
lastChange = "2013-12-03 23:01:42 -0500";
layers = (
{
layerId = UUID0;
name = Regular;
paths = (
{
closed = 1;
nodes = (
"251 710 LINE",
"155 710 LINE",
"155 664 LINE",
"173 616 LINE",
"173 49 LINE",
"109 54 LINE",
"104 192 LINE",
"25 172 LINE",
"61 0 LINE",
"242 0 LINE"
);
},
{
closed = 1;
nodes = (
"110 787 LINE",
"139 768 LINE",
"204 830 LINE",
"269 768 LINE",
"298 787 LINE",
"224 897 LINE",
"184 900 LINE"
);
}
);
width = 301;
}
);
unicode = 0134;
},
{
color = 0;
glyphname = K;
lastChange = "2013-12-03 23:01:42 -0500";
layers = (
{
anchors = (
{
name = bottom;
position = "{156, 0}";
},
{
name = top;
position = "{156, 710}";
}
);
layerId = UUID0;
name = Regular;
paths = (
{
closed = 1;
nodes = (
"266 314 LINE",
"197 354 LINE",
"245 386 LINE",
"287 710 LINE",
"201 710 LINE",
"191 411 LINE",
"146 375 LINE",
"120 390 LINE",
"120 690 LINE",
"42 690 LINE",
"65 -20 LINE",
"132 -20 LINE",
"132 306 LINE",
"143 314 LINE",
"197 264 LINE",
"197 -20 LINE",
"277 -20 LINE"
);
}
);
width = 311;
}
);
unicode = 004B;
},
{
color = 0;
glyphname = Kcommaaccent;
lastChange = "2013-12-03 23:01:42 -0500";
layers = (
{
layerId = UUID0;
name = Regular;
paths = (
{
closed = 1;
nodes = (
"266 314 LINE",
"197 354 LINE",
"245 386 LINE",
"287 710 LINE",
"201 710 LINE",
"191 411 LINE",
"146 375 LINE",
"120 390 LINE",
"120 690 LINE",
"42 690 LINE",
"65 -20 LINE",
"132 -20 LINE",
"132 306 LINE",
"143 314 LINE",
"197 264 LINE",
"197 -20 LINE",
"277 -20 LINE"
);
},
{
closed = 1;
nodes = (
"126 -160 LINE",
"168 -160 LINE",
"122 -234 LINE",
"177 -250 LINE",
"210 -160 LINE",
"207 -78 LINE",
"126 -78 LINE"
);
}
);
width = 311;
}
);
unicode = 0136;
},
{
color = 0;
glyphname = L;
lastChange = "2013-12-03 23:01:42 -0500";
layers = (
{
anchors = (
{
name = bottom;
position = "{132, 0}";
},
{
name = top;
position = "{132, 710}";
}
);
layerId = UUID0;
name = Regular;
paths = (
{
closed = 1;
nodes = (
"239 64 LINE",
"126 82 LINE",
"147 710 LINE",
"50 710 LINE",
"50 0 LINE",
"239 0 LINE"
);
}
);
width = 264;
}
);
unicode = 004C;
},
{
color = 0;
glyphname = LJ;
lastChange = "2013-12-03 23:01:42 -0500";
layers = (
{
layerId = UUID0;
name = Regular;
paths = (
{
closed = 1;
nodes = (
"239 64 LINE",
"126 82 LINE",
"147 710 LINE",
"50 710 LINE",
"50 0 LINE",
"239 0 LINE"
);
},
{
closed = 1;
nodes = (
"515 710 LINE",
"419 710 LINE",
"419 664 LINE",
"437 616 LINE",
"437 49 LINE",
"373 54 LINE",
"368 192 LINE",
"289 172 LINE",
"325 0 LINE",
"506 0 LINE"
);
}
);
width = 565;
}
);
unicode = 01C7;
},
{
color = 0;
glyphname = Lacute;
lastChange = "2013-12-03 23:01:42 -0500";
layers = (
{
layerId = UUID0;
name = Regular;
paths = (
{
closed = 1;
nodes = (
"239 0 LINE",
"50 0 LINE",
"50 710 LINE",
"147 710 LINE",
"126 82 LINE",
"239 64 LINE"
);
},
{
closed = 1;
nodes = (
"65 792 LINE",
"99 768 LINE",
"195 852 LINE",
"149 900 LINE"
);
}
);
width = 264;
}
);
unicode = 0139;
},
{
color = 0;
glyphname = Lcaron;
lastChange = "2013-12-03 23:01:42 -0500";
layers = (
{
layerId = UUID0;
name = Regular;
paths = (
{
closed = 1;
nodes = (
"239 0 LINE",
"50 0 LINE",
"50 710 LINE",
"147 710 LINE",
"126 82 LINE",
"239 64 LINE"
);
},
{
closed = 1;
nodes = (
"219 663 LINE",
"168 588 LINE",
"211 573 LINE",
"279 663 LINE",
"273 759 LINE",
"187 755 LINE"
);
}
);
width = 264;
}
);
unicode = 013D;
},
{
color = 0;
glyphname = Lcommaaccent;
lastChange = "2013-12-03 23:01:42 -0500";
layers = (
{
layerId = UUID0;
name = Regular;
paths = (
{
closed = 1;
nodes = (
"239 64 LINE",
"126 82 LINE",
"147 710 LINE",
"50 710 LINE",
"50 0 LINE",
"239 0 LINE"
);
},
{
closed = 1;
nodes = (
"92 -160 LINE",
"134 -160 LINE",
"88 -234 LINE",
"143 -250 LINE",
"176 -160 LINE",
"173 -78 LINE",
"92 -78 LINE"
);
}
);
width = 264;
}
);
unicode = 013B;
},
{
color = 0;
glyphname = Ldot;
lastChange = "2013-12-03 23:01:42 -0500";
layers = (
{
layerId = UUID0;
name = Regular;
paths = (
{
closed = 1;
nodes = (
"239 64 LINE",
"126 82 LINE",
"147 710 LINE",
"50 710 LINE",
"50 0 LINE",
"239 0 LINE"
);
},
{
closed = 1;
nodes = (
"168 324 LINE",
"260 324 LINE",
"264 420 LINE",
"168 416 LINE"
);
}
);
width = 264;
}
);
unicode = 013F;
},
{
color = 0;
glyphname = Lslash;
lastChange = "2013-12-03 23:01:42 -0500";
layers = (
{
layerId = UUID0;
name = Regular;
paths = (
{
closed = 1;
nodes = (
"239 64 LINE",
"126 82 LINE",
"135 353 LINE",
"243 418 LINE",
"218 464 LINE",
"137 418 LINE",
"147 710 LINE",
"50 710 LINE",
"50 369 LINE",
"-23 328 LINE",
"3 274 LINE",
"50 302 LINE",
"50 0 LINE",
"239 0 LINE"
);
}
);
width = 264;
}
);
unicode = 0141;
},
{
color = 0;
glyphname = M;
lastChange = "2013-12-03 23:01:42 -0500";
layers = (
{
layerId = UUID0;
name = Regular;
paths = (
{
closed = 1;
nodes = (
"82 -20 LINE",
"82 610 LINE",
"86 610 LINE",
"157 181 LINE",
"187 181 LINE",
"274 661 LINE",
"278 661 LINE",
"256 0 LINE",
"322 0 LINE",
"322 730 LINE",
"225 730 LINE",
"178 332 LINE",
"172 332 LINE",
"120 710 LINE",
"30 710 LINE",
"30 -20 LINE"
);
}
);
width = 352;
}
);
unicode = 004D;
},
{
color = 0;
glyphname = N;
lastChange = "2013-12-03 23:01:42 -0500";
layers = (
{
anchors = (
{
name = bottom;
position = "{172, 0}";
},
{
name = top;
position = "{172, 710}";
}
);
layerId = UUID0;
name = Regular;
paths = (
{
closed = 1;
nodes = (
"320 710 LINE",
"262 710 LINE",
"240 58 LINE",
"236 58 LINE",
"146 710 LINE",
"30 710 LINE",
"30 0 LINE",
"89 0 LINE",
"89 651 LINE",
"93 651 LINE",
"195 0 LINE",
"310 0 LINE"
);
}
);
width = 344;
}
);
unicode = 004E;
},
{
color = 0;
glyphname = NJ;
lastChange = "2013-12-03 23:01:42 -0500";
layers = (
{
layerId = UUID0;
name = Regular;
paths = (
{
closed = 1;
nodes = (
"320 710 LINE",
"262 710 LINE",
"240 58 LINE",
"236 58 LINE",
"146 710 LINE",
"30 710 LINE",
"30 0 LINE",
"89 0 LINE",
"89 651 LINE",
"93 651 LINE",
"195 0 LINE",
"310 0 LINE"
);
},
{
closed = 1;
nodes = (
"595 710 LINE",
"499 710 LINE",
"499 664 LINE",
"517 616 LINE",
"517 49 LINE",
"453 54 LINE",
"448 192 LINE",
"369 172 LINE",
"405 0 LINE",
"586 0 LINE"
);
}
);
width = 645;
}
);
unicode = 01CA;
},
{
color = 0;
glyphname = Nacute;
lastChange = "2013-12-03 23:01:42 -0500";
layers = (
{
layerId = UUID0;
name = Regular;
paths = (
{
closed = 1;
nodes = (
"310 0 LINE",
"195 0 LINE",
"93 651 LINE",
"89 651 LINE",
"89 0 LINE",
"30 0 LINE",
"30 710 LINE",
"146 710 LINE",
"236 58 LINE",
"240 58 LINE",
"262 710 LINE",
"320 710 LINE"
);
},
{
closed = 1;
nodes = (
"128 792 LINE",
"162 768 LINE",
"258 852 LINE",
"212 900 LINE"
);
}
);
width = 344;
}
);
unicode = 0143;
},
{
color = 0;
glyphname = Ncaron;
lastChange = "2013-12-03 23:01:42 -0500";
layers = (
{
layerId = UUID0;
name = Regular;
paths = (
{
closed = 1;
nodes = (
"320 710 LINE",
"262 710 LINE",
"240 58 LINE",
"236 58 LINE",
"146 710 LINE",
"30 710 LINE",
"30 0 LINE",
"89 0 LINE",
"89 651 LINE",
"93 651 LINE",
"195 0 LINE",
"310 0 LINE"
);
},
{
closed = 1;
nodes = (
"278 881 LINE",
"249 900 LINE",
"184 838 LINE",
"119 900 LINE",
"90 881 LINE",
"164 771 LINE",
"204 768 LINE"
);
}
);
width = 344;
}
);
unicode = 0147;
},
{
color = 0;
glyphname = Ncommaaccent;
lastChange = "2013-12-03 23:01:42 -0500";
layers = (
{
layerId = UUID0;
name = Regular;
paths = (
{
closed = 1;
nodes = (
"320 710 LINE",
"262 710 LINE",
"240 58 LINE",
"236 58 LINE",
"146 710 LINE",
"30 710 LINE",
"30 0 LINE",
"89 0 LINE",
"89 651 LINE",
"93 651 LINE",
"195 0 LINE",
"310 0 LINE"
);
},
{
closed = 1;
nodes = (
"132 -160 LINE",
"174 -160 LINE",
"128 -234 LINE",
"183 -250 LINE",
"216 -160 LINE",
"213 -78 LINE",
"132 -78 LINE"
);
}
);
width = 344;
}
);
unicode = 0145;
},
{
color = 0;
glyphname = Ndotaccent;
lastChange = "2013-12-03 23:01:42 -0500";
layers = (
{
layerId = UUID0;
name = Regular;
paths = (
{
closed = 1;
nodes = (
"310 0 LINE",
"195 0 LINE",
"93 651 LINE",
"89 651 LINE",
"89 0 LINE",
"30 0 LINE",
"30 710 LINE",
"146 710 LINE",
"236 58 LINE",
"240 58 LINE",
"262 710 LINE",
"320 710 LINE"
);
},
{
closed = 1;
nodes = (
"144 802 LINE",
"233 805 LINE",
"233 900 LINE",
"140 900 LINE"
);
}
);
width = 344;
}
);
unicode = 1E44;
},
{
color = 0;
glyphname = Eng;
lastChange = "2013-12-03 23:01:42 -0500";
layers = (
{
layerId = UUID0;
name = Regular;
paths = (
{
closed = 1;
nodes = (
"330 710 LINE",
"244 710 LINE",
"244 664 LINE",
"262 616 LINE",
"262 313 LINE",
"258 313 LINE",
"146 710 LINE",
"30 710 LINE",
"30 0 LINE",
"89 0 LINE",
"89 651 LINE",
"93 651 LINE",
"262 158 LINE",
"262 19 LINE",
"218 24 LINE",
"213 112 LINE",
"144 92 LINE",
"170 -30 LINE",
"321 -30 LINE"
);
}
);
width = 355;
}
);
unicode = 014A;
},
{
color = 0;
glyphname = Ntilde;
lastChange = "2013-12-03 23:01:42 -0500";
layers = (
{
layerId = UUID0;
name = Regular;
paths = (
{
closed = 1;
nodes = (
"310 0 LINE",
"195 0 LINE",
"93 651 LINE",
"89 651 LINE",
"89 0 LINE",
"30 0 LINE",
"30 710 LINE",
"146 710 LINE",
"236 58 LINE",
"240 58 LINE",
"262 710 LINE",
"320 710 LINE"
);
},
{
closed = 1;
nodes = (
"125 897 OFFCURVE",
"113 892 OFFCURVE",
"102 883 CURVE SMOOTH",
"76 860 LINE",
"79 791 LINE",
"147 844 LINE",
"191 813 LINE SMOOTH",
"208 801 OFFCURVE",
"221 794 OFFCURVE",
"236 794 CURVE SMOOTH",
"248 794 OFFCURVE",
"267 805 OFFCURVE",
"280 817 CURVE SMOOTH",
"304 840 LINE",
"304 900 LINE",
"232 852 LINE",
"194 877 LINE SMOOTH",
"178 888 OFFCURVE",
"159 897 OFFCURVE",
"140 897 CURVE SMOOTH"
);
}
);
width = 344;
}
);
unicode = 00D1;
},
{
color = 0;
glyphname = O;
lastChange = "2013-12-03 23:01:42 -0500";
layers = (
{
anchors = (
{
name = top;
position = "{159, 710}";
}
);
layerId = UUID0;
name = Regular;
paths = (
{
closed = 1;
nodes = (
"50 678 LINE",
"50 42 LINE",
"109 0 LINE",
"205 0 LINE",
"268 36 LINE",
"268 682 LINE",
"228 710 LINE",
"93 710 LINE"
);
},
{
closed = 1;
nodes = (
"191 76 LINE SMOOTH",
"191 72 OFFCURVE",
"188 70 OFFCURVE",
"182 70 CURVE SMOOTH",
"140 70 LINE SMOOTH",
"134 70 OFFCURVE",
"131 72 OFFCURVE",
"131 76 CURVE SMOOTH",
"131 649 LINE SMOOTH",
"131 655 OFFCURVE",
"134 658 OFFCURVE",
"140 658 CURVE SMOOTH",
"192 658 LINE SMOOTH",
"198 658 OFFCURVE",
"201 655 OFFCURVE",
"201 649 CURVE SMOOTH"
);
}
);
width = 318;
}
);
unicode = 004F;
},
{
color = 0;
glyphname = Oacute;
lastChange = "2013-12-03 23:01:42 -0500";
layers = (
{
layerId = UUID0;
name = Regular;
paths = (
{
closed = 1;
nodes = (
"50 678 LINE",
"50 42 LINE",
"109 0 LINE",
"205 0 LINE",
"268 36 LINE",
"268 682 LINE",
"228 710 LINE",
"93 710 LINE"
);
},
{
closed = 1;
nodes = (
"191 76 LINE SMOOTH",
"191 72 OFFCURVE",
"188 70 OFFCURVE",
"182 70 CURVE SMOOTH",
"140 70 LINE SMOOTH",
"134 70 OFFCURVE",
"131 72 OFFCURVE",
"131 76 CURVE SMOOTH",
"131 649 LINE SMOOTH",
"131 655 OFFCURVE",
"134 658 OFFCURVE",
"140 658 CURVE SMOOTH",
"192 658 LINE SMOOTH",
"198 658 OFFCURVE",
"201 655 OFFCURVE",
"201 649 CURVE SMOOTH"
);
},
{
closed = 1;
nodes = (
"114 792 LINE",
"148 768 LINE",
"244 852 LINE",
"198 900 LINE"
);
}
);
width = 318;
}
);
unicode = 00D3;
},
{
color = 0;
glyphname = Obreve;
lastChange = "2013-12-19 19:02:16 -0500";
layers = (
{
layerId = UUID0;
name = Regular;
paths = (
{
closed = 1;
nodes = (
"50 678 LINE",
"50 42 LINE",
"109 0 LINE",
"205 0 LINE",
"268 36 LINE",
"268 682 LINE",
"228 710 LINE",
"93 710 LINE"
);
},
{
closed = 1;
nodes = (
"191 76 LINE SMOOTH",
"191 72 OFFCURVE",
"188 70 OFFCURVE",
"182 70 CURVE SMOOTH",
"140 70 LINE SMOOTH",
"134 70 OFFCURVE",
"131 72 OFFCURVE",
"131 76 CURVE SMOOTH",
"131 649 LINE SMOOTH",
"131 655 OFFCURVE",
"134 658 OFFCURVE",
"140 658 CURVE SMOOTH",
"192 658 LINE SMOOTH",
"198 658 OFFCURVE",
"201 655 OFFCURVE",
"201 649 CURVE SMOOTH"
);
},
{
closed = 1;
nodes = (
"59 894 LINE",
"63 813 LINE",
"108 785 LINE",
"233 785 LINE",
"272 824 LINE",
"272 900 LINE",
"226 896 LINE",
"229 830 LINE",
"119 835 LINE",
"107 846 LINE",
"112 894 LINE"
);
}
);
width = 318;
}
);
unicode = 014E;
},
{
color = 0;
glyphname = Ocircumflex;
lastChange = "2013-12-03 23:01:42 -0500";
layers = (
{
layerId = UUID0;
name = Regular;
paths = (
{
closed = 1;
nodes = (
"50 678 LINE",
"50 42 LINE",
"109 0 LINE",
"205 0 LINE",
"268 36 LINE",
"268 682 LINE",
"228 710 LINE",
"93 710 LINE"
);
},
{
closed = 1;
nodes = (
"191 76 LINE SMOOTH",
"191 72 OFFCURVE",
"188 70 OFFCURVE",
"182 70 CURVE SMOOTH",
"140 70 LINE SMOOTH",
"134 70 OFFCURVE",
"131 72 OFFCURVE",
"131 76 CURVE SMOOTH",
"131 649 LINE SMOOTH",
"131 655 OFFCURVE",
"134 658 OFFCURVE",
"140 658 CURVE SMOOTH",
"192 658 LINE SMOOTH",
"198 658 OFFCURVE",
"201 655 OFFCURVE",
"201 649 CURVE SMOOTH"
);
},
{
closed = 1;
nodes = (
"75 786 LINE",
"104 767 LINE",
"169 829 LINE",
"234 767 LINE",
"263 786 LINE",
"189 896 LINE",
"149 899 LINE"
);
}
);
width = 318;
}
);
unicode = 00D4;
},
{
color = 0;
glyphname = Odieresis;
lastChange = "2013-12-03 23:01:42 -0500";
layers = (
{
layerId = UUID0;
name = Regular;
paths = (
{
closed = 1;
nodes = (
"50 678 LINE",
"50 42 LINE",
"109 0 LINE",
"205 0 LINE",
"268 36 LINE",
"268 682 LINE",
"228 710 LINE",
"93 710 LINE"
);
},
{
closed = 1;
nodes = (
"191 76 LINE SMOOTH",
"191 72 OFFCURVE",
"188 70 OFFCURVE",
"182 70 CURVE SMOOTH",
"140 70 LINE SMOOTH",
"134 70 OFFCURVE",
"131 72 OFFCURVE",
"131 76 CURVE SMOOTH",
"131 649 LINE SMOOTH",
"131 655 OFFCURVE",
"134 658 OFFCURVE",
"140 658 CURVE SMOOTH",
"192 658 LINE SMOOTH",
"198 658 OFFCURVE",
"201 655 OFFCURVE",
"201 649 CURVE SMOOTH"
);
},
{
closed = 1;
nodes = (
"44 817 LINE",
"123 817 LINE",
"127 900 LINE",
"44 897 LINE"
);
},
{
closed = 1;
nodes = (
"197 817 LINE",
"273 820 LINE",
"273 900 LINE",
"194 900 LINE"
);
}
);
width = 318;
}
);
unicode = 00D6;
},
{
color = 0;
glyphname = Odotbelow;
lastChange = "2013-12-03 23:01:42 -0500";
layers = (
{
layerId = UUID0;
name = Regular;
paths = (
{
closed = 1;
nodes = (
"50 678 LINE",
"50 42 LINE",
"109 0 LINE",
"205 0 LINE",
"268 36 LINE",
"268 682 LINE",
"228 710 LINE",
"93 710 LINE"
);
},
{
closed = 1;
nodes = (
"191 76 LINE SMOOTH",
"191 72 OFFCURVE",
"188 70 OFFCURVE",
"182 70 CURVE SMOOTH",
"140 70 LINE SMOOTH",
"134 70 OFFCURVE",
"131 72 OFFCURVE",
"131 76 CURVE SMOOTH",
"131 649 LINE SMOOTH",
"131 655 OFFCURVE",
"134 658 OFFCURVE",
"140 658 CURVE SMOOTH",
"192 658 LINE SMOOTH",
"198 658 OFFCURVE",
"201 655 OFFCURVE",
"201 649 CURVE SMOOTH"
);
},
{
closed = 1;
nodes = (
"112 -154 LINE",
"201 -151 LINE",
"201 -56 LINE",
"108 -56 LINE"
);
}
);
width = 318;
}
);
unicode = 1ECC;
},
{
color = 0;
glyphname = Ograve;
lastChange = "2013-12-03 23:01:42 -0500";
layers = (
{
layerId = UUID0;
name = Regular;
paths = (
{
closed = 1;
nodes = (
"50 678 LINE",
"50 42 LINE",
"109 0 LINE",
"205 0 LINE",
"268 36 LINE",
"268 682 LINE",
"228 710 LINE",
"93 710 LINE"
);
},
{
closed = 1;
nodes = (
"191 76 LINE SMOOTH",
"191 72 OFFCURVE",
"188 70 OFFCURVE",
"182 70 CURVE SMOOTH",
"140 70 LINE SMOOTH",
"134 70 OFFCURVE",
"131 72 OFFCURVE",
"131 76 CURVE SMOOTH",
"131 649 LINE SMOOTH",
"131 655 OFFCURVE",
"134 658 OFFCURVE",
"140 658 CURVE SMOOTH",
"192 658 LINE SMOOTH",
"198 658 OFFCURVE",
"201 655 OFFCURVE",
"201 649 CURVE SMOOTH"
);
},
{
closed = 1;
nodes = (
"140 900 LINE",
"94 852 LINE",
"190 768 LINE",
"224 792 LINE"
);
}
);
width = 318;
}
);
unicode = 00D2;
},
{
color = 0;
glyphname = Ohungarumlaut;
lastChange = "2013-12-03 23:01:42 -0500";
layers = (
{
layerId = UUID0;
name = Regular;
paths = (
{
closed = 1;
nodes = (
"50 678 LINE",
"50 42 LINE",
"109 0 LINE",
"205 0 LINE",
"268 36 LINE",
"268 682 LINE",
"228 710 LINE",
"93 710 LINE"
);
},
{
closed = 1;
nodes = (
"191 76 LINE SMOOTH",
"191 72 OFFCURVE",
"188 70 OFFCURVE",
"182 70 CURVE SMOOTH",
"140 70 LINE SMOOTH",
"134 70 OFFCURVE",
"131 72 OFFCURVE",
"131 76 CURVE SMOOTH",
"131 649 LINE SMOOTH",
"131 655 OFFCURVE",
"134 658 OFFCURVE",
"140 658 CURVE SMOOTH",
"192 658 LINE SMOOTH",
"198 658 OFFCURVE",
"201 655 OFFCURVE",
"201 649 CURVE SMOOTH"
);
},
{
closed = 1;
nodes = (
"60 792 LINE",
"94 768 LINE",
"190 852 LINE",
"144 900 LINE"
);
},
{
closed = 1;
nodes = (
"190 792 LINE",
"224 768 LINE",
"320 852 LINE",
"274 900 LINE"
);
}
);
width = 318;
}
);
unicode = 0150;
},
{
color = 0;
glyphname = Omacron;
lastChange = "2013-12-03 23:01:42 -0500";
layers = (
{
layerId = UUID0;
name = Regular;
paths = (
{
closed = 1;
nodes = (
"50 678 LINE",
"50 42 LINE",
"109 0 LINE",
"205 0 LINE",
"268 36 LINE",
"268 682 LINE",
"228 710 LINE",
"93 710 LINE"
);
},
{
closed = 1;
nodes = (
"191 76 LINE SMOOTH",
"191 72 OFFCURVE",
"188 70 OFFCURVE",
"182 70 CURVE SMOOTH",
"140 70 LINE SMOOTH",
"134 70 OFFCURVE",
"131 72 OFFCURVE",
"131 76 CURVE SMOOTH",
"131 649 LINE SMOOTH",
"131 655 OFFCURVE",
"134 658 OFFCURVE",
"140 658 CURVE SMOOTH",
"192 658 LINE SMOOTH",
"198 658 OFFCURVE",
"201 655 OFFCURVE",
"201 649 CURVE SMOOTH"
);
},
{
closed = 1;
nodes = (
"30 891 LINE",
"33 827 LINE",
"298 836 LINE",
"298 891 LINE"
);
}
);
width = 318;
}
);
unicode = 014C;
},
{
color = 0;
glyphname = Oogonek;
lastChange = "2013-12-03 23:01:42 -0500";
layers = (
{
layerId = UUID0;
name = Regular;
paths = (
{
closed = 1;
nodes = (
"50 678 LINE",
"50 42 LINE",
"109 0 LINE",
"118 0 LINE",
"70 -95 LINE",
"158 -209 LINE",
"271 -146 LINE",
"255 -100 LINE",
"166 -145 LINE",
"132 -83 LINE",
"158 0 LINE",
"205 0 LINE",
"268 36 LINE",
"268 682 LINE",
"228 710 LINE",
"93 710 LINE"
);
},
{
closed = 1;
nodes = (
"191 76 LINE SMOOTH",
"191 72 OFFCURVE",
"188 70 OFFCURVE",
"182 70 CURVE SMOOTH",
"140 70 LINE SMOOTH",
"134 70 OFFCURVE",
"131 72 OFFCURVE",
"131 76 CURVE SMOOTH",
"131 649 LINE SMOOTH",
"131 655 OFFCURVE",
"134 658 OFFCURVE",
"140 658 CURVE SMOOTH",
"192 658 LINE SMOOTH",
"198 658 OFFCURVE",
"201 655 OFFCURVE",
"201 649 CURVE SMOOTH"
);
}
);
width = 318;
}
);
unicode = 01EA;
},
{
color = 0;
glyphname = Oslash;
lastChange = "2013-12-03 23:01:42 -0500";
layers = (
{
anchors = (
{
name = top;
position = "{159, 710}";
}
);
layerId = UUID0;
name = Regular;
paths = (
{
closed = 1;
nodes = (
"50 710 LINE",
"50 31 LINE",
"22 -71 LINE",
"66 -88 LINE",
"89 0 LINE",
"268 0 LINE",
"268 673 LINE",
"295 775 LINE",
"258 788 LINE",
"235 706 LINE",
"225 709 OFFCURVE",
"208 710 OFFCURVE",
"184 710 CURVE SMOOTH"
);
},
{
closed = 1;
nodes = (
"111 649 LINE SMOOTH",
"111 655 OFFCURVE",
"114 658 OFFCURVE",
"120 658 CURVE SMOOTH",
"192 658 LINE SMOOTH",
"198 658 OFFCURVE",
"201 655 OFFCURVE",
"201 649 CURVE SMOOTH",
"199 575 LINE",
"111 253 LINE"
);
},
{
closed = 1;
nodes = (
"191 77 LINE SMOOTH",
"191 73 OFFCURVE",
"188 71 OFFCURVE",
"182 71 CURVE SMOOTH",
"120 71 LINE SMOOTH",
"114 71 OFFCURVE",
"111 73 OFFCURVE",
"111 77 CURVE SMOOTH",
"111 81 LINE",
"196 404 LINE"
);
}
);
width = 318;
}
);
unicode = 00D8;
},
{
color = 0;
glyphname = Oslashacute;
lastChange = "2013-12-03 23:01:42 -0500";
layers = (
{
layerId = UUID0;
name = Regular;
paths = (
{
closed = 1;
nodes = (
"50 710 LINE",
"50 31 LINE",
"22 -71 LINE",
"66 -88 LINE",
"89 0 LINE",
"268 0 LINE",
"268 673 LINE",
"295 775 LINE",
"258 788 LINE",
"235 706 LINE",
"225 709 OFFCURVE",
"208 710 OFFCURVE",
"184 710 CURVE SMOOTH"
);
},
{
closed = 1;
nodes = (
"111 649 LINE SMOOTH",
"111 655 OFFCURVE",
"114 658 OFFCURVE",
"120 658 CURVE SMOOTH",
"192 658 LINE SMOOTH",
"198 658 OFFCURVE",
"201 655 OFFCURVE",
"201 649 CURVE SMOOTH",
"199 575 LINE",
"111 253 LINE"
);
},
{
closed = 1;
nodes = (
"191 77 LINE SMOOTH",
"191 73 OFFCURVE",
"188 71 OFFCURVE",
"182 71 CURVE SMOOTH",
"120 71 LINE SMOOTH",
"114 71 OFFCURVE",
"111 73 OFFCURVE",
"111 77 CURVE SMOOTH",
"111 81 LINE",
"196 404 LINE"
);
},
{
closed = 1;
nodes = (
"100 792 LINE",
"134 768 LINE",
"230 852 LINE",
"184 900 LINE"
);
}
);
width = 318;
}
);
unicode = 01FE;
},
{
color = 0;
glyphname = Otilde;
lastChange = "2013-12-03 23:01:42 -0500";
layers = (
{
layerId = UUID0;
name = Regular;
paths = (
{
closed = 1;
nodes = (
"50 678 LINE",
"50 42 LINE",
"109 0 LINE",
"205 0 LINE",
"268 36 LINE",
"268 682 LINE",
"228 710 LINE",
"93 710 LINE"
);
},
{
closed = 1;
nodes = (
"191 76 LINE SMOOTH",
"191 72 OFFCURVE",
"188 70 OFFCURVE",
"182 70 CURVE SMOOTH",
"140 70 LINE SMOOTH",
"134 70 OFFCURVE",
"131 72 OFFCURVE",
"131 76 CURVE SMOOTH",
"131 649 LINE SMOOTH",
"131 655 OFFCURVE",
"134 658 OFFCURVE",
"140 658 CURVE SMOOTH",
"192 658 LINE SMOOTH",
"198 658 OFFCURVE",
"201 655 OFFCURVE",
"201 649 CURVE SMOOTH"
);
},
{
closed = 1;
nodes = (
"104 896 OFFCURVE",
"92 891 OFFCURVE",
"81 882 CURVE SMOOTH",
"55 859 LINE",
"58 790 LINE",
"126 843 LINE",
"170 812 LINE SMOOTH",
"187 800 OFFCURVE",
"200 793 OFFCURVE",
"215 793 CURVE SMOOTH",
"227 793 OFFCURVE",
"246 804 OFFCURVE",
"259 816 CURVE SMOOTH",
"283 839 LINE",
"283 899 LINE",
"211 851 LINE",
"173 876 LINE SMOOTH",
"157 887 OFFCURVE",
"138 896 OFFCURVE",
"119 896 CURVE SMOOTH"
);
}
);
width = 318;
}
);
unicode = 00D5;
},
{
color = 0;
glyphname = OE;
lastChange = "2013-12-03 23:01:42 -0500";
layers = (
{
anchors = (
{
name = top;
position = "{231, 710}";
}
);
layerId = UUID0;
name = Regular;
paths = (
{
closed = 1;
nodes = (
"50 678 LINE",
"50 42 LINE",
"109 0 LINE",
"205 0 LINE",
"265 34 LINE",
"268 0 LINE",
"426 10 LINE",
"414 91 LINE",
"279 73 LINE",
"279 363 LINE",
"383 381 LINE",
"383 431 LINE",
"274 431 LINE",
"274 632 LINE",
"417 632 LINE",
"417 710 LINE",
"93 710 LINE"
);
},
{
closed = 1;
nodes = (
"191 76 LINE SMOOTH",
"191 72 OFFCURVE",
"188 70 OFFCURVE",
"182 70 CURVE SMOOTH",
"140 70 LINE SMOOTH",
"134 70 OFFCURVE",
"131 72 OFFCURVE",
"131 76 CURVE SMOOTH",
"131 649 LINE SMOOTH",
"131 655 OFFCURVE",
"134 658 OFFCURVE",
"140 658 CURVE SMOOTH",
"192 658 LINE SMOOTH",
"198 658 OFFCURVE",
"201 655 OFFCURVE",
"201 649 CURVE SMOOTH"
);
}
);
width = 461;
}
);
unicode = 0152;
},
{
color = 0;
glyphname = P;
lastChange = "2013-12-03 23:01:42 -0500";
layers = (
{
layerId = UUID0;
name = Regular;
paths = (
{
closed = 1;
nodes = (
"28 710 LINE",
"28 681 LINE",
"50 669 LINE",
"50 0 LINE",
"108 0 LINE",
"108 306 LINE",
"161 306 LINE SMOOTH",
"254 306 OFFCURVE",
"264 367 OFFCURVE",
"264 379 CURVE SMOOTH",
"264 661 LINE SMOOTH",
"264 688 OFFCURVE",
"225 710 OFFCURVE",
"174 710 CURVE SMOOTH"
);
},
{
closed = 1;
nodes = (
"122 658 LINE SMOOTH",
"122 663 OFFCURVE",
"126 665 OFFCURVE",
"134 665 CURVE SMOOTH",
"151 665 LINE SMOOTH",
"182 665 OFFCURVE",
"192 648 OFFCURVE",
"193 633 CURVE",
"183 381 LINE SMOOTH",
"183 377 OFFCURVE",
"181 375 OFFCURVE",
"177 375 CURVE",
"134 365 LINE",
"127 365 OFFCURVE",
"122 370 OFFCURVE",
"122 373 CURVE SMOOTH"
);
}
);
width = 304;
}
);
unicode = 0050;
},
{
color = 0;
glyphname = Thorn;
lastChange = "2013-12-03 23:01:42 -0500";
layers = (
{
layerId = UUID0;
name = Regular;
paths = (
{
closed = 1;
nodes = (
"111 530 LINE",
"101 710 LINE",
"50 710 LINE",
"50 0 LINE",
"108 0 LINE",
"108 186 LINE",
"161 186 LINE SMOOTH",
"254 186 OFFCURVE",
"264 247 OFFCURVE",
"264 259 CURVE SMOOTH",
"264 481 LINE SMOOTH",
"264 508 OFFCURVE",
"225 530 OFFCURVE",
"174 530 CURVE SMOOTH"
);
},
{
closed = 1;
nodes = (
"122 470 LINE SMOOTH",
"122 475 OFFCURVE",
"126 477 OFFCURVE",
"134 477 CURVE SMOOTH",
"151 477 LINE SMOOTH",
"182 477 OFFCURVE",
"192 460 OFFCURVE",
"193 445 CURVE",
"183 253 LINE SMOOTH",
"183 249 OFFCURVE",
"181 247 OFFCURVE",
"177 247 CURVE",
"134 237 LINE",
"127 237 OFFCURVE",
"122 242 OFFCURVE",
"122 245 CURVE SMOOTH"
);
}
);
width = 304;
}
);
unicode = 00DE;
},
{
color = 0;
glyphname = Q;
lastChange = "2013-12-03 23:01:42 -0500";
layers = (
{
layerId = UUID0;
name = Regular;
paths = (
{
closed = 1;
nodes = (
"50 664 LINE",
"50 30 LINE",
"163 30 LINE",
"207 -114 LINE",
"227 -131 LINE",
"277 -124 LINE",
"213 30 LINE",
"268 30 LINE",
"268 673 LINE",
"228 710 LINE",
"88 710 LINE"
);
},
{
closed = 1;
nodes = (
"201 106 LINE SMOOTH",
"201 103 OFFCURVE",
"192 100 OFFCURVE",
"185 100 CURVE",
"168 141 LINE",
"132 132 LINE",
"142 100 LINE",
"120 100 LINE SMOOTH",
"114 100 OFFCURVE",
"111 102 OFFCURVE",
"111 106 CURVE SMOOTH",
"121 639 LINE SMOOTH",
"121 645 OFFCURVE",
"124 648 OFFCURVE",
"130 648 CURVE SMOOTH",
"192 648 LINE SMOOTH",
"198 648 OFFCURVE",
"201 645 OFFCURVE",
"201 639 CURVE SMOOTH"
);
}
);
width = 318;
}
);
unicode = 0051;
},
{
color = 0;
glyphname = R;
lastChange = "2013-12-03 23:01:42 -0500";
layers = (
{
anchors = (
{
name = bottom;
position = "{160, 0}";
},
{
name = top;
position = "{160, 710}";
}
);
layerId = UUID0;
name = Regular;
paths = (
{
closed = 1;
nodes = (
"137 311 LINE",
"192 193 LINE",
"208 -3 LINE",
"281 0 LINE",
"260 206 LINE",
"201 316 LINE",
"257 332 OFFCURVE",
"264 374 OFFCURVE",
"264 384 CURVE SMOOTH",
"274 661 LINE",
"273 688 OFFCURVE",
"235 710 OFFCURVE",
"184 710 CURVE SMOOTH",
"28 710 LINE",
"28 681 LINE",
"50 669 LINE",
"50 0 LINE",
"108 0 LINE",
"108 311 LINE"
);
},
{
closed = 1;
nodes = (
"122 655 LINE SMOOTH",
"122 660 OFFCURVE",
"126 664 OFFCURVE",
"134 667 CURVE",
"195 667 OFFCURVE",
"199 648 OFFCURVE",
"199 634 CURVE SMOOTH",
"193 381 LINE SMOOTH",
"193 377 OFFCURVE",
"191 375 OFFCURVE",
"187 375 CURVE SMOOTH",
"134 375 LINE SMOOTH",
"127 375 OFFCURVE",
"122 380 OFFCURVE",
"122 383 CURVE SMOOTH"
);
}
);
width = 319;
}
);
unicode = 0052;
},
{
color = 0;
glyphname = Racute;
lastChange = "2013-12-03 23:01:42 -0500";
layers = (
{
layerId = UUID0;
name = Regular;
paths = (
{
closed = 1;
nodes = (
"137 311 LINE",
"192 193 LINE",
"208 -3 LINE",
"281 0 LINE",
"260 206 LINE",
"201 316 LINE",
"257 332 OFFCURVE",
"264 374 OFFCURVE",
"264 384 CURVE SMOOTH",
"274 661 LINE",
"273 688 OFFCURVE",
"235 710 OFFCURVE",
"184 710 CURVE SMOOTH",
"28 710 LINE",
"28 681 LINE",
"50 669 LINE",
"50 0 LINE",
"108 0 LINE",
"108 311 LINE"
);
},
{
closed = 1;
nodes = (
"122 655 LINE SMOOTH",
"122 660 OFFCURVE",
"126 664 OFFCURVE",
"134 667 CURVE",
"195 667 OFFCURVE",
"199 648 OFFCURVE",
"199 634 CURVE SMOOTH",
"193 381 LINE SMOOTH",
"193 377 OFFCURVE",
"191 375 OFFCURVE",
"187 375 CURVE SMOOTH",
"134 375 LINE SMOOTH",
"127 375 OFFCURVE",
"122 380 OFFCURVE",
"122 383 CURVE SMOOTH"
);
},
{
closed = 1;
nodes = (
"104 791 LINE",
"138 767 LINE",
"234 851 LINE",
"188 899 LINE"
);
}
);
width = 319;
}
);
unicode = 0154;
},
{
color = 0;
glyphname = Rcaron;
lastChange = "2013-12-03 23:01:42 -0500";
layers = (
{
layerId = UUID0;
name = Regular;
paths = (
{
closed = 1;
nodes = (
"137 311 LINE",
"192 193 LINE",
"208 -3 LINE",
"281 0 LINE",
"260 206 LINE",
"201 316 LINE",
"257 332 OFFCURVE",
"264 374 OFFCURVE",
"264 384 CURVE SMOOTH",
"274 661 LINE",
"273 688 OFFCURVE",
"235 710 OFFCURVE",
"184 710 CURVE SMOOTH",
"28 710 LINE",
"28 681 LINE",
"50 669 LINE",
"50 0 LINE",
"108 0 LINE",
"108 311 LINE"
);
},
{
closed = 1;
nodes = (
"122 655 LINE SMOOTH",
"122 660 OFFCURVE",
"126 664 OFFCURVE",
"134 667 CURVE",
"195 667 OFFCURVE",
"199 648 OFFCURVE",
"199 634 CURVE SMOOTH",
"193 381 LINE SMOOTH",
"193 377 OFFCURVE",
"191 375 OFFCURVE",
"187 375 CURVE SMOOTH",
"134 375 LINE SMOOTH",
"127 375 OFFCURVE",
"122 380 OFFCURVE",
"122 383 CURVE SMOOTH"
);
},
{
closed = 1;
nodes = (
"258 880 LINE",
"229 899 LINE",
"164 837 LINE",
"99 899 LINE",
"70 880 LINE",
"144 770 LINE",
"184 767 LINE"
);
}
);
width = 319;
}
);
unicode = 0158;
},
{
color = 0;
glyphname = Rcommaaccent;
lastChange = "2013-12-03 23:01:42 -0500";
layers = (
{
layerId = UUID0;
name = Regular;
paths = (
{
closed = 1;
nodes = (
"137 311 LINE",
"192 193 LINE",
"208 -3 LINE",
"281 0 LINE",
"260 206 LINE",
"201 316 LINE",
"257 332 OFFCURVE",
"264 374 OFFCURVE",
"264 384 CURVE SMOOTH",
"274 661 LINE",
"273 688 OFFCURVE",
"235 710 OFFCURVE",
"184 710 CURVE SMOOTH",
"28 710 LINE",
"28 681 LINE",
"50 669 LINE",
"50 0 LINE",
"108 0 LINE",
"108 311 LINE"
);
},
{
closed = 1;
nodes = (
"122 655 LINE SMOOTH",
"122 660 OFFCURVE",
"126 664 OFFCURVE",
"134 667 CURVE",
"195 667 OFFCURVE",
"199 648 OFFCURVE",
"199 634 CURVE SMOOTH",
"193 381 LINE SMOOTH",
"193 377 OFFCURVE",
"191 375 OFFCURVE",
"187 375 CURVE SMOOTH",
"134 375 LINE SMOOTH",
"127 375 OFFCURVE",
"122 380 OFFCURVE",
"122 383 CURVE SMOOTH"
);
},
{
closed = 1;
nodes = (
"109 -160 LINE",
"151 -160 LINE",
"105 -234 LINE",
"160 -250 LINE",
"193 -160 LINE",
"190 -78 LINE",
"109 -78 LINE"
);
}
);
width = 319;
}
);
unicode = 0156;
},
{
color = 0;
glyphname = Rdotbelow;
lastChange = "2013-12-03 23:01:42 -0500";
layers = (
{
layerId = UUID0;
name = Regular;
paths = (
{
closed = 1;
nodes = (
"137 311 LINE",
"192 193 LINE",
"208 -3 LINE",
"281 0 LINE",
"260 206 LINE",
"201 316 LINE",
"257 332 OFFCURVE",
"264 374 OFFCURVE",
"264 384 CURVE SMOOTH",
"274 661 LINE",
"273 688 OFFCURVE",
"235 710 OFFCURVE",
"184 710 CURVE SMOOTH",
"28 710 LINE",
"28 681 LINE",
"50 669 LINE",
"50 0 LINE",
"108 0 LINE",
"108 311 LINE"
);
},
{
closed = 1;
nodes = (
"122 655 LINE SMOOTH",
"122 660 OFFCURVE",
"126 664 OFFCURVE",
"134 667 CURVE",
"195 667 OFFCURVE",
"199 648 OFFCURVE",
"199 634 CURVE SMOOTH",
"193 381 LINE SMOOTH",
"193 377 OFFCURVE",
"191 375 OFFCURVE",
"187 375 CURVE SMOOTH",
"134 375 LINE SMOOTH",
"127 375 OFFCURVE",
"122 380 OFFCURVE",
"122 383 CURVE SMOOTH"
);
},
{
closed = 1;
nodes = (
"114 -154 LINE",
"203 -151 LINE",
"203 -56 LINE",
"110 -56 LINE"
);
}
);
width = 319;
}
);
unicode = 1E5A;
},
{
color = 0;
glyphname = S;
lastChange = "2013-12-03 23:01:42 -0500";
layers = (
{
anchors = (
{
name = bottom;
position = "{144, 0}";
},
{
name = top;
position = "{144, 710}";
}
);
layerId = UUID0;
name = Regular;
paths = (
{
closed = 1;
nodes = (
"247 661 LINE",
"247 710 LINE",
"80 710 LINE SMOOTH",
"59 710 OFFCURVE",
"40 684 OFFCURVE",
"40 663 CURVE SMOOTH",
"40 366 LINE",
"155 336 LINE",
"179 68 LINE",
"40 68 LINE",
"40 0 LINE",
"183 0 LINE SMOOTH",
"212 0 OFFCURVE",
"247 32 OFFCURVE",
"247 60 CURVE SMOOTH",
"247 388 LINE",
"120 421 LINE",
"105 642 LINE"
);
}
);
width = 287;
}
);
unicode = 0053;
},
{
color = 0;
glyphname = Sacute;
lastChange = "2013-12-03 23:01:42 -0500";
layers = (
{
layerId = UUID0;
name = Regular;
paths = (
{
closed = 1;
nodes = (
"247 661 LINE",
"247 710 LINE",
"80 710 LINE SMOOTH",
"59 710 OFFCURVE",
"40 684 OFFCURVE",
"40 663 CURVE SMOOTH",
"40 366 LINE",
"155 336 LINE",
"179 68 LINE",
"40 68 LINE",
"40 0 LINE",
"183 0 LINE SMOOTH",
"212 0 OFFCURVE",
"247 32 OFFCURVE",
"247 60 CURVE SMOOTH",
"247 388 LINE",
"120 421 LINE",
"105 642 LINE"
);
},
{
closed = 1;
nodes = (
"100 792 LINE",
"134 768 LINE",
"230 852 LINE",
"184 900 LINE"
);
}
);
width = 287;
}
);
unicode = 015A;
},
{
color = 0;
glyphname = Scaron;
lastChange = "2013-12-03 23:01:42 -0500";
layers = (
{
layerId = UUID0;
name = Regular;
paths = (
{
closed = 1;
nodes = (
"247 661 LINE",
"247 710 LINE",
"80 710 LINE SMOOTH",
"59 710 OFFCURVE",
"40 684 OFFCURVE",
"40 663 CURVE SMOOTH",
"40 366 LINE",
"155 336 LINE",
"179 68 LINE",
"40 68 LINE",
"40 0 LINE",
"183 0 LINE SMOOTH",
"212 0 OFFCURVE",
"247 32 OFFCURVE",
"247 60 CURVE SMOOTH",
"247 388 LINE",
"120 421 LINE",
"105 642 LINE"
);
},
{
closed = 1;
nodes = (
"248 881 LINE",
"219 900 LINE",
"154 838 LINE",
"89 900 LINE",
"60 881 LINE",
"134 771 LINE",
"174 768 LINE"
);
}
);
width = 287;
}
);
unicode = 0160;
},
{
color = 0;
glyphname = Scedilla;
lastChange = "2013-12-03 23:01:42 -0500";
layers = (
{
layerId = UUID0;
name = Regular;
paths = (
{
closed = 1;
nodes = (
"247 661 LINE",
"247 710 LINE",
"80 710 LINE SMOOTH",
"59 710 OFFCURVE",
"40 684 OFFCURVE",
"40 663 CURVE SMOOTH",
"40 366 LINE",
"155 336 LINE",
"179 68 LINE",
"40 68 LINE",
"40 0 LINE",
"99 0 LINE",
"74 -89 LINE",
"179 -97 LINE",
"169 -150 LINE",
"40 -150 LINE",
"40 -208 LINE",
"163 -208 LINE SMOOTH",
"192 -208 OFFCURVE",
"227 -176 OFFCURVE",
"227 -148 CURVE",
"251 -45 LINE",
"139 -45 LINE",
"162 0 LINE",
"183 0 LINE SMOOTH",
"212 0 OFFCURVE",
"247 32 OFFCURVE",
"247 60 CURVE SMOOTH",
"247 388 LINE",
"120 421 LINE",
"105 642 LINE"
);
}
);
width = 287;
}
);
unicode = 015E;
},
{
color = 0;
glyphname = Scircumflex;
lastChange = "2013-12-03 23:01:42 -0500";
layers = (
{
layerId = UUID0;
name = Regular;
paths = (
{
closed = 1;
nodes = (
"247 661 LINE",
"247 710 LINE",
"80 710 LINE SMOOTH",
"59 710 OFFCURVE",
"40 684 OFFCURVE",
"40 663 CURVE SMOOTH",
"40 366 LINE",
"155 336 LINE",
"179 68 LINE",
"40 68 LINE",
"40 0 LINE",
"183 0 LINE SMOOTH",
"212 0 OFFCURVE",
"247 32 OFFCURVE",
"247 60 CURVE SMOOTH",
"247 388 LINE",
"120 421 LINE",
"105 642 LINE"
);
},
{
closed = 1;
nodes = (
"60 787 LINE",
"89 768 LINE",
"154 830 LINE",
"219 768 LINE",
"248 787 LINE",
"174 897 LINE",
"134 900 LINE"
);
}
);
width = 287;
}
);
unicode = 015C;
},
{
color = 0;
glyphname = Scommaaccent;
lastChange = "2013-12-03 23:01:42 -0500";
layers = (
{
layerId = UUID0;
name = Regular;
paths = (
{
closed = 1;
nodes = (
"247 661 LINE",
"247 710 LINE",
"80 710 LINE SMOOTH",
"59 710 OFFCURVE",
"40 684 OFFCURVE",
"40 663 CURVE SMOOTH",
"40 366 LINE",
"155 336 LINE",
"179 68 LINE",
"40 68 LINE",
"40 0 LINE",
"183 0 LINE SMOOTH",
"212 0 OFFCURVE",
"247 32 OFFCURVE",
"247 60 CURVE SMOOTH",
"247 388 LINE",
"120 421 LINE",
"105 642 LINE"
);
},
{
closed = 1;
nodes = (
"94 -160 LINE",
"136 -160 LINE",
"90 -234 LINE",
"145 -250 LINE",
"178 -160 LINE",
"175 -78 LINE",
"94 -78 LINE"
);
}
);
width = 287;
}
);
unicode = 0218;
},
{
color = 0;
glyphname = Sdotbelow;
lastChange = "2013-12-03 23:01:42 -0500";
layers = (
{
layerId = UUID0;
name = Regular;
paths = (
{
closed = 1;
nodes = (
"247 661 LINE",
"247 710 LINE",
"80 710 LINE SMOOTH",
"59 710 OFFCURVE",
"40 684 OFFCURVE",
"40 663 CURVE SMOOTH",
"40 366 LINE",
"155 336 LINE",
"179 68 LINE",
"40 68 LINE",
"40 0 LINE",
"183 0 LINE SMOOTH",
"212 0 OFFCURVE",
"247 32 OFFCURVE",
"247 60 CURVE SMOOTH",
"247 388 LINE",
"120 421 LINE",
"105 642 LINE"
);
},
{
closed = 1;
nodes = (
"94 -154 LINE",
"183 -151 LINE",
"183 -56 LINE",
"90 -56 LINE"
);
}
);
width = 287;
}
);
unicode = 1E62;
},
{
color = 0;
glyphname = Germandbls;
lastChange = "2013-12-03 23:01:42 -0500";
layers = (
{
layerId = UUID0;
name = Regular;
paths = (
{
closed = 1;
nodes = (
"229 449 LINE",
"228 454 LINE",
"331 710 LINE",
"146 710 LINE",
"55 640 LINE",
"55 -1 LINE",
"137 -1 LINE",
"116 616 LINE",
"202 650 LINE",
"234 628 LINE",
"161 459 LINE",
"187 396 LINE",
"296 276 LINE",
"286 78 LINE",
"183 64 LINE",
"187 0 LINE",
"290 0 LINE",
"364 80 LINE",
"364 345 LINE"
);
}
);
width = 414;
}
);
unicode = 1E9E;
},
{
color = 0;
glyphname = Schwa;
lastChange = "2013-12-03 23:01:42 -0500";
layers = (
{
layerId = UUID0;
name = Regular;
paths = (
{
closed = 1;
nodes = (
"50 20 LINE",
"260 20 LINE SMOOTH",
"287 20 OFFCURVE",
"312 45 OFFCURVE",
"312 97 CURVE SMOOTH",
"312 656 LINE",
"276 710 LINE",
"63 710 LINE",
"69 651 LINE",
"203 651 LINE SMOOTH",
"232 651 OFFCURVE",
"244 634 OFFCURVE",
"245 606 CURVE",
"236 362 LINE",
"50 374 LINE"
);
},
{
closed = 1;
nodes = (
"133 92 LINE SMOOTH",
"125 92 OFFCURVE",
"113 96 OFFCURVE",
"113 104 CURVE SMOOTH",
"103 300 LINE",
"234 300 LINE",
"227 110 LINE SMOOTH",
"227 101 OFFCURVE",
"215 92 OFFCURVE",
"206 92 CURVE"
);
}
);
width = 356;
}
);
unicode = 018F;
},
{
color = 0;
glyphname = T;
lastChange = "2013-12-03 23:01:42 -0500";
layers = (
{
anchors = (
{
name = bottom;
position = "{138, 0}";
},
{
name = center;
position = "{138, 355}";
},
{
name = top;
position = "{138, 710}";
}
);
layerId = UUID0;
name = Regular;
paths = (
{
closed = 1;
nodes = (
"250 710 LINE",
"35 710 LINE",
"25 672 LINE",
"94 660 LINE",
"94 20 LINE",
"178 20 LINE",
"178 653 LINE",
"250 653 LINE"
);
}
);
width = 275;
}
);
unicode = 0054;
},
{
color = 0;
glyphname = Tbar;
lastChange = "2013-12-03 23:01:42 -0500";
layers = (
{
layerId = UUID0;
name = Regular;
paths = (
{
closed = 1;
nodes = (
"4 492 LINE",
"7 428 LINE",
"94 431 LINE",
"94 20 LINE",
"178 20 LINE",
"178 434 LINE",
"272 437 LINE",
"272 492 LINE",
"178 492 LINE",
"178 643 LINE",
"270 643 LINE",
"270 710 LINE",
"15 710 LINE",
"5 662 LINE",
"94 650 LINE",
"94 492 LINE"
);
}
);
width = 275;
}
);
unicode = 0166;
},
{
color = 0;
glyphname = Tcaron;
lastChange = "2013-12-03 23:01:42 -0500";
layers = (
{
layerId = UUID0;
name = Regular;
paths = (
{
closed = 1;
nodes = (
"250 710 LINE",
"35 710 LINE",
"25 672 LINE",
"94 660 LINE",
"94 20 LINE",
"178 20 LINE",
"178 653 LINE",
"250 653 LINE"
);
},
{
closed = 1;
nodes = (
"233 881 LINE",
"204 900 LINE",
"139 838 LINE",
"74 900 LINE",
"45 881 LINE",
"119 771 LINE",
"159 768 LINE"
);
}
);
width = 275;
}
);
unicode = 0164;
},
{
color = 0;
glyphname = Tcedilla;
lastChange = "2013-12-03 23:01:42 -0500";
layers = (
{
layerId = UUID0;
name = Regular;
paths = (
{
closed = 1;
nodes = (
"250 710 LINE",
"35 710 LINE",
"25 672 LINE",
"94 660 LINE",
"94 21 LINE",
"63 -89 LINE",
"168 -97 LINE",
"158 -150 LINE",
"29 -150 LINE",
"29 -208 LINE",
"152 -208 LINE SMOOTH",
"181 -208 OFFCURVE",
"216 -176 OFFCURVE",
"216 -148 CURVE",
"240 -45 LINE",
"128 -45 LINE",
"162 20 LINE",
"178 20 LINE",
"178 653 LINE",
"250 653 LINE"
);
}
);
width = 275;
}
);
unicode = 0162;
},
{
color = 0;
glyphname = Tcommaaccent;
lastChange = "2013-12-03 23:01:42 -0500";
layers = (
{
layerId = UUID0;
name = Regular;
paths = (
{
closed = 1;
nodes = (
"250 710 LINE",
"35 710 LINE",
"25 672 LINE",
"94 660 LINE",
"94 20 LINE",
"178 20 LINE",
"178 653 LINE",
"250 653 LINE"
);
},
{
closed = 1;
nodes = (
"95 -160 LINE",
"137 -160 LINE",
"91 -234 LINE",
"146 -250 LINE",
"179 -160 LINE",
"176 -78 LINE",
"95 -78 LINE"
);
}
);
width = 275;
}
);
unicode = 021A;
},
{
color = 0;
glyphname = Tdotbelow;
lastChange = "2013-12-03 23:01:42 -0500";
layers = (
{
layerId = UUID0;
name = Regular;
paths = (
{
closed = 1;
nodes = (
"250 710 LINE",
"35 710 LINE",
"25 672 LINE",
"94 660 LINE",
"94 20 LINE",
"178 20 LINE",
"178 653 LINE",
"250 653 LINE"
);
},
{
closed = 1;
nodes = (
"90 -154 LINE",
"179 -151 LINE",
"179 -56 LINE",
"86 -56 LINE"
);
}
);
width = 275;
}
);
unicode = 1E6C;
},
{
color = 0;
glyphname = U;
lastChange = "2013-12-03 23:01:42 -0500";
layers = (
{
anchors = (
{
name = ogonek;
position = "{279, 10}";
},
{
name = top;
position = "{155, 710}";
}
);
layerId = UUID0;
name = Regular;
paths = (
{
closed = 1;
nodes = (
"261 710 LINE",
"176 710 LINE",
"197 63 LINE",
"110 69 LINE",
"110 687 LINE",
"50 687 LINE",
"50 0 LINE",
"217 0 LINE SMOOTH",
"236 0 OFFCURVE",
"260 21 OFFCURVE",
"260 40 CURVE SMOOTH"
);
}
);
width = 310;
}
);
unicode = 0055;
},
{
color = 0;
glyphname = Uacute;
lastChange = "2013-12-03 23:01:42 -0500";
layers = (
{
layerId = UUID0;
name = Regular;
paths = (
{
closed = 1;
nodes = (
"261 710 LINE",
"176 710 LINE",
"197 63 LINE",
"110 69 LINE",
"110 687 LINE",
"50 687 LINE",
"50 0 LINE",
"217 0 LINE SMOOTH",
"236 0 OFFCURVE",
"260 21 OFFCURVE",
"260 40 CURVE SMOOTH"
);
},
{
closed = 1;
nodes = (
"110 792 LINE",
"144 768 LINE",
"240 852 LINE",
"194 900 LINE"
);
}
);
width = 310;
}
);
unicode = 00DA;
},
{
color = 0;
glyphname = Ubreve;
lastChange = "2013-12-03 23:01:42 -0500";
layers = (
{
layerId = UUID0;
name = Regular;
paths = (
{
closed = 1;
nodes = (
"261 710 LINE",
"176 710 LINE",
"197 63 LINE",
"110 69 LINE",
"110 687 LINE",
"50 687 LINE",
"50 0 LINE",
"217 0 LINE SMOOTH",
"236 0 OFFCURVE",
"260 21 OFFCURVE",
"260 40 CURVE SMOOTH"
);
},
{
closed = 1;
nodes = (
"45 894 LINE",
"49 813 LINE",
"94 785 LINE",
"219 785 LINE",
"258 824 LINE",
"258 900 LINE",
"212 896 LINE",
"215 830 LINE",
"105 835 LINE",
"93 846 LINE",
"98 894 LINE"
);
}
);
width = 310;
}
);
unicode = 016C;
},
{
color = 0;
glyphname = Ucircumflex;
lastChange = "2013-12-03 23:01:42 -0500";
layers = (
{
layerId = UUID0;
name = Regular;
paths = (
{
closed = 1;
nodes = (
"261 710 LINE",
"176 710 LINE",
"197 63 LINE",
"110 69 LINE",
"110 687 LINE",
"50 687 LINE",
"50 0 LINE",
"217 0 LINE SMOOTH",
"236 0 OFFCURVE",
"260 21 OFFCURVE",
"260 40 CURVE SMOOTH"
);
},
{
closed = 1;
nodes = (
"64 787 LINE",
"93 768 LINE",
"158 830 LINE",
"223 768 LINE",
"252 787 LINE",
"178 897 LINE",
"138 900 LINE"
);
}
);
width = 310;
}
);
unicode = 00DB;
},
{
color = 0;
glyphname = Udieresis;
lastChange = "2013-12-03 23:01:42 -0500";
layers = (
{
layerId = UUID0;
name = Regular;
paths = (
{
closed = 1;
nodes = (
"261 710 LINE",
"176 710 LINE",
"197 63 LINE",
"110 69 LINE",
"110 687 LINE",
"50 687 LINE",
"50 0 LINE",
"217 0 LINE SMOOTH",
"236 0 OFFCURVE",
"260 21 OFFCURVE",
"260 40 CURVE SMOOTH"
);
},
{
closed = 1;
nodes = (
"40 817 LINE",
"119 817 LINE",
"123 900 LINE",
"40 897 LINE"
);
},
{
closed = 1;
nodes = (
"193 817 LINE",
"269 820 LINE",
"269 900 LINE",
"190 900 LINE"
);
}
);
width = 310;
}
);
unicode = 00DC;
},
{
color = 0;
glyphname = Udotbelow;
lastChange = "2013-12-03 23:01:42 -0500";
layers = (
{
layerId = UUID0;
name = Regular;
paths = (
{
closed = 1;
nodes = (
"261 710 LINE",
"176 710 LINE",
"197 63 LINE",
"110 69 LINE",
"110 687 LINE",
"50 687 LINE",
"50 0 LINE",
"217 0 LINE SMOOTH",
"236 0 OFFCURVE",
"260 21 OFFCURVE",
"260 40 CURVE SMOOTH"
);
},
{
closed = 1;
nodes = (
"106 -154 LINE",
"195 -151 LINE",
"195 -56 LINE",
"102 -56 LINE"
);
}
);
width = 310;
}
);
unicode = 1EE4;
},
{
color = 0;
glyphname = Ugrave;
lastChange = "2013-12-03 23:01:42 -0500";
layers = (
{
layerId = UUID0;
name = Regular;
paths = (
{
closed = 1;
nodes = (
"261 710 LINE",
"176 710 LINE",
"197 63 LINE",
"110 69 LINE",
"110 687 LINE",
"50 687 LINE",
"50 0 LINE",
"217 0 LINE SMOOTH",
"236 0 OFFCURVE",
"260 21 OFFCURVE",
"260 40 CURVE SMOOTH"
);
},
{
closed = 1;
nodes = (
"126 900 LINE",
"80 852 LINE",
"176 768 LINE",
"210 792 LINE"
);
}
);
width = 310;
}
);
unicode = 00D9;
},
{
color = 0;
glyphname = Uhungarumlaut;
lastChange = "2013-12-03 23:01:42 -0500";
layers = (
{
layerId = UUID0;
name = Regular;
paths = (
{
closed = 1;
nodes = (
"261 710 LINE",
"176 710 LINE",
"197 63 LINE",
"110 69 LINE",
"110 687 LINE",
"50 687 LINE",
"50 0 LINE",
"217 0 LINE SMOOTH",
"236 0 OFFCURVE",
"260 21 OFFCURVE",
"260 40 CURVE SMOOTH"
);
},
{
closed = 1;
nodes = (
"40 792 LINE",
"74 768 LINE",
"170 852 LINE",
"124 900 LINE"
);
},
{
closed = 1;
nodes = (
"170 792 LINE",
"204 768 LINE",
"300 852 LINE",
"254 900 LINE"
);
}
);
width = 310;
}
);
unicode = 0170;
},
{
color = 0;
glyphname = Umacron;
lastChange = "2013-12-03 23:01:42 -0500";
layers = (
{
layerId = UUID0;
name = Regular;
paths = (
{
closed = 1;
nodes = (
"261 710 LINE",
"176 710 LINE",
"197 63 LINE",
"110 69 LINE",
"110 687 LINE",
"50 687 LINE",
"50 0 LINE",
"217 0 LINE SMOOTH",
"236 0 OFFCURVE",
"260 21 OFFCURVE",
"260 40 CURVE SMOOTH"
);
},
{
closed = 1;
nodes = (
"25 891 LINE",
"28 827 LINE",
"293 836 LINE",
"293 891 LINE"
);
}
);
width = 310;
}
);
unicode = 016A;
},
{
color = 0;
glyphname = Uogonek;
lastChange = "2013-12-03 23:01:42 -0500";
layers = (
{
layerId = UUID0;
name = Regular;
paths = (
{
closed = 1;
nodes = (
"261 710 LINE",
"176 710 LINE",
"197 63 LINE",
"110 69 LINE",
"110 687 LINE",
"50 687 LINE",
"50 0 LINE",
"142 0 LINE",
"94 -95 LINE",
"182 -209 LINE",
"295 -146 LINE",
"279 -100 LINE",
"190 -145 LINE",
"156 -83 LINE",
"182 0 LINE",
"217 0 LINE SMOOTH",
"236 0 OFFCURVE",
"260 21 OFFCURVE",
"260 40 CURVE SMOOTH"
);
}
);
width = 310;
}
);
unicode = 0172;
},
{
color = 0;
glyphname = Uring;
lastChange = "2013-12-03 23:01:42 -0500";
layers = (
{
layerId = UUID0;
name = Regular;
paths = (
{
closed = 1;
nodes = (
"261 710 LINE",
"176 710 LINE",
"197 63 LINE",
"110 69 LINE",
"110 687 LINE",
"50 687 LINE",
"50 0 LINE",
"217 0 LINE SMOOTH",
"236 0 OFFCURVE",
"260 21 OFFCURVE",
"260 40 CURVE SMOOTH"
);
},
{
closed = 1;
nodes = (
"88 900 LINE",
"88 765 LINE",
"202 765 LINE",
"227 791 LINE",
"227 900 LINE"
);
},
{
closed = 1;
nodes = (
"137 800 LINE SMOOTH",
"133 800 OFFCURVE",
"131 801 OFFCURVE",
"131 804 CURVE SMOOTH",
"131 870 LINE SMOOTH",
"131 872 OFFCURVE",
"134 873 OFFCURVE",
"139 873 CURVE",
"179 868 LINE",
"183 866 OFFCURVE",
"185 864 OFFCURVE",
"185 862 CURVE SMOOTH",
"185 806 LINE SMOOTH",
"185 802 OFFCURVE",
"183 800 OFFCURVE",
"178 800 CURVE SMOOTH"
);
}
);
width = 310;
}
);
unicode = 016E;
},
{
color = 0;
glyphname = Utilde;
lastChange = "2013-12-03 23:01:42 -0500";
layers = (
{
layerId = UUID0;
name = Regular;
paths = (
{
closed = 1;
nodes = (
"261 710 LINE",
"176 710 LINE",
"197 63 LINE",
"110 69 LINE",
"110 687 LINE",
"50 687 LINE",
"50 0 LINE",
"217 0 LINE SMOOTH",
"236 0 OFFCURVE",
"260 21 OFFCURVE",
"260 40 CURVE SMOOTH"
);
},
{
closed = 1;
nodes = (
"89 897 OFFCURVE",
"77 892 OFFCURVE",
"66 883 CURVE SMOOTH",
"40 860 LINE",
"43 791 LINE",
"111 844 LINE",
"155 813 LINE SMOOTH",
"172 801 OFFCURVE",
"185 794 OFFCURVE",
"200 794 CURVE SMOOTH",
"212 794 OFFCURVE",
"231 805 OFFCURVE",
"244 817 CURVE SMOOTH",
"268 840 LINE",
"268 900 LINE",
"196 852 LINE",
"158 877 LINE SMOOTH",
"142 888 OFFCURVE",
"123 897 OFFCURVE",
"104 897 CURVE SMOOTH"
);
}
);
width = 310;
}
);
unicode = 0168;
},
{
color = 0;
glyphname = V;
lastChange = "2013-12-03 23:01:42 -0500";
layers = (
{
layerId = UUID0;
name = Regular;
paths = (
{
closed = 1;
nodes = (
"189 0 LINE",
"274 710 LINE",
"209 710 LINE",
"161 78 LINE",
"157 78 LINE",
"86 710 LINE",
"7 710 LINE",
"123 -10 LINE"
);
}
);
width = 281;
}
);
unicode = 0056;
},
{
color = 0;
glyphname = W;
lastChange = "2013-12-03 23:01:42 -0500";
layers = (
{
anchors = (
{
name = top;
position = "{167, 710}";
}
);
layerId = UUID0;
name = Regular;
paths = (
{
closed = 1;
nodes = (
"257 710 LINE",
"257 86 LINE",
"252 86 LINE",
"185 598 LINE",
"142 598 LINE",
"85 86 LINE",
"81 86 LINE",
"81 710 LINE",
"8 710 LINE",
"47 0 LINE",
"102 0 LINE",
"163 417 LINE",
"167 417 LINE",
"228 0 LINE",
"291 0 LINE",
"327 710 LINE"
);
}
);
width = 334;
}
);
unicode = 0057;
},
{
color = 0;
glyphname = Wacute;
lastChange = "2013-12-03 23:01:42 -0500";
layers = (
{
layerId = UUID0;
name = Regular;
paths = (
{
closed = 1;
nodes = (
"257 710 LINE",
"257 86 LINE",
"252 86 LINE",
"185 598 LINE",
"142 598 LINE",
"85 86 LINE",
"81 86 LINE",
"81 710 LINE",
"8 710 LINE",
"47 0 LINE",
"102 0 LINE",
"163 417 LINE",
"167 417 LINE",
"228 0 LINE",
"291 0 LINE",
"327 710 LINE"
);
},
{
closed = 1;
nodes = (
"107 792 LINE",
"141 768 LINE",
"237 852 LINE",
"191 900 LINE"
);
}
);
width = 334;
}
);
unicode = 1E82;
},
{
color = 0;
glyphname = Wcircumflex;
lastChange = "2013-12-03 23:01:42 -0500";
layers = (
{
layerId = UUID0;
name = Regular;
paths = (
{
closed = 1;
nodes = (
"257 710 LINE",
"257 86 LINE",
"252 86 LINE",
"185 598 LINE",
"142 598 LINE",
"85 86 LINE",
"81 86 LINE",
"81 710 LINE",
"8 710 LINE",
"47 0 LINE",
"102 0 LINE",
"163 417 LINE",
"167 417 LINE",
"228 0 LINE",
"291 0 LINE",
"327 710 LINE"
);
},
{
closed = 1;
nodes = (
"80 787 LINE",
"109 768 LINE",
"174 830 LINE",
"239 768 LINE",
"268 787 LINE",
"194 897 LINE",
"154 900 LINE"
);
}
);
width = 334;
}
);
unicode = 0174;
},
{
color = 0;
glyphname = Wdieresis;
lastChange = "2013-12-03 23:01:42 -0500";
layers = (
{
layerId = UUID0;
name = Regular;
paths = (
{
closed = 1;
nodes = (
"257 710 LINE",
"257 86 LINE",
"252 86 LINE",
"185 598 LINE",
"142 598 LINE",
"85 86 LINE",
"81 86 LINE",
"81 710 LINE",
"8 710 LINE",
"47 0 LINE",
"102 0 LINE",
"163 417 LINE",
"167 417 LINE",
"228 0 LINE",
"291 0 LINE",
"327 710 LINE"
);
},
{
closed = 1;
nodes = (
"50 815 LINE",
"129 815 LINE",
"133 898 LINE",
"50 895 LINE"
);
},
{
closed = 1;
nodes = (
"203 815 LINE",
"279 818 LINE",
"279 898 LINE",
"200 898 LINE"
);
}
);
width = 334;
}
);
unicode = 1E84;
},
{
color = 0;
glyphname = Wgrave;
lastChange = "2013-12-03 23:01:42 -0500";
layers = (
{
layerId = UUID0;
name = Regular;
paths = (
{
closed = 1;
nodes = (
"257 710 LINE",
"257 86 LINE",
"252 86 LINE",
"185 598 LINE",
"142 598 LINE",
"85 86 LINE",
"81 86 LINE",
"81 710 LINE",
"8 710 LINE",
"47 0 LINE",
"102 0 LINE",
"163 417 LINE",
"167 417 LINE",
"228 0 LINE",
"291 0 LINE",
"327 710 LINE"
);
},
{
closed = 1;
nodes = (
"136 900 LINE",
"90 852 LINE",
"186 768 LINE",
"220 792 LINE"
);
}
);
width = 334;
}
);
unicode = 1E80;
},
{
color = 0;
glyphname = X;
lastChange = "2013-12-03 23:01:42 -0500";
layers = (
{
layerId = UUID0;
name = Regular;
paths = (
{
closed = 1;
nodes = (
"23 0 LINE",
"110 0 LINE",
"119 263 LINE",
"147 300 LINE",
"222 55 LINE",
"222 0 LINE",
"295 0 LINE",
"295 30 LINE",
"282 45 LINE",
"197 334 LINE",
"265 402 LINE",
"295 710 LINE",
"221 710 LINE",
"191 418 LINE",
"171 386 LINE",
"99 710 LINE",
"17 710 LINE",
"122 364 LINE",
"51 293 LINE"
);
}
);
width = 304;
}
);
unicode = 0058;
},
{
color = 0;
glyphname = Y;
lastChange = "2013-12-03 23:01:42 -0500";
layers = (
{
anchors = (
{
name = top;
position = "{124, 710}";
}
);
layerId = UUID0;
name = Regular;
paths = (
{
closed = 1;
nodes = (
"164 389 LINE",
"217 451 LINE",
"217 710 LINE",
"161 710 LINE",
"143 428 LINE",
"107 431 LINE",
"94 710 LINE",
"30 710 LINE",
"30 472 LINE",
"97 353 LINE",
"97 -20 LINE",
"164 -20 LINE"
);
}
);
width = 247;
}
);
unicode = 0059;
},
{
color = 0;
glyphname = Yacute;
lastChange = "2013-12-03 23:01:42 -0500";
layers = (
{
layerId = UUID0;
name = Regular;
paths = (
{
closed = 1;
nodes = (
"164 -20 LINE",
"97 -20 LINE",
"97 353 LINE",
"30 472 LINE",
"30 710 LINE",
"94 710 LINE",
"107 431 LINE",
"143 428 LINE",
"161 710 LINE",
"217 710 LINE",
"217 451 LINE",
"164 389 LINE"
);
},
{
closed = 1;
nodes = (
"78 792 LINE",
"112 768 LINE",
"208 852 LINE",
"162 900 LINE"
);
}
);
width = 247;
}
);
unicode = 00DD;
},
{
color = 0;
glyphname = Ycircumflex;
lastChange = "2013-12-03 23:01:42 -0500";
layers = (
{
layerId = UUID0;
name = Regular;
paths = (
{
closed = 1;
nodes = (
"164 389 LINE",
"217 451 LINE",
"217 710 LINE",
"161 710 LINE",
"143 428 LINE",
"107 431 LINE",
"94 710 LINE",
"30 710 LINE",
"30 472 LINE",
"97 353 LINE",
"97 -20 LINE",
"164 -20 LINE"
);
},
{
closed = 1;
nodes = (
"35 787 LINE",
"64 768 LINE",
"129 830 LINE",
"194 768 LINE",
"223 787 LINE",
"149 897 LINE",
"109 900 LINE"
);
}
);
width = 247;
}
);
unicode = 0176;
},
{
color = 0;
glyphname = Ydieresis;
lastChange = "2013-12-03 23:01:42 -0500";
layers = (
{
layerId = UUID0;
name = Regular;
paths = (
{
closed = 1;
nodes = (
"164 -20 LINE",
"97 -20 LINE",
"97 353 LINE",
"30 472 LINE",
"30 710 LINE",
"94 710 LINE",
"107 431 LINE",
"143 428 LINE",
"161 710 LINE",
"217 710 LINE",
"217 451 LINE",
"164 389 LINE"
);
},
{
closed = 1;
nodes = (
"10 815 LINE",
"89 815 LINE",
"93 898 LINE",
"10 895 LINE"
);
},
{
closed = 1;
nodes = (
"163 815 LINE",
"239 818 LINE",
"239 898 LINE",
"160 898 LINE"
);
}
);
width = 247;
}
);
unicode = 0178;
},
{
color = 0;
glyphname = Ygrave;
lastChange = "2013-12-03 23:01:42 -0500";
layers = (
{
layerId = UUID0;
name = Regular;
paths = (
{
closed = 1;
nodes = (
"164 389 LINE",
"217 451 LINE",
"217 710 LINE",
"161 710 LINE",
"143 428 LINE",
"107 431 LINE",
"94 710 LINE",
"30 710 LINE",
"30 472 LINE",
"97 353 LINE",
"97 -20 LINE",
"164 -20 LINE"
);
},
{
closed = 1;
nodes = (
"106 900 LINE",
"60 852 LINE",
"156 768 LINE",
"190 792 LINE"
);
}
);
width = 247;
}
);
unicode = 1EF2;
},
{
color = 0;
glyphname = Ytilde;
lastChange = "2013-12-03 23:01:42 -0500";
layers = (
{
layerId = UUID0;
name = Regular;
paths = (
{
closed = 1;
nodes = (
"164 -20 LINE",
"97 -20 LINE",
"97 353 LINE",
"30 472 LINE",
"30 710 LINE",
"94 710 LINE",
"107 431 LINE",
"143 428 LINE",
"161 710 LINE",
"217 710 LINE",
"217 451 LINE",
"164 389 LINE"
);
},
{
closed = 1;
nodes = (
"59 897 OFFCURVE",
"47 892 OFFCURVE",
"36 883 CURVE SMOOTH",
"10 860 LINE",
"13 791 LINE",
"81 844 LINE",
"125 813 LINE SMOOTH",
"142 801 OFFCURVE",
"155 794 OFFCURVE",
"170 794 CURVE SMOOTH",
"182 794 OFFCURVE",
"201 805 OFFCURVE",
"214 817 CURVE SMOOTH",
"238 840 LINE",
"238 900 LINE",
"166 852 LINE",
"128 877 LINE SMOOTH",
"112 888 OFFCURVE",
"93 897 OFFCURVE",
"74 897 CURVE SMOOTH"
);
}
);
width = 247;
}
);
unicode = 1EF8;
},
{
color = 0;
glyphname = Z;
lastChange = "2013-12-03 23:01:42 -0500";
layers = (
{
anchors = (
{
name = top;
position = "{151, 710}";
}
);
layerId = UUID0;
name = Regular;
paths = (
{
closed = 1;
nodes = (
"272 0 LINE",
"264 65 LINE",
"130 84 LINE",
"272 679 LINE",
"241 710 LINE",
"46 710 LINE",
"46 670 LINE",
"182 638 LINE",
"64 88 LINE",
"30 22 LINE",
"48 0 LINE"
);
}
);
width = 302;
}
);
unicode = 005A;
},
{
color = 0;
glyphname = Zacute;
lastChange = "2013-12-03 23:01:42 -0500";
layers = (
{
layerId = UUID0;
name = Regular;
paths = (
{
closed = 1;
nodes = (
"48 0 LINE",
"30 22 LINE",
"64 88 LINE",
"182 638 LINE",
"46 670 LINE",
"46 710 LINE",
"241 710 LINE",
"272 679 LINE",
"130 84 LINE",
"264 65 LINE",
"272 0 LINE"
);
},
{
closed = 1;
nodes = (
"105 792 LINE",
"139 768 LINE",
"235 852 LINE",
"189 900 LINE"
);
}
);
width = 302;
}
);
unicode = 0179;
},
{
color = 0;
glyphname = Zcaron;
lastChange = "2013-12-03 23:01:42 -0500";
layers = (
{
layerId = UUID0;
name = Regular;
paths = (
{
closed = 1;
nodes = (
"272 0 LINE",
"264 65 LINE",
"130 84 LINE",
"272 679 LINE",
"241 710 LINE",
"46 710 LINE",
"46 670 LINE",
"182 638 LINE",
"64 88 LINE",
"30 22 LINE",
"48 0 LINE"
);
},
{
closed = 1;
nodes = (
"253 881 LINE",
"224 900 LINE",
"159 838 LINE",
"94 900 LINE",
"65 881 LINE",
"139 771 LINE",
"179 768 LINE"
);
}
);
width = 302;
}
);
unicode = 017D;
},
{
color = 0;
glyphname = Zdotaccent;
lastChange = "2013-12-03 23:01:42 -0500";
layers = (
{
layerId = UUID0;
name = Regular;
paths = (
{
closed = 1;
nodes = (
"48 0 LINE",
"30 22 LINE",
"64 88 LINE",
"182 638 LINE",
"46 670 LINE",
"46 710 LINE",
"241 710 LINE",
"272 679 LINE",
"130 84 LINE",
"264 65 LINE",
"272 0 LINE"
);
},
{
closed = 1;
nodes = (
"112 802 LINE",
"201 805 LINE",
"201 900 LINE",
"108 900 LINE"
);
}
);
width = 302;
}
);
unicode = 017B;
},
{
color = 0;
glyphname = Zdotbelow;
lastChange = "2013-12-03 23:01:42 -0500";
layers = (
{
layerId = UUID0;
name = Regular;
paths = (
{
closed = 1;
nodes = (
"272 0 LINE",
"264 65 LINE",
"130 84 LINE",
"272 679 LINE",
"241 710 LINE",
"46 710 LINE",
"46 670 LINE",
"182 638 LINE",
"64 88 LINE",
"30 22 LINE",
"48 0 LINE"
);
},
{
closed = 1;
nodes = (
"114 -154 LINE",
"203 -151 LINE",
"203 -56 LINE",
"110 -56 LINE"
);
}
);
width = 302;
}
);
unicode = 1E92;
},
{
color = 0;
glyphname = a;
lastChange = "2013-12-03 23:01:42 -0500";
layers = (
{
anchors = (
{
name = ogonek;
position = "{277, 10}";
},
{
name = top;
position = "{154, 492}";
}
);
layerId = UUID0;
name = Regular;
paths = (
{
closed = 1;
nodes = (
"234 710 LINE",
"76 710 LINE",
"31 0 LINE",
"93 0 LINE",
"115 228 LINE",
"195 266 LINE",
"231 0 LINE",
"275 0 LINE"
);
},
{
closed = 1;
nodes = (
"176 303 LINE SMOOTH",
"176 299 OFFCURVE",
"174 297 OFFCURVE",
"170 297 CURVE",
"133 291 LINE",
"129 291 OFFCURVE",
"127 293 OFFCURVE",
"127 296 CURVE SMOOTH",
"127 648 LINE SMOOTH",
"127 653 OFFCURVE",
"129 656 OFFCURVE",
"133 658 CURVE",
"176 668 LINE",
"180 668 OFFCURVE",
"182 666 OFFCURVE",
"182 662 CURVE SMOOTH"
);
}
);
width = 308;
}
);
unicode = 0061;
},
{
color = 0;
glyphname = aacute;
lastChange = "2013-12-03 23:01:42 -0500";
layers = (
{
layerId = UUID0;
name = Regular;
paths = (
{
closed = 1;
nodes = (
"234 710 LINE",
"76 710 LINE",
"31 0 LINE",
"93 0 LINE",
"115 228 LINE",
"195 266 LINE",
"231 0 LINE",
"275 0 LINE"
);
},
{
closed = 1;
nodes = (
"176 303 LINE SMOOTH",
"176 299 OFFCURVE",
"174 297 OFFCURVE",
"170 297 CURVE",
"133 291 LINE",
"129 291 OFFCURVE",
"127 293 OFFCURVE",
"127 296 CURVE SMOOTH",
"127 648 LINE SMOOTH",
"127 653 OFFCURVE",
"129 656 OFFCURVE",
"133 658 CURVE",
"176 668 LINE",
"180 668 OFFCURVE",
"182 666 OFFCURVE",
"182 662 CURVE SMOOTH"
);
},
{
closed = 1;
nodes = (
"99 792 LINE",
"133 768 LINE",
"229 852 LINE",
"183 900 LINE"
);
}
);
width = 308;
}
);
unicode = 00E1;
},
{
color = 0;
glyphname = abreve;
lastChange = "2013-12-03 23:01:42 -0500";
layers = (
{
layerId = UUID0;
name = Regular;
paths = (
{
closed = 1;
nodes = (
"234 710 LINE",
"76 710 LINE",
"31 0 LINE",
"93 0 LINE",
"115 228 LINE",
"195 266 LINE",
"231 0 LINE",
"275 0 LINE"
);
},
{
closed = 1;
nodes = (
"176 303 LINE SMOOTH",
"176 299 OFFCURVE",
"174 297 OFFCURVE",
"170 297 CURVE",
"133 291 LINE",
"129 291 OFFCURVE",
"127 293 OFFCURVE",
"127 296 CURVE SMOOTH",
"127 648 LINE SMOOTH",
"127 653 OFFCURVE",
"129 656 OFFCURVE",
"133 658 CURVE",
"176 668 LINE",
"180 668 OFFCURVE",
"182 666 OFFCURVE",
"182 662 CURVE SMOOTH"
);
},
{
closed = 1;
nodes = (
"50 894 LINE",
"54 813 LINE",
"99 785 LINE",
"224 785 LINE",
"263 824 LINE",
"263 900 LINE",
"217 896 LINE",
"220 830 LINE",
"110 835 LINE",
"98 846 LINE",
"103 894 LINE"
);
}
);
width = 308;
}
);
unicode = 0103;
},
{
color = 0;
glyphname = acircumflex;
lastChange = "2013-12-03 23:01:42 -0500";
layers = (
{
layerId = UUID0;
name = Regular;
paths = (
{
closed = 1;
nodes = (
"234 710 LINE",
"76 710 LINE",
"31 0 LINE",
"93 0 LINE",
"115 228 LINE",
"195 266 LINE",
"231 0 LINE",
"275 0 LINE"
);
},
{
closed = 1;
nodes = (
"176 303 LINE SMOOTH",
"176 299 OFFCURVE",
"174 297 OFFCURVE",
"170 297 CURVE",
"133 291 LINE",
"129 291 OFFCURVE",
"127 293 OFFCURVE",
"127 296 CURVE SMOOTH",
"127 648 LINE SMOOTH",
"127 653 OFFCURVE",
"129 656 OFFCURVE",
"133 658 CURVE",
"176 668 LINE",
"180 668 OFFCURVE",
"182 666 OFFCURVE",
"182 662 CURVE SMOOTH"
);
},
{
closed = 1;
nodes = (
"65 787 LINE",
"94 768 LINE",
"159 830 LINE",
"224 768 LINE",
"253 787 LINE",
"179 897 LINE",
"139 900 LINE"
);
}
);
width = 308;
}
);
unicode = 00E2;
},
{
color = 0;
glyphname = adieresis;
lastChange = "2013-12-03 23:01:42 -0500";
layers = (
{
layerId = UUID0;
name = Regular;
paths = (
{
closed = 1;
nodes = (
"234 710 LINE",
"76 710 LINE",
"31 0 LINE",
"93 0 LINE",
"115 228 LINE",
"195 266 LINE",
"231 0 LINE",
"275 0 LINE"
);
},
{
closed = 1;
nodes = (
"176 303 LINE SMOOTH",
"176 299 OFFCURVE",
"174 297 OFFCURVE",
"170 297 CURVE",
"133 291 LINE",
"129 291 OFFCURVE",
"127 293 OFFCURVE",
"127 296 CURVE SMOOTH",
"127 648 LINE SMOOTH",
"127 653 OFFCURVE",
"129 656 OFFCURVE",
"133 658 CURVE",
"176 668 LINE",
"180 668 OFFCURVE",
"182 666 OFFCURVE",
"182 662 CURVE SMOOTH"
);
},
{
closed = 1;
nodes = (
"39 815 LINE",
"118 815 LINE",
"122 898 LINE",
"39 895 LINE"
);
},
{
closed = 1;
nodes = (
"192 815 LINE",
"268 818 LINE",
"268 898 LINE",
"189 898 LINE"
);
}
);
width = 308;
}
);
unicode = 00E4;
},
{
color = 0;
glyphname = agrave;
lastChange = "2013-12-03 23:01:42 -0500";
layers = (
{
layerId = UUID0;
name = Regular;
paths = (
{
closed = 1;
nodes = (
"234 710 LINE",
"76 710 LINE",
"31 0 LINE",
"93 0 LINE",
"115 228 LINE",
"195 266 LINE",
"231 0 LINE",
"275 0 LINE"
);
},
{
closed = 1;
nodes = (
"176 303 LINE SMOOTH",
"176 299 OFFCURVE",
"174 297 OFFCURVE",
"170 297 CURVE",
"133 291 LINE",
"129 291 OFFCURVE",
"127 293 OFFCURVE",
"127 296 CURVE SMOOTH",
"127 648 LINE SMOOTH",
"127 653 OFFCURVE",
"129 656 OFFCURVE",
"133 658 CURVE",
"176 668 LINE",
"180 668 OFFCURVE",
"182 666 OFFCURVE",
"182 662 CURVE SMOOTH"
);
},
{
closed = 1;
nodes = (
"135 900 LINE",
"89 852 LINE",
"185 768 LINE",
"219 792 LINE"
);
}
);
width = 308;
}
);
unicode = 00E0;
},
{
color = 0;
glyphname = amacron;
lastChange = "2013-12-03 23:01:42 -0500";
layers = (
{
layerId = UUID0;
name = Regular;
paths = (
{
closed = 1;
nodes = (
"234 710 LINE",
"76 710 LINE",
"31 0 LINE",
"93 0 LINE",
"115 228 LINE",
"195 266 LINE",
"231 0 LINE",
"275 0 LINE"
);
},
{
closed = 1;
nodes = (
"176 303 LINE SMOOTH",
"176 299 OFFCURVE",
"174 297 OFFCURVE",
"170 297 CURVE",
"133 291 LINE",
"129 291 OFFCURVE",
"127 293 OFFCURVE",
"127 296 CURVE SMOOTH",
"127 648 LINE SMOOTH",
"127 653 OFFCURVE",
"129 656 OFFCURVE",
"133 658 CURVE",
"176 668 LINE",
"180 668 OFFCURVE",
"182 666 OFFCURVE",
"182 662 CURVE SMOOTH"
);
},
{
closed = 1;
nodes = (
"20 891 LINE",
"23 827 LINE",
"288 836 LINE",
"288 891 LINE"
);
}
);
width = 308;
}
);
unicode = 0101;
},
{
color = 0;
glyphname = aogonek;
lastChange = "2013-12-03 23:01:42 -0500";
layers = (
{
layerId = UUID0;
name = Regular;
paths = (
{
closed = 1;
nodes = (
"234 710 LINE",
"76 710 LINE",
"31 0 LINE",
"93 0 LINE",
"115 228 LINE",
"195 266 LINE",
"231 0 LINE",
"183 -95 LINE",
"271 -209 LINE",
"384 -146 LINE",
"368 -100 LINE",
"279 -145 LINE",
"245 -83 LINE",
"271 0 LINE",
"275 0 LINE"
);
},
{
closed = 1;
nodes = (
"176 303 LINE SMOOTH",
"176 299 OFFCURVE",
"174 297 OFFCURVE",
"170 297 CURVE",
"133 291 LINE",
"129 291 OFFCURVE",
"127 293 OFFCURVE",
"127 296 CURVE SMOOTH",
"127 648 LINE SMOOTH",
"127 653 OFFCURVE",
"129 656 OFFCURVE",
"133 658 CURVE",
"176 668 LINE",
"180 668 OFFCURVE",
"182 666 OFFCURVE",
"182 662 CURVE SMOOTH"
);
}
);
width = 308;
}
);
unicode = 0105;
},
{
color = 0;
glyphname = aring;
lastChange = "2013-12-03 23:01:42 -0500";
layers = (
{
layerId = UUID0;
name = Regular;
paths = (
{
closed = 1;
nodes = (
"234 710 LINE",
"76 710 LINE",
"31 0 LINE",
"93 0 LINE",
"115 228 LINE",
"195 266 LINE",
"231 0 LINE",
"275 0 LINE"
);
},
{
closed = 1;
nodes = (
"176 303 LINE SMOOTH",
"176 299 OFFCURVE",
"174 297 OFFCURVE",
"170 297 CURVE",
"133 291 LINE",
"129 291 OFFCURVE",
"127 293 OFFCURVE",
"127 296 CURVE SMOOTH",
"127 648 LINE SMOOTH",
"127 653 OFFCURVE",
"129 656 OFFCURVE",
"133 658 CURVE",
"176 668 LINE",
"180 668 OFFCURVE",
"182 666 OFFCURVE",
"182 662 CURVE SMOOTH"
);
},
{
closed = 1;
nodes = (
"93 900 LINE",
"93 765 LINE",
"207 765 LINE",
"232 791 LINE",
"232 900 LINE"
);
},
{
closed = 1;
nodes = (
"142 800 LINE SMOOTH",
"138 800 OFFCURVE",
"136 801 OFFCURVE",
"136 804 CURVE SMOOTH",
"136 870 LINE SMOOTH",
"136 872 OFFCURVE",
"139 873 OFFCURVE",
"144 873 CURVE",
"184 868 LINE",
"188 866 OFFCURVE",
"190 864 OFFCURVE",
"190 862 CURVE SMOOTH",
"190 806 LINE SMOOTH",
"190 802 OFFCURVE",
"188 800 OFFCURVE",
"183 800 CURVE SMOOTH"
);
}
);
width = 308;
}
);
unicode = 00E5;
},
{
color = 0;
glyphname = aringacute;
lastChange = "2013-12-03 23:01:42 -0500";
layers = (
{
layerId = UUID0;
name = Regular;
paths = (
{
closed = 1;
nodes = (
"84 810 LINE",
"84 710 LINE",
"76 710 LINE",
"31 0 LINE",
"93 0 LINE",
"115 228 LINE",
"195 266 LINE",
"231 0 LINE",
"275 0 LINE",
"234 710 LINE",
"223 710 LINE",
"223 810 LINE"
);
},
{
closed = 1;
nodes = (
"176 303 LINE SMOOTH",
"176 299 OFFCURVE",
"174 297 OFFCURVE",
"170 297 CURVE",
"133 291 LINE",
"129 291 OFFCURVE",
"127 293 OFFCURVE",
"127 296 CURVE SMOOTH",
"127 648 LINE SMOOTH",
"127 653 OFFCURVE",
"129 656 OFFCURVE",
"133 658 CURVE",
"176 668 LINE",
"180 668 OFFCURVE",
"182 666 OFFCURVE",
"182 662 CURVE SMOOTH"
);
},
{
closed = 1;
nodes = (
"88 861 LINE",
"104 823 LINE",
"230 845 LINE",
"221 900 LINE"
);
},
{
closed = 1;
nodes = (
"130 710 LINE SMOOTH",
"128 710 OFFCURVE",
"127 711 OFFCURVE",
"127 714 CURVE SMOOTH",
"127 780 LINE SMOOTH",
"127 782 OFFCURVE",
"130 783 OFFCURVE",
"135 783 CURVE",
"175 778 LINE",
"179 776 OFFCURVE",
"181 774 OFFCURVE",
"181 772 CURVE SMOOTH",
"181 716 LINE SMOOTH",
"181 712 OFFCURVE",
"179 710 OFFCURVE",
"174 710 CURVE SMOOTH"
);
}
);
width = 308;
}
);
unicode = 01FB;
},
{
color = 0;
glyphname = atilde;
lastChange = "2013-12-03 23:01:42 -0500";
layers = (
{
layerId = UUID0;
name = Regular;
paths = (
{
closed = 1;
nodes = (
"234 710 LINE",
"76 710 LINE",
"31 0 LINE",
"93 0 LINE",
"115 228 LINE",
"195 266 LINE",
"231 0 LINE",
"275 0 LINE"
);
},
{
closed = 1;
nodes = (
"176 303 LINE SMOOTH",
"176 299 OFFCURVE",
"174 297 OFFCURVE",
"170 297 CURVE",
"133 291 LINE",
"129 291 OFFCURVE",
"127 293 OFFCURVE",
"127 296 CURVE SMOOTH",
"127 648 LINE SMOOTH",
"127 653 OFFCURVE",
"129 656 OFFCURVE",
"133 658 CURVE",
"176 668 LINE",
"180 668 OFFCURVE",
"182 666 OFFCURVE",
"182 662 CURVE SMOOTH"
);
},
{
closed = 1;
nodes = (
"89 897 OFFCURVE",
"77 892 OFFCURVE",
"66 883 CURVE SMOOTH",
"40 860 LINE",
"43 791 LINE",
"111 844 LINE",
"155 813 LINE SMOOTH",
"172 801 OFFCURVE",
"185 794 OFFCURVE",
"200 794 CURVE SMOOTH",
"212 794 OFFCURVE",
"231 805 OFFCURVE",
"244 817 CURVE SMOOTH",
"268 840 LINE",
"268 900 LINE",
"196 852 LINE",
"158 877 LINE SMOOTH",
"142 888 OFFCURVE",
"123 897 OFFCURVE",
"104 897 CURVE SMOOTH"
);
}
);
width = 308;
}
);
unicode = 00E3;
},
{
color = 0;
glyphname = ae;
lastChange = "2013-12-03 23:01:42 -0500";
layers = (
{
anchors = (
{
name = top;
position = "{250, 492}";
}
);
layerId = UUID0;
name = Regular;
paths = (
{
closed = 1;
nodes = (
"445 83 LINE",
"303 75 LINE",
"303 362 LINE",
"445 356 LINE",
"445 404 LINE",
"286 427 LINE",
"286 654 LINE",
"445 648 LINE",
"445 710 LINE",
"116 710 LINE",
"31 0 LINE",
"93 0 LINE",
"145 228 LINE",
"231 268 LINE",
"231 0 LINE",
"445 0 LINE"
);
},
{
closed = 1;
nodes = (
"202 311 LINE SMOOTH",
"202 307 OFFCURVE",
"200 305 OFFCURVE",
"196 305 CURVE SMOOTH",
"163 305 LINE SMOOTH",
"159 305 OFFCURVE",
"157 307 OFFCURVE",
"157 310 CURVE SMOOTH",
"157 648 LINE SMOOTH",
"157 653 OFFCURVE",
"159 656 OFFCURVE",
"163 658 CURVE",
"206 668 LINE",
"210 668 OFFCURVE",
"212 666 OFFCURVE",
"212 662 CURVE SMOOTH"
);
}
);
width = 500;
}
);
unicode = 00E6;
},
{
color = 0;
glyphname = aeacute;
lastChange = "2013-12-03 23:01:42 -0500";
layers = (
{
layerId = UUID0;
name = Regular;
paths = (
{
closed = 1;
nodes = (
"445 83 LINE",
"303 75 LINE",
"303 362 LINE",
"445 356 LINE",
"445 404 LINE",
"286 427 LINE",
"286 654 LINE",
"445 648 LINE",
"445 710 LINE",
"116 710 LINE",
"31 0 LINE",
"93 0 LINE",
"145 228 LINE",
"231 268 LINE",
"231 0 LINE",
"445 0 LINE"
);
},
{
closed = 1;
nodes = (
"202 311 LINE SMOOTH",
"202 307 OFFCURVE",
"200 305 OFFCURVE",
"196 305 CURVE SMOOTH",
"163 305 LINE SMOOTH",
"159 305 OFFCURVE",
"157 307 OFFCURVE",
"157 310 CURVE SMOOTH",
"157 648 LINE SMOOTH",
"157 653 OFFCURVE",
"159 656 OFFCURVE",
"163 658 CURVE",
"206 668 LINE",
"210 668 OFFCURVE",
"212 666 OFFCURVE",
"212 662 CURVE SMOOTH"
);
},
{
closed = 1;
nodes = (
"213 792 LINE",
"247 768 LINE",
"343 852 LINE",
"297 900 LINE"
);
}
);
width = 500;
}
);
unicode = 01FD;
},
{
color = 0;
glyphname = b;
lastChange = "2013-12-03 23:01:42 -0500";
layers = (
{
layerId = UUID0;
name = Regular;
paths = (
{
closed = 1;
nodes = (
"281 447 LINE",
"281 648 LINE SMOOTH",
"281 688 OFFCURVE",
"224 710 OFFCURVE",
"183 710 CURVE SMOOTH",
"50 710 LINE",
"50 0 LINE",
"186 0 LINE SMOOTH",
"197 0 OFFCURVE",
"281 1 OFFCURVE",
"281 30 CURVE",
"301 282 LINE",
"301 331 OFFCURVE",
"261 359 OFFCURVE",
"240 364 CURVE"
);
},
{
closed = 1;
nodes = (
"113 645 LINE",
"201 649 LINE SMOOTH",
"210 649 OFFCURVE",
"215 648 OFFCURVE",
"215 645 CURVE SMOOTH",
"206 406 LINE",
"205 403 OFFCURVE",
"205 402 OFFCURVE",
"204 401 CURVE SMOOTH",
"201 398 OFFCURVE",
"199 397 OFFCURVE",
"197 397 CURVE SMOOTH",
"125 397 LINE SMOOTH",
"117 397 OFFCURVE",
"113 400 OFFCURVE",
"113 405 CURVE SMOOTH"
);
},
{
closed = 1;
nodes = (
"125 59 LINE",
"125 331 LINE",
"125 332 OFFCURVE",
"131 337 OFFCURVE",
"136 337 CURVE",
"212 327 LINE",
"217 327 OFFCURVE",
"219 326 OFFCURVE",
"219 324 CURVE SMOOTH",
"219 323 OFFCURVE",
"218 322 OFFCURVE",
"216 321 CURVE",
"216 116 LINE",
"217 116 OFFCURVE",
"218 114 OFFCURVE",
"218 110 CURVE SMOOTH",
"218 103 OFFCURVE",
"217 86 OFFCURVE",
"136 56 CURVE"
);
}
);
width = 342;
}
);
unicode = 0062;
},
{
color = 0;
glyphname = c;
lastChange = "2013-12-03 23:01:42 -0500";
layers = (
{
anchors = (
{
name = bottom;
position = "{167, 0}";
},
{
name = top;
position = "{167, 492}";
}
);
layerId = UUID0;
name = Regular;
paths = (
{
closed = 1;
nodes = (
"263 186 LINE",
"244 174 LINE",
"244 99 LINE SMOOTH",
"244 95 OFFCURVE",
"240 93 OFFCURVE",
"232 93 CURVE SMOOTH",
"133 93 LINE SMOOTH",
"129 93 OFFCURVE",
"124 93 OFFCURVE",
"124 96 CURVE SMOOTH",
"124 97 OFFCURVE",
"125 98 OFFCURVE",
"127 99 CURVE",
"127 567 LINE",
"125 568 OFFCURVE",
"124 572 OFFCURVE",
"124 580 CURVE SMOOTH",
"124 600 OFFCURVE",
"132 630 OFFCURVE",
"160 630 CURVE SMOOTH",
"222 630 LINE SMOOTH",
"230 630 OFFCURVE",
"234 627 OFFCURVE",
"234 621 CURVE SMOOTH",
"234 528 LINE",
"280 528 LINE",
"296 689 LINE",
"142 709 LINE SMOOTH",
"138 709 OFFCURVE",
"133 710 OFFCURVE",
"129 710 CURVE SMOOTH",
"85 710 OFFCURVE",
"63 680 OFFCURVE",
"62 653 CURVE SMOOTH",
"42 62 LINE",
"83 20 LINE",
"296 20 LINE",
"296 187 LINE"
);
}
);
width = 334;
}
);
unicode = 0063;
},
{
color = 0;
glyphname = cacute;
lastChange = "2013-12-03 23:01:42 -0500";
layers = (
{
layerId = UUID0;
name = Regular;
paths = (
{
closed = 1;
nodes = (
"263 186 LINE",
"244 174 LINE",
"244 99 LINE SMOOTH",
"244 95 OFFCURVE",
"240 93 OFFCURVE",
"232 93 CURVE SMOOTH",
"133 93 LINE SMOOTH",
"129 93 OFFCURVE",
"124 93 OFFCURVE",
"124 96 CURVE SMOOTH",
"124 97 OFFCURVE",
"125 98 OFFCURVE",
"127 99 CURVE",
"127 567 LINE",
"125 568 OFFCURVE",
"124 572 OFFCURVE",
"124 580 CURVE SMOOTH",
"124 600 OFFCURVE",
"132 630 OFFCURVE",
"160 630 CURVE SMOOTH",
"222 630 LINE SMOOTH",
"230 630 OFFCURVE",
"234 627 OFFCURVE",
"234 621 CURVE SMOOTH",
"234 528 LINE",
"280 528 LINE",
"296 689 LINE",
"142 709 LINE SMOOTH",
"138 709 OFFCURVE",
"133 710 OFFCURVE",
"129 710 CURVE SMOOTH",
"85 710 OFFCURVE",
"63 680 OFFCURVE",
"62 653 CURVE SMOOTH",
"42 62 LINE",
"83 20 LINE",
"296 20 LINE",
"296 187 LINE"
);
},
{
closed = 1;
nodes = (
"157 792 LINE",
"191 768 LINE",
"287 852 LINE",
"241 900 LINE"
);
}
);
width = 334;
}
);
unicode = 0107;
},
{
color = 0;
glyphname = ccaron;
lastChange = "2013-12-03 23:01:42 -0500";
layers = (
{
layerId = UUID0;
name = Regular;
paths = (
{
closed = 1;
nodes = (
"263 186 LINE",
"244 174 LINE",
"244 99 LINE SMOOTH",
"244 95 OFFCURVE",
"240 93 OFFCURVE",
"232 93 CURVE SMOOTH",
"133 93 LINE SMOOTH",
"129 93 OFFCURVE",
"124 93 OFFCURVE",
"124 96 CURVE SMOOTH",
"124 97 OFFCURVE",
"125 98 OFFCURVE",
"127 99 CURVE",
"127 567 LINE",
"125 568 OFFCURVE",
"124 572 OFFCURVE",
"124 580 CURVE SMOOTH",
"124 600 OFFCURVE",
"132 630 OFFCURVE",
"160 630 CURVE SMOOTH",
"222 630 LINE SMOOTH",
"230 630 OFFCURVE",
"234 627 OFFCURVE",
"234 621 CURVE SMOOTH",
"234 528 LINE",
"280 528 LINE",
"296 689 LINE",
"142 709 LINE SMOOTH",
"138 709 OFFCURVE",
"133 710 OFFCURVE",
"129 710 CURVE SMOOTH",
"85 710 OFFCURVE",
"63 680 OFFCURVE",
"62 653 CURVE SMOOTH",
"42 62 LINE",
"83 20 LINE",
"296 20 LINE",
"296 187 LINE"
);
},
{
closed = 1;
nodes = (
"299 881 LINE",
"270 900 LINE",
"205 838 LINE",
"140 900 LINE",
"111 881 LINE",
"185 771 LINE",
"225 768 LINE"
);
}
);
width = 334;
}
);
unicode = 010D;
},
{
color = 0;
glyphname = ccedilla;
lastChange = "2013-12-03 23:01:42 -0500";
layers = (
{
layerId = UUID0;
name = Regular;
paths = (
{
closed = 1;
nodes = (
"263 186 LINE",
"244 174 LINE",
"244 99 LINE SMOOTH",
"244 95 OFFCURVE",
"240 93 OFFCURVE",
"232 93 CURVE SMOOTH",
"133 93 LINE SMOOTH",
"129 93 OFFCURVE",
"124 93 OFFCURVE",
"124 96 CURVE SMOOTH",
"124 97 OFFCURVE",
"125 98 OFFCURVE",
"127 99 CURVE",
"127 567 LINE",
"125 568 OFFCURVE",
"124 572 OFFCURVE",
"124 580 CURVE SMOOTH",
"124 600 OFFCURVE",
"132 630 OFFCURVE",
"160 630 CURVE SMOOTH",
"222 630 LINE SMOOTH",
"230 630 OFFCURVE",
"234 627 OFFCURVE",
"234 621 CURVE SMOOTH",
"234 528 LINE",
"280 528 LINE",
"296 689 LINE",
"142 709 LINE SMOOTH",
"138 709 OFFCURVE",
"133 710 OFFCURVE",
"129 710 CURVE SMOOTH",
"85 710 OFFCURVE",
"63 680 OFFCURVE",
"62 653 CURVE SMOOTH",
"42 62 LINE",
"83 20 LINE",
"126 20 LINE",
"96 -89 LINE",
"201 -97 LINE",
"191 -150 LINE",
"62 -150 LINE",
"62 -208 LINE",
"185 -208 LINE SMOOTH",
"214 -208 OFFCURVE",
"249 -176 OFFCURVE",
"249 -148 CURVE",
"273 -45 LINE",
"161 -45 LINE",
"195 20 LINE",
"296 20 LINE",
"296 187 LINE"
);
}
);
width = 334;
}
);
unicode = 00E7;
},
{
color = 0;
glyphname = ccircumflex;
lastChange = "2013-12-03 23:01:42 -0500";
layers = (
{
layerId = UUID0;
name = Regular;
paths = (
{
closed = 1;
nodes = (
"263 186 LINE",
"244 174 LINE",
"244 99 LINE SMOOTH",
"244 95 OFFCURVE",
"240 93 OFFCURVE",
"232 93 CURVE SMOOTH",
"133 93 LINE SMOOTH",
"129 93 OFFCURVE",
"124 93 OFFCURVE",
"124 96 CURVE SMOOTH",
"124 97 OFFCURVE",
"125 98 OFFCURVE",
"127 99 CURVE",
"127 567 LINE",
"125 568 OFFCURVE",
"124 572 OFFCURVE",
"124 580 CURVE SMOOTH",
"124 600 OFFCURVE",
"132 630 OFFCURVE",
"160 630 CURVE SMOOTH",
"222 630 LINE SMOOTH",
"230 630 OFFCURVE",
"234 627 OFFCURVE",
"234 621 CURVE SMOOTH",
"234 528 LINE",
"280 528 LINE",
"296 689 LINE",
"142 709 LINE SMOOTH",
"138 709 OFFCURVE",
"133 710 OFFCURVE",
"129 710 CURVE SMOOTH",
"85 710 OFFCURVE",
"63 680 OFFCURVE",
"62 653 CURVE SMOOTH",
"42 62 LINE",
"83 20 LINE",
"296 20 LINE",
"296 187 LINE"
);
},
{
closed = 1;
nodes = (
"111 787 LINE",
"140 768 LINE",
"205 830 LINE",
"270 768 LINE",
"299 787 LINE",
"225 897 LINE",
"185 900 LINE"
);
}
);
width = 334;
}
);
unicode = 0109;
},
{
color = 0;
glyphname = cdotaccent;
lastChange = "2013-12-03 23:01:42 -0500";
layers = (
{
layerId = UUID0;
name = Regular;
paths = (
{
closed = 1;
nodes = (
"263 186 LINE",
"244 174 LINE",
"244 99 LINE SMOOTH",
"244 95 OFFCURVE",
"240 93 OFFCURVE",
"232 93 CURVE SMOOTH",
"133 93 LINE SMOOTH",
"129 93 OFFCURVE",
"124 93 OFFCURVE",
"124 96 CURVE SMOOTH",
"124 97 OFFCURVE",
"125 98 OFFCURVE",
"127 99 CURVE",
"127 567 LINE",
"125 568 OFFCURVE",
"124 572 OFFCURVE",
"124 580 CURVE SMOOTH",
"124 600 OFFCURVE",
"132 630 OFFCURVE",
"160 630 CURVE SMOOTH",
"222 630 LINE SMOOTH",
"230 630 OFFCURVE",
"234 627 OFFCURVE",
"234 621 CURVE SMOOTH",
"234 528 LINE",
"280 528 LINE",
"296 689 LINE",
"142 709 LINE SMOOTH",
"138 709 OFFCURVE",
"133 710 OFFCURVE",
"129 710 CURVE SMOOTH",
"85 710 OFFCURVE",
"63 680 OFFCURVE",
"62 653 CURVE SMOOTH",
"42 62 LINE",
"83 20 LINE",
"296 20 LINE",
"296 187 LINE"
);
},
{
closed = 1;
nodes = (
"166 802 LINE",
"255 805 LINE",
"255 900 LINE",
"162 900 LINE"
);
}
);
width = 334;
}
);
unicode = 010B;
},
{
color = 0;
glyphname = d;
lastChange = "2013-12-03 23:01:42 -0500";
layers = (
{
anchors = (
{
name = center;
position = "{167, 246}";
}
);
layerId = UUID0;
name = Regular;
paths = (
{
closed = 1;
nodes = (
"41 710 LINE",
"62 84 LINE",
"56 56 LINE",
"56 0 LINE",
"224 0 LINE SMOOTH",
"233 0 OFFCURVE",
"283 4 OFFCURVE",
"283 56 CURVE SMOOTH",
"283 678 LINE",
"206 710 LINE"
);
},
{
closed = 1;
nodes = (
"136 69 LINE SMOOTH",
"130 69 OFFCURVE",
"127 72 OFFCURVE",
"127 78 CURVE SMOOTH",
"127 638 LINE SMOOTH",
"127 644 OFFCURVE",
"130 647 OFFCURVE",
"136 647 CURVE SMOOTH",
"212 647 LINE SMOOTH",
"219 647 OFFCURVE",
"221 646 OFFCURVE",
"221 638 CURVE SMOOTH",
"201 131 LINE",
"198 76 OFFCURVE",
"185 69 OFFCURVE",
"168 69 CURVE SMOOTH"
);
}
);
width = 333;
}
);
unicode = 0064;
},
{
color = 0;
glyphname = eth;
lastChange = "2013-12-03 23:01:42 -0500";
layers = (
{
components = (
{
name = dcroat;
transform = "{1, 0, 0, 1, 0, 0}";
}
);
layerId = UUID0;
name = Regular;
width = 333;
},
{
associatedMasterId = UUID0;
layerId = "A1090F73-D440-4DFB-9A48-C571FAF1074C";
name = "Regular Mar 30 13, 18:44";
paths = (
{
closed = 1;
nodes = (
"158 531 LINE",
"224 362 LINE",
"143 362 LINE",
"49 328 LINE",
"49 0 LINE",
"299 0 LINE",
"283 387 LINE",
"209 562 LINE",
"288 609 LINE",
"263 655 LINE",
"188 613 LINE",
"140 728 LINE",
"91 704 LINE",
"137 584 LINE",
"37 528 LINE",
"63 474 LINE"
);
},
{
closed = 1;
nodes = (
"113 280 LINE",
"214 301 LINE",
"224 70 LINE",
"113 60 LINE"
);
}
);
width = 339;
}
);
unicode = 00F0;
},
{
color = 0;
glyphname = dcaron;
lastChange = "2013-12-03 23:01:42 -0500";
layers = (
{
layerId = UUID0;
name = Regular;
paths = (
{
closed = 1;
nodes = (
"41 710 LINE",
"62 84 LINE",
"56 56 LINE",
"56 0 LINE",
"224 0 LINE SMOOTH",
"233 0 OFFCURVE",
"283 4 OFFCURVE",
"283 56 CURVE SMOOTH",
"283 678 LINE",
"206 710 LINE"
);
},
{
closed = 1;
nodes = (
"136 69 LINE SMOOTH",
"130 69 OFFCURVE",
"127 72 OFFCURVE",
"127 78 CURVE SMOOTH",
"127 638 LINE SMOOTH",
"127 644 OFFCURVE",
"130 647 OFFCURVE",
"136 647 CURVE SMOOTH",
"212 647 LINE SMOOTH",
"219 647 OFFCURVE",
"221 646 OFFCURVE",
"221 638 CURVE SMOOTH",
"201 131 LINE",
"198 76 OFFCURVE",
"185 69 OFFCURVE",
"168 69 CURVE SMOOTH"
);
},
{
closed = 1;
nodes = (
"299 881 LINE",
"270 900 LINE",
"205 838 LINE",
"140 900 LINE",
"111 881 LINE",
"185 771 LINE",
"225 768 LINE"
);
}
);
width = 312;
}
);
unicode = 010F;
},
{
color = 0;
glyphname = dcroat;
lastChange = "2013-12-03 23:01:42 -0500";
layers = (
{
layerId = UUID0;
name = Regular;
paths = (
{
closed = 1;
nodes = (
"41 710 LINE",
"51 393 LINE",
"8 396 LINE",
"11 338 LINE",
"53 338 LINE",
"62 84 LINE",
"56 56 LINE",
"56 0 LINE",
"224 0 LINE SMOOTH",
"233 0 OFFCURVE",
"283 4 OFFCURVE",
"283 56 CURVE SMOOTH",
"283 678 LINE",
"206 710 LINE"
);
},
{
closed = 1;
nodes = (
"136 69 LINE SMOOTH",
"130 69 OFFCURVE",
"127 72 OFFCURVE",
"127 78 CURVE SMOOTH",
"127 338 LINE",
"176 338 LINE",
"176 387 LINE",
"127 389 LINE",
"127 638 LINE SMOOTH",
"127 644 OFFCURVE",
"130 647 OFFCURVE",
"136 647 CURVE SMOOTH",
"212 647 LINE SMOOTH",
"219 647 OFFCURVE",
"221 646 OFFCURVE",
"221 638 CURVE SMOOTH",
"201 131 LINE",
"198 76 OFFCURVE",
"185 69 OFFCURVE",
"168 69 CURVE SMOOTH"
);
}
);
width = 333;
}
);
unicode = 0111;
},
{
color = 0;
glyphname = ddotbelow;
lastChange = "2013-12-03 23:01:42 -0500";
layers = (
{
layerId = UUID0;
name = Regular;
paths = (
{
closed = 1;
nodes = (
"41 710 LINE",
"62 84 LINE",
"56 56 LINE",
"56 0 LINE",
"224 0 LINE SMOOTH",
"233 0 OFFCURVE",
"283 4 OFFCURVE",
"283 56 CURVE SMOOTH",
"283 678 LINE",
"206 710 LINE"
);
},
{
closed = 1;
nodes = (
"136 69 LINE SMOOTH",
"130 69 OFFCURVE",
"127 72 OFFCURVE",
"127 78 CURVE SMOOTH",
"127 638 LINE SMOOTH",
"127 644 OFFCURVE",
"130 647 OFFCURVE",
"136 647 CURVE SMOOTH",
"212 647 LINE SMOOTH",
"219 647 OFFCURVE",
"221 646 OFFCURVE",
"221 638 CURVE SMOOTH",
"201 131 LINE",
"198 76 OFFCURVE",
"185 69 OFFCURVE",
"168 69 CURVE SMOOTH"
);
},
{
closed = 1;
nodes = (
"117 -154 LINE",
"206 -151 LINE",
"206 -56 LINE",
"113 -56 LINE"
);
}
);
width = 333;
}
);
unicode = 1E0D;
},
{
color = 0;
glyphname = dz;
lastChange = "2013-12-03 23:01:42 -0500";
layers = (
{
layerId = UUID0;
name = Regular;
paths = (
{
closed = 1;
nodes = (
"41 710 LINE",
"62 84 LINE",
"56 56 LINE",
"56 0 LINE",
"224 0 LINE SMOOTH",
"233 0 OFFCURVE",
"283 4 OFFCURVE",
"283 56 CURVE SMOOTH",
"283 678 LINE",
"206 710 LINE"
);
},
{
closed = 1;
nodes = (
"136 69 LINE SMOOTH",
"130 69 OFFCURVE",
"127 72 OFFCURVE",
"127 78 CURVE SMOOTH",
"127 638 LINE SMOOTH",
"127 644 OFFCURVE",
"130 647 OFFCURVE",
"136 647 CURVE SMOOTH",
"212 647 LINE SMOOTH",
"219 647 OFFCURVE",
"221 646 OFFCURVE",
"221 638 CURVE SMOOTH",
"201 131 LINE",
"198 76 OFFCURVE",
"185 69 OFFCURVE",
"168 69 CURVE SMOOTH"
);
},
{
closed = 1;
nodes = (
"376 0 LINE",
"358 33 LINE",
"502 662 LINE",
"374 646 LINE",
"374 710 LINE",
"580 710 LINE",
"466 56 LINE",
"600 47 LINE",
"600 0 LINE"
);
}
);
width = 625;
}
);
unicode = 01F3;
},
{
color = 0;
glyphname = dzcaron;
lastChange = "2013-12-03 23:01:42 -0500";
layers = (
{
layerId = UUID0;
name = Regular;
paths = (
{
closed = 1;
nodes = (
"50 710 LINE",
"50 0 LINE",
"183 0 LINE",
"244 57 LINE",
"274 600 LINE",
"274 664 OFFCURVE",
"229 710 OFFCURVE",
"165 710 CURVE SMOOTH"
);
},
{
closed = 1;
nodes = (
"177 84 LINE SMOOTH",
"177 79 OFFCURVE",
"174 75 OFFCURVE",
"168 71 CURVE",
"131 66 LINE",
"122 72 LINE",
"122 638 LINE SMOOTH",
"122 641 OFFCURVE",
"128 644 OFFCURVE",
"131 644 CURVE SMOOTH",
"176 644 LINE SMOOTH",
"184 644 OFFCURVE",
"188 642 OFFCURVE",
"188 638 CURVE SMOOTH"
);
},
{
closed = 1;
nodes = (
"579 0 LINE",
"579 47 LINE",
"445 56 LINE",
"559 710 LINE",
"353 710 LINE",
"353 646 LINE",
"481 662 LINE",
"337 33 LINE",
"355 0 LINE"
);
},
{
closed = 1;
nodes = (
"557 881 LINE",
"528 900 LINE",
"463 838 LINE",
"398 900 LINE",
"369 881 LINE",
"443 771 LINE",
"483 768 LINE"
);
}
);
width = 604;
}
);
unicode = 01C6;
},
{
color = 0;
glyphname = e;
lastChange = "2013-12-03 23:01:42 -0500";
layers = (
{
anchors = (
{
name = bottom;
position = "{165, 0}";
},
{
name = ogonek;
position = "{297, 10}";
},
{
name = top;
position = "{165, 492}";
}
);
layerId = UUID0;
name = Regular;
paths = (
{
closed = 1;
nodes = (
"269 83 LINE",
"127 75 LINE",
"127 362 LINE",
"269 356 LINE",
"269 404 LINE",
"144 427 LINE",
"144 654 LINE",
"269 648 LINE",
"269 710 LINE",
"55 710 LINE",
"55 0 LINE",
"269 0 LINE"
);
}
);
width = 330;
}
);
unicode = 0065;
},
{
color = 0;
glyphname = eacute;
lastChange = "2013-12-03 23:01:42 -0500";
layers = (
{
layerId = UUID0;
name = Regular;
paths = (
{
closed = 1;
nodes = (
"269 83 LINE",
"127 75 LINE",
"127 362 LINE",
"269 356 LINE",
"269 404 LINE",
"144 427 LINE",
"144 654 LINE",
"269 648 LINE",
"269 710 LINE",
"55 710 LINE",
"55 0 LINE",
"269 0 LINE"
);
},
{
closed = 1;
nodes = (
"122 792 LINE",
"156 768 LINE",
"252 852 LINE",
"206 900 LINE"
);
}
);
width = 330;
}
);
unicode = 00E9;
},
{
color = 0;
glyphname = ebreve;
lastChange = "2013-12-03 23:01:42 -0500";
layers = (
{
layerId = UUID0;
name = Regular;
paths = (
{
closed = 1;
nodes = (
"269 83 LINE",
"127 75 LINE",
"127 362 LINE",
"269 356 LINE",
"269 404 LINE",
"144 427 LINE",
"144 654 LINE",
"269 648 LINE",
"269 710 LINE",
"55 710 LINE",
"55 0 LINE",
"269 0 LINE"
);
},
{
closed = 1;
nodes = (
"62 894 LINE",
"66 813 LINE",
"111 785 LINE",
"236 785 LINE",
"275 824 LINE",
"275 900 LINE",
"229 896 LINE",
"232 830 LINE",
"122 835 LINE",
"110 846 LINE",
"115 894 LINE"
);
}
);
width = 330;
}
);
unicode = 0115;
},
{
color = 0;
glyphname = ecaron;
lastChange = "2013-12-03 23:01:42 -0500";
layers = (
{
layerId = UUID0;
name = Regular;
paths = (
{
closed = 1;
nodes = (
"269 83 LINE",
"127 75 LINE",
"127 362 LINE",
"269 356 LINE",
"269 404 LINE",
"144 427 LINE",
"144 654 LINE",
"269 648 LINE",
"269 710 LINE",
"55 710 LINE",
"55 0 LINE",
"269 0 LINE"
);
},
{
closed = 1;
nodes = (
"267 881 LINE",
"238 900 LINE",
"173 838 LINE",
"108 900 LINE",
"79 881 LINE",
"153 771 LINE",
"193 768 LINE"
);
}
);
width = 330;
}
);
unicode = 011B;
},
{
color = 0;
glyphname = ecircumflex;
lastChange = "2013-12-03 23:01:42 -0500";
layers = (
{
layerId = UUID0;
name = Regular;
paths = (
{
closed = 1;
nodes = (
"269 83 LINE",
"127 75 LINE",
"127 362 LINE",
"269 356 LINE",
"269 404 LINE",
"144 427 LINE",
"144 654 LINE",
"269 648 LINE",
"269 710 LINE",
"55 710 LINE",
"55 0 LINE",
"269 0 LINE"
);
},
{
closed = 1;
nodes = (
"71 787 LINE",
"100 768 LINE",
"165 830 LINE",
"230 768 LINE",
"259 787 LINE",
"185 897 LINE",
"145 900 LINE"
);
}
);
width = 330;
}
);
unicode = 00EA;
},
{
color = 0;
glyphname = edieresis;
lastChange = "2013-12-03 23:01:42 -0500";
layers = (
{
layerId = UUID0;
name = Regular;
paths = (
{
closed = 1;
nodes = (
"269 83 LINE",
"127 75 LINE",
"127 362 LINE",
"269 356 LINE",
"269 404 LINE",
"144 427 LINE",
"144 654 LINE",
"269 648 LINE",
"269 710 LINE",
"55 710 LINE",
"55 0 LINE",
"269 0 LINE"
);
},
{
closed = 1;
nodes = (
"50 815 LINE",
"129 815 LINE",
"133 898 LINE",
"50 895 LINE"
);
},
{
closed = 1;
nodes = (
"203 815 LINE",
"279 818 LINE",
"279 898 LINE",
"200 898 LINE"
);
}
);
width = 330;
}
);
unicode = 00EB;
},
{
color = 0;
glyphname = edotaccent;
lastChange = "2013-12-03 23:01:42 -0500";
layers = (
{
layerId = UUID0;
name = Regular;
paths = (
{
closed = 1;
nodes = (
"269 83 LINE",
"127 75 LINE",
"127 362 LINE",
"269 356 LINE",
"269 404 LINE",
"144 427 LINE",
"144 654 LINE",
"269 648 LINE",
"269 710 LINE",
"55 710 LINE",
"55 0 LINE",
"269 0 LINE"
);
},
{
closed = 1;
nodes = (
"130 802 LINE",
"219 805 LINE",
"219 900 LINE",
"126 900 LINE"
);
}
);
width = 330;
}
);
unicode = 0117;
},
{
color = 0;
glyphname = edotbelow;
lastChange = "2013-12-03 23:01:42 -0500";
layers = (
{
layerId = UUID0;
name = Regular;
paths = (
{
closed = 1;
nodes = (
"269 83 LINE",
"127 75 LINE",
"127 362 LINE",
"269 356 LINE",
"269 404 LINE",
"144 427 LINE",
"144 654 LINE",
"269 648 LINE",
"269 710 LINE",
"55 710 LINE",
"55 0 LINE",
"269 0 LINE"
);
},
{
closed = 1;
nodes = (
"115 -154 LINE",
"204 -151 LINE",
"204 -56 LINE",
"111 -56 LINE"
);
}
);
width = 330;
}
);
unicode = 1EB9;
},
{
color = 0;
glyphname = egrave;
lastChange = "2013-12-03 23:01:42 -0500";
layers = (
{
layerId = UUID0;
name = Regular;
paths = (
{
closed = 1;
nodes = (
"269 83 LINE",
"127 75 LINE",
"127 362 LINE",
"269 356 LINE",
"269 404 LINE",
"144 427 LINE",
"144 654 LINE",
"269 648 LINE",
"269 710 LINE",
"55 710 LINE",
"55 0 LINE",
"269 0 LINE"
);
},
{
closed = 1;
nodes = (
"123 900 LINE",
"77 852 LINE",
"173 768 LINE",
"207 792 LINE"
);
}
);
width = 330;
}
);
unicode = 00E8;
},
{
color = 0;
glyphname = emacron;
lastChange = "2013-12-03 23:01:42 -0500";
layers = (
{
layerId = UUID0;
name = Regular;
paths = (
{
closed = 1;
nodes = (
"269 83 LINE",
"127 75 LINE",
"127 362 LINE",
"269 356 LINE",
"269 404 LINE",
"144 427 LINE",
"144 654 LINE",
"269 648 LINE",
"269 710 LINE",
"55 710 LINE",
"55 0 LINE",
"269 0 LINE"
);
},
{
closed = 1;
nodes = (
"31 891 LINE",
"34 827 LINE",
"299 836 LINE",
"299 891 LINE"
);
}
);
width = 330;
}
);
unicode = 0113;
},
{
color = 0;
glyphname = eogonek;
lastChange = "2013-12-03 23:01:42 -0500";
layers = (
{
layerId = UUID0;
name = Regular;
paths = (
{
closed = 1;
nodes = (
"269 83 LINE",
"127 75 LINE",
"127 362 LINE",
"269 356 LINE",
"269 404 LINE",
"144 427 LINE",
"144 654 LINE",
"269 648 LINE",
"269 710 LINE",
"55 710 LINE",
"55 0 LINE",
"126 0 LINE",
"78 -95 LINE",
"166 -209 LINE",
"279 -146 LINE",
"263 -100 LINE",
"174 -145 LINE",
"140 -83 LINE",
"166 0 LINE",
"269 0 LINE"
);
}
);
width = 330;
}
);
unicode = 0119;
},
{
color = 0;
glyphname = etilde;
lastChange = "2013-12-03 23:01:42 -0500";
layers = (
{
layerId = UUID0;
name = Regular;
paths = (
{
closed = 1;
nodes = (
"269 83 LINE",
"127 75 LINE",
"127 362 LINE",
"269 356 LINE",
"269 404 LINE",
"144 427 LINE",
"144 654 LINE",
"269 648 LINE",
"269 710 LINE",
"55 710 LINE",
"55 0 LINE",
"269 0 LINE"
);
},
{
closed = 1;
nodes = (
"107 897 OFFCURVE",
"95 892 OFFCURVE",
"84 883 CURVE SMOOTH",
"58 860 LINE",
"61 791 LINE",
"129 844 LINE",
"173 813 LINE SMOOTH",
"190 801 OFFCURVE",
"203 794 OFFCURVE",
"218 794 CURVE SMOOTH",
"230 794 OFFCURVE",
"249 805 OFFCURVE",
"262 817 CURVE SMOOTH",
"286 840 LINE",
"286 900 LINE",
"214 852 LINE",
"176 877 LINE SMOOTH",
"160 888 OFFCURVE",
"141 897 OFFCURVE",
"122 897 CURVE SMOOTH"
);
}
);
width = 330;
}
);
unicode = 1EBD;
},
{
color = 0;
glyphname = f;
lastChange = "2013-12-03 23:01:42 -0500";
layers = (
{
layerId = UUID0;
name = Regular;
paths = (
{
closed = 1;
nodes = (
"137 -20 LINE",
"117 372 LINE",
"269 389 LINE",
"269 447 LINE",
"134 447 LINE",
"134 616 LINE",
"269 628 LINE",
"269 690 LINE",
"55 710 LINE",
"55 -20 LINE"
);
}
);
width = 311;
}
);
unicode = 0066;
},
{
color = 0;
glyphname = g;
lastChange = "2013-12-03 23:01:42 -0500";
layers = (
{
anchors = (
{
name = top;
position = "{178, 492}";
}
);
layerId = UUID0;
name = Regular;
paths = (
{
closed = 1;
nodes = (
"321 333 LINE",
"219 343 LINE",
"219 106 LINE SMOOTH",
"219 98 OFFCURVE",
"207 94 OFFCURVE",
"199 94 CURVE SMOOTH",
"153 94 LINE SMOOTH",
"144 94 OFFCURVE",
"132 103 OFFCURVE",
"132 112 CURVE SMOOTH",
"115 630 LINE",
"227 655 LINE",
"227 559 LINE",
"271 559 LINE",
"289 668 LINE",
"289 710 LINE",
"89 710 LINE SMOOTH",
"60 710 OFFCURVE",
"41 687 OFFCURVE",
"40 656 CURVE",
"62 0 LINE",
"212 0 LINE SMOOTH",
"247 0 OFFCURVE",
"282 22 OFFCURVE",
"282 58 CURVE SMOOTH",
"282 277 LINE",
"321 294 LINE"
);
}
);
width = 356;
}
);
unicode = 0067;
},
{
color = 0;
glyphname = gbreve;
lastChange = "2013-12-03 23:01:42 -0500";
layers = (
{
layerId = UUID0;
name = Regular;
paths = (
{
closed = 1;
nodes = (
"321 333 LINE",
"219 343 LINE",
"219 106 LINE SMOOTH",
"219 98 OFFCURVE",
"207 94 OFFCURVE",
"199 94 CURVE SMOOTH",
"153 94 LINE SMOOTH",
"144 94 OFFCURVE",
"132 103 OFFCURVE",
"132 112 CURVE SMOOTH",
"115 630 LINE",
"227 655 LINE",
"227 559 LINE",
"271 559 LINE",
"289 668 LINE",
"289 710 LINE",
"89 710 LINE SMOOTH",
"60 710 OFFCURVE",
"41 687 OFFCURVE",
"40 656 CURVE",
"62 0 LINE",
"212 0 LINE SMOOTH",
"247 0 OFFCURVE",
"282 22 OFFCURVE",
"282 58 CURVE SMOOTH",
"282 277 LINE",
"321 294 LINE"
);
},
{
closed = 1;
nodes = (
"76 894 LINE",
"80 813 LINE",
"125 785 LINE",
"250 785 LINE",
"289 824 LINE",
"289 900 LINE",
"243 896 LINE",
"246 830 LINE",
"136 835 LINE",
"124 846 LINE",
"129 894 LINE"
);
}
);
width = 356;
}
);
unicode = 011F;
},
{
color = 0;
glyphname = gcircumflex;
lastChange = "2013-12-03 23:01:42 -0500";
layers = (
{
layerId = UUID0;
name = Regular;
paths = (
{
closed = 1;
nodes = (
"321 333 LINE",
"219 343 LINE",
"219 106 LINE SMOOTH",
"219 98 OFFCURVE",
"207 94 OFFCURVE",
"199 94 CURVE SMOOTH",
"153 94 LINE SMOOTH",
"144 94 OFFCURVE",
"132 103 OFFCURVE",
"132 112 CURVE SMOOTH",
"115 630 LINE",
"227 655 LINE",
"227 559 LINE",
"271 559 LINE",
"289 668 LINE",
"289 710 LINE",
"89 710 LINE SMOOTH",
"60 710 OFFCURVE",
"41 687 OFFCURVE",
"40 656 CURVE",
"62 0 LINE",
"212 0 LINE SMOOTH",
"247 0 OFFCURVE",
"282 22 OFFCURVE",
"282 58 CURVE SMOOTH",
"282 277 LINE",
"321 294 LINE"
);
},
{
closed = 1;
nodes = (
"84 787 LINE",
"113 768 LINE",
"178 830 LINE",
"243 768 LINE",
"272 787 LINE",
"198 897 LINE",
"158 900 LINE"
);
}
);
width = 356;
}
);
unicode = 011D;
},
{
color = 0;
glyphname = gcommaaccent;
lastChange = "2013-12-03 23:01:42 -0500";
layers = (
{
layerId = UUID0;
name = Regular;
paths = (
{
closed = 1;
nodes = (
"321 333 LINE",
"219 343 LINE",
"219 106 LINE SMOOTH",
"219 98 OFFCURVE",
"207 94 OFFCURVE",
"199 94 CURVE SMOOTH",
"153 94 LINE SMOOTH",
"144 94 OFFCURVE",
"132 103 OFFCURVE",
"132 112 CURVE SMOOTH",
"115 610 LINE",
"227 635 LINE",
"227 539 LINE",
"271 539 LINE",
"289 648 LINE",
"289 690 LINE",
"89 690 LINE SMOOTH",
"60 690 OFFCURVE",
"41 667 OFFCURVE",
"40 636 CURVE",
"62 0 LINE",
"212 0 LINE SMOOTH",
"247 0 OFFCURVE",
"282 22 OFFCURVE",
"282 58 CURVE SMOOTH",
"282 277 LINE",
"321 294 LINE"
);
},
{
closed = 1;
nodes = (
"148 -160 LINE",
"190 -160 LINE",
"144 -234 LINE",
"199 -250 LINE",
"232 -160 LINE",
"229 -78 LINE",
"148 -78 LINE"
);
}
);
width = 356;
}
);
unicode = 0123;
},
{
color = 0;
glyphname = gdotaccent;
lastChange = "2013-12-03 23:01:42 -0500";
layers = (
{
layerId = UUID0;
name = Regular;
paths = (
{
closed = 1;
nodes = (
"321 333 LINE",
"219 343 LINE",
"219 106 LINE SMOOTH",
"219 98 OFFCURVE",
"207 94 OFFCURVE",
"199 94 CURVE SMOOTH",
"153 94 LINE SMOOTH",
"144 94 OFFCURVE",
"132 103 OFFCURVE",
"132 112 CURVE SMOOTH",
"115 630 LINE",
"227 655 LINE",
"227 559 LINE",
"271 559 LINE",
"289 668 LINE",
"289 710 LINE",
"89 710 LINE SMOOTH",
"60 710 OFFCURVE",
"41 687 OFFCURVE",
"40 656 CURVE",
"62 0 LINE",
"212 0 LINE SMOOTH",
"247 0 OFFCURVE",
"282 22 OFFCURVE",
"282 58 CURVE SMOOTH",
"282 277 LINE",
"321 294 LINE"
);
},
{
closed = 1;
nodes = (
"142 802 LINE",
"231 805 LINE",
"231 900 LINE",
"138 900 LINE"
);
}
);
width = 356;
}
);
unicode = 0121;
},
{
color = 0;
glyphname = h;
lastChange = "2013-12-03 23:01:42 -0500";
layers = (
{
anchors = (
{
name = center;
position = "{167, 246}";
},
{
name = top;
position = "{167, 492}";
}
);
layerId = UUID0;
name = Regular;
paths = (
{
closed = 1;
nodes = (
"239 0 LINE",
"283 0 LINE",
"283 710 LINE",
"210 710 LINE",
"210 400 LINE",
"111 395 LINE",
"122 710 LINE",
"50 710 LINE",
"50 0 LINE",
"124 0 LINE",
"124 327 LINE",
"210 310 LINE"
);
}
);
width = 333;
}
);
unicode = 0068;
},
{
color = 0;
glyphname = hbar;
lastChange = "2013-12-03 23:01:42 -0500";
layers = (
{
layerId = UUID0;
name = Regular;
paths = (
{
closed = 1;
nodes = (
"239 0 LINE",
"283 0 LINE",
"283 710 LINE",
"210 710 LINE",
"210 400 LINE",
"111 395 LINE",
"116 540 LINE",
"319 543 LINE",
"319 592 LINE",
"118 592 LINE",
"122 710 LINE",
"50 710 LINE",
"50 592 LINE",
"2 592 LINE",
"5 534 LINE",
"50 536 LINE",
"50 0 LINE",
"124 0 LINE",
"124 327 LINE",
"210 310 LINE"
);
}
);
width = 333;
}
);
unicode = 0127;
},
{
color = 0;
glyphname = hcircumflex;
lastChange = "2013-12-03 23:01:42 -0500";
layers = (
{
layerId = UUID0;
name = Regular;
paths = (
{
closed = 1;
nodes = (
"239 0 LINE",
"283 0 LINE",
"283 710 LINE",
"210 710 LINE",
"210 400 LINE",
"111 395 LINE",
"122 710 LINE",
"50 710 LINE",
"50 0 LINE",
"124 0 LINE",
"124 327 LINE",
"210 310 LINE"
);
},
{
closed = 1;
nodes = (
"75 787 LINE",
"104 768 LINE",
"169 830 LINE",
"234 768 LINE",
"263 787 LINE",
"189 897 LINE",
"149 900 LINE"
);
}
);
width = 333;
}
);
unicode = 0125;
},
{
color = 0;
glyphname = hdotbelow;
lastChange = "2013-12-03 23:01:42 -0500";
layers = (
{
layerId = UUID0;
name = Regular;
paths = (
{
closed = 1;
nodes = (
"239 0 LINE",
"283 0 LINE",
"283 710 LINE",
"210 710 LINE",
"210 400 LINE",
"111 395 LINE",
"122 710 LINE",
"50 710 LINE",
"50 0 LINE",
"124 0 LINE",
"124 327 LINE",
"210 310 LINE"
);
},
{
closed = 1;
nodes = (
"132 -154 LINE",
"221 -151 LINE",
"221 -56 LINE",
"128 -56 LINE"
);
}
);
width = 333;
}
);
unicode = 1E25;
},
{
color = 0;
glyphname = i;
lastChange = "2013-12-03 23:01:42 -0500";
layers = (
{
layerId = UUID0;
name = Regular;
paths = (
{
closed = 1;
nodes = (
"113 710 LINE",
"50 710 LINE",
"50 20 LINE",
"134 20 LINE"
);
}
);
width = 175;
}
);
unicode = 0069;
},
{
color = 0;
glyphname = dotlessi;
lastChange = "2013-12-03 23:01:42 -0500";
layers = (
{
anchors = (
{
name = ogonek;
position = "{157, 10}";
},
{
name = top;
position = "{88, 492}";
}
);
layerId = UUID0;
name = Regular;
paths = (
{
closed = 1;
nodes = (
"113 710 LINE",
"50 710 LINE",
"50 0 LINE",
"134 0 LINE"
);
}
);
width = 175;
}
);
unicode = 0131;
},
{
color = 0;
glyphname = iacute;
lastChange = "2013-12-03 23:01:42 -0500";
layers = (
{
layerId = UUID0;
name = Regular;
paths = (
{
closed = 1;
nodes = (
"134 0 LINE",
"50 0 LINE",
"50 710 LINE",
"113 710 LINE"
);
},
{
closed = 1;
nodes = (
"22 792 LINE",
"56 768 LINE",
"152 852 LINE",
"106 900 LINE"
);
}
);
width = 175;
}
);
unicode = 00ED;
},
{
color = 0;
glyphname = ibreve;
lastChange = "2013-12-03 23:01:42 -0500";
layers = (
{
layerId = UUID0;
name = Regular;
paths = (
{
closed = 1;
nodes = (
"134 0 LINE",
"50 0 LINE",
"50 710 LINE",
"113 710 LINE"
);
},
{
closed = 1;
nodes = (
"-19 894 LINE",
"-15 813 LINE",
"30 785 LINE",
"155 785 LINE",
"194 824 LINE",
"194 900 LINE",
"148 896 LINE",
"151 830 LINE",
"41 835 LINE",
"29 846 LINE",
"34 894 LINE"
);
}
);
width = 175;
}
);
unicode = 012D;
},
{
color = 0;
glyphname = icircumflex;
lastChange = "2013-12-03 23:01:42 -0500";
layers = (
{
layerId = UUID0;
name = Regular;
paths = (
{
closed = 1;
nodes = (
"113 710 LINE",
"50 710 LINE",
"50 0 LINE",
"134 0 LINE"
);
},
{
closed = 1;
nodes = (
"-6 787 LINE",
"23 768 LINE",
"88 830 LINE",
"153 768 LINE",
"182 787 LINE",
"108 897 LINE",
"68 900 LINE"
);
}
);
width = 175;
}
);
unicode = 00EE;
},
{
color = 0;
glyphname = idieresis;
lastChange = "2013-12-03 23:01:42 -0500";
layers = (
{
layerId = UUID0;
name = Regular;
paths = (
{
closed = 1;
nodes = (
"134 0 LINE",
"50 0 LINE",
"50 710 LINE",
"113 710 LINE"
);
},
{
closed = 1;
nodes = (
"-27 815 LINE",
"52 815 LINE",
"56 898 LINE",
"-27 895 LINE"
);
},
{
closed = 1;
nodes = (
"126 815 LINE",
"202 818 LINE",
"202 898 LINE",
"123 898 LINE"
);
}
);
width = 175;
}
);
unicode = 00EF;
},
{
color = 0;
glyphname = idotbelow;
lastChange = "2013-12-03 23:01:42 -0500";
layers = (
{
layerId = UUID0;
name = Regular;
paths = (
{
closed = 1;
nodes = (
"113 710 LINE",
"50 710 LINE",
"50 20 LINE",
"134 20 LINE"
);
},
{
closed = 1;
nodes = (
"48 -154 LINE",
"137 -151 LINE",
"137 -56 LINE",
"44 -56 LINE"
);
}
);
width = 175;
}
);
unicode = 1ECB;
},
{
color = 0;
glyphname = igrave;
lastChange = "2013-12-03 23:01:42 -0500";
layers = (
{
layerId = UUID0;
name = Regular;
paths = (
{
closed = 1;
nodes = (
"113 710 LINE",
"50 710 LINE",
"50 0 LINE",
"134 0 LINE"
);
},
{
closed = 1;
nodes = (
"68 900 LINE",
"22 852 LINE",
"118 768 LINE",
"152 792 LINE"
);
}
);
width = 175;
}
);
unicode = 00EC;
},
{
color = 0;
glyphname = ij;
lastChange = "2013-12-03 23:01:42 -0500";
layers = (
{
layerId = UUID0;
name = Regular;
paths = (
{
closed = 1;
nodes = (
"113 710 LINE",
"50 710 LINE",
"50 20 LINE",
"134 20 LINE"
);
},
{
closed = 1;
nodes = (
"397 0 LINE",
"261 0 LINE SMOOTH",
"242 0 OFFCURVE",
"219 19 OFFCURVE",
"218 38 CURVE SMOOTH",
"210 172 LINE",
"259 172 LINE",
"264 94 LINE",
"339 89 LINE",
"339 696 LINE",
"379 710 LINE",
"416 710 LINE"
);
}
);
width = 460;
}
);
unicode = 0133;
},
{
color = 0;
glyphname = imacron;
lastChange = "2013-12-03 23:01:42 -0500";
layers = (
{
layerId = UUID0;
name = Regular;
paths = (
{
closed = 1;
nodes = (
"134 0 LINE",
"50 0 LINE",
"50 710 LINE",
"113 710 LINE"
);
},
{
closed = 1;
nodes = (
"-46 891 LINE",
"-43 827 LINE",
"222 836 LINE",
"222 891 LINE"
);
}
);
width = 175;
}
);
unicode = 012B;
},
{
color = 0;
glyphname = iogonek;
lastChange = "2013-12-03 23:01:42 -0500";
layers = (
{
layerId = UUID0;
name = Regular;
paths = (
{
closed = 1;
nodes = (
"113 710 LINE",
"50 710 LINE",
"50 20 LINE",
"103 20 LINE",
"45 -95 LINE",
"133 -209 LINE",
"246 -146 LINE",
"230 -100 LINE",
"141 -145 LINE",
"107 -83 LINE",
"133 0 LINE",
"133 20 LINE",
"134 20 LINE"
);
}
);
width = 175;
}
);
unicode = 012F;
},
{
color = 0;
glyphname = itilde;
lastChange = "2013-12-03 23:01:42 -0500";
layers = (
{
layerId = UUID0;
name = Regular;
paths = (
{
closed = 1;
nodes = (
"134 0 LINE",
"50 0 LINE",
"50 710 LINE",
"113 710 LINE"
);
},
{
closed = 1;
nodes = (
"23 897 OFFCURVE",
"11 892 OFFCURVE",
"0 883 CURVE SMOOTH",
"-26 860 LINE",
"-23 791 LINE",
"45 844 LINE",
"89 813 LINE SMOOTH",
"106 801 OFFCURVE",
"119 794 OFFCURVE",
"134 794 CURVE SMOOTH",
"146 794 OFFCURVE",
"165 805 OFFCURVE",
"178 817 CURVE SMOOTH",
"202 840 LINE",
"202 900 LINE",
"130 852 LINE",
"92 877 LINE SMOOTH",
"76 888 OFFCURVE",
"57 897 OFFCURVE",
"38 897 CURVE SMOOTH"
);
}
);
width = 175;
}
);
unicode = 0129;
},
{
color = 0;
glyphname = j;
lastChange = "2013-12-03 23:01:42 -0500";
layers = (
{
layerId = UUID0;
name = Regular;
paths = (
{
closed = 1;
nodes = (
"241 710 LINE",
"204 710 LINE",
"164 696 LINE",
"164 89 LINE",
"89 94 LINE",
"84 172 LINE",
"35 172 LINE",
"43 38 LINE SMOOTH",
"44 19 OFFCURVE",
"67 0 OFFCURVE",
"86 0 CURVE SMOOTH",
"222 0 LINE"
);
}
);
width = 285;
}
);
unicode = 006A;
},
{
color = 0;
glyphname = dotlessj;
lastChange = "2013-12-03 23:01:42 -0500";
layers = (
{
anchors = (
{
name = top;
position = "{143, 492}";
}
);
layerId = UUID0;
name = Regular;
paths = (
{
closed = 1;
nodes = (
"241 710 LINE",
"204 710 LINE",
"164 696 LINE",
"164 89 LINE",
"89 94 LINE",
"84 172 LINE",
"35 172 LINE",
"43 38 LINE SMOOTH",
"44 19 OFFCURVE",
"67 0 OFFCURVE",
"86 0 CURVE SMOOTH",
"222 0 LINE"
);
}
);
width = 285;
}
);
unicode = 0237;
},
{
color = 0;
glyphname = jcircumflex;
lastChange = "2013-12-03 23:01:42 -0500";
layers = (
{
layerId = UUID0;
name = Regular;
paths = (
{
closed = 1;
nodes = (
"241 710 LINE",
"204 710 LINE",
"164 696 LINE",
"164 89 LINE",
"89 94 LINE",
"84 172 LINE",
"35 172 LINE",
"43 38 LINE SMOOTH",
"44 19 OFFCURVE",
"67 0 OFFCURVE",
"86 0 CURVE SMOOTH",
"222 0 LINE"
);
},
{
closed = 1;
nodes = (
"106 787 LINE",
"135 768 LINE",
"200 830 LINE",
"265 768 LINE",
"294 787 LINE",
"220 897 LINE",
"180 900 LINE"
);
}
);
width = 285;
}
);
unicode = 0135;
},
{
color = 0;
glyphname = k;
lastChange = "2013-12-03 23:01:42 -0500";
layers = (
{
anchors = (
{
name = bottom;
position = "{151, 0}";
}
);
layerId = UUID0;
name = Regular;
paths = (
{
closed = 1;
nodes = (
"279 21 LINE",
"199 369 LINE",
"240 401 LINE",
"261 710 LINE",
"175 687 LINE",
"186 432 LINE",
"115 372 LINE",
"115 710 LINE",
"73 710 LINE",
"47 700 LINE",
"60 0 LINE",
"127 0 LINE",
"127 321 LINE",
"149 338 LINE",
"202 0 LINE",
"261 0 LINE"
);
}
);
width = 302;
}
);
unicode = 006B;
},
{
color = 0;
glyphname = kcommaaccent;
lastChange = "2013-12-03 23:01:42 -0500";
layers = (
{
layerId = UUID0;
name = Regular;
paths = (
{
closed = 1;
nodes = (
"279 21 LINE",
"199 369 LINE",
"240 401 LINE",
"261 710 LINE",
"175 687 LINE",
"186 432 LINE",
"115 372 LINE",
"115 710 LINE",
"73 710 LINE",
"47 700 LINE",
"60 0 LINE",
"127 0 LINE",
"127 321 LINE",
"149 338 LINE",
"202 0 LINE",
"261 0 LINE"
);
},
{
closed = 1;
nodes = (
"120 -160 LINE",
"162 -160 LINE",
"116 -234 LINE",
"171 -250 LINE",
"204 -160 LINE",
"201 -78 LINE",
"120 -78 LINE"
);
}
);
width = 302;
}
);
unicode = 0137;
},
{
color = 0;
glyphname = kgreenlandic;
lastChange = "2013-12-03 23:01:42 -0500";
layers = (
{
layerId = UUID0;
name = Regular;
paths = (
{
closed = 1;
nodes = (
"279 49 LINE",
"202 281 LINE",
"240 306 LINE",
"261 560 LINE",
"175 537 LINE",
"186 337 LINE",
"115 277 LINE",
"115 560 LINE",
"73 560 LINE",
"37 538 LINE",
"60 0 LINE",
"127 0 LINE",
"127 226 LINE",
"149 243 LINE",
"202 0 LINE",
"261 0 LINE"
);
}
);
width = 302;
}
);
unicode = 0138;
},
{
color = 0;
glyphname = l;
lastChange = "2013-12-03 23:01:42 -0500";
layers = (
{
anchors = (
{
name = bottom;
position = "{144, 0}";
},
{
name = top;
position = "{144, 492}";
},
{
name = topright;
position = "{267, 492}";
}
);
layerId = UUID0;
name = Regular;
paths = (
{
closed = 1;
nodes = (
"252 69 LINE",
"139 82 LINE",
"124 105 LINE",
"124 710 LINE",
"50 710 LINE",
"50 0 LINE",
"252 0 LINE"
);
}
);
width = 287;
}
);
unicode = 006C;
},
{
color = 0;
glyphname = lacute;
lastChange = "2013-12-03 23:01:42 -0500";
layers = (
{
layerId = UUID0;
name = Regular;
paths = (
{
closed = 1;
nodes = (
"252 0 LINE",
"50 0 LINE",
"50 710 LINE",
"124 710 LINE",
"124 105 LINE",
"139 82 LINE",
"252 69 LINE"
);
},
{
closed = 1;
nodes = (
"78 792 LINE",
"112 768 LINE",
"208 852 LINE",
"162 900 LINE"
);
}
);
width = 287;
}
);
unicode = 013A;
},
{
color = 0;
glyphname = lcaron;
lastChange = "2013-12-03 23:01:42 -0500";
layers = (
{
layerId = UUID0;
name = Regular;
paths = (
{
closed = 1;
nodes = (
"252 0 LINE",
"50 0 LINE",
"50 710 LINE",
"124 710 LINE",
"124 105 LINE",
"139 82 LINE",
"252 69 LINE"
);
},
{
closed = 1;
nodes = (
"205 657 LINE",
"154 582 LINE",
"197 567 LINE",
"265 657 LINE",
"259 753 LINE",
"173 749 LINE"
);
}
);
width = 289;
}
);
unicode = 013E;
},
{
color = 0;
glyphname = lcommaaccent;
lastChange = "2013-12-03 23:01:42 -0500";
layers = (
{
layerId = UUID0;
name = Regular;
paths = (
{
closed = 1;
nodes = (
"252 69 LINE",
"139 82 LINE",
"124 105 LINE",
"124 710 LINE",
"50 710 LINE",
"50 0 LINE",
"252 0 LINE"
);
},
{
closed = 1;
nodes = (
"103 -160 LINE",
"145 -160 LINE",
"99 -234 LINE",
"154 -250 LINE",
"187 -160 LINE",
"184 -78 LINE",
"103 -78 LINE"
);
}
);
width = 287;
}
);
unicode = 013C;
},
{
color = 0;
glyphname = ldot;
lastChange = "2013-12-03 23:01:42 -0500";
layers = (
{
layerId = UUID0;
name = Regular;
paths = (
{
closed = 1;
nodes = (
"252 69 LINE",
"139 82 LINE",
"124 105 LINE",
"124 710 LINE",
"50 710 LINE",
"50 0 LINE",
"252 0 LINE"
);
},
{
closed = 1;
nodes = (
"204 321 LINE",
"296 321 LINE",
"300 417 LINE",
"204 413 LINE"
);
}
);
width = 340;
}
);
unicode = 0140;
},
{
color = 0;
glyphname = lj;
lastChange = "2013-12-03 23:01:42 -0500";
layers = (
{
layerId = UUID0;
name = Regular;
paths = (
{
closed = 1;
nodes = (
"252 69 LINE",
"139 82 LINE",
"124 105 LINE",
"124 710 LINE",
"50 710 LINE",
"50 0 LINE",
"252 0 LINE"
);
},
{
closed = 1;
nodes = (
"528 710 LINE",
"491 710 LINE",
"451 696 LINE",
"451 89 LINE",
"376 94 LINE",
"371 172 LINE",
"322 172 LINE",
"330 38 LINE SMOOTH",
"331 19 OFFCURVE",
"354 0 OFFCURVE",
"373 0 CURVE SMOOTH",
"509 0 LINE"
);
}
);
width = 572;
}
);
unicode = 01C9;
},
{
color = 0;
glyphname = lslash;
lastChange = "2013-12-03 23:01:42 -0500";
layers = (
{
layerId = UUID0;
name = Regular;
paths = (
{
closed = 1;
nodes = (
"252 69 LINE",
"139 82 LINE",
"124 105 LINE",
"124 368 LINE",
"218 425 LINE",
"193 471 LINE",
"124 432 LINE",
"124 710 LINE",
"50 710 LINE",
"50 390 LINE",
"-33 344 LINE",
"-7 290 LINE",
"50 324 LINE",
"50 0 LINE",
"252 0 LINE"
);
}
);
width = 287;
}
);
unicode = 0142;
},
{
color = 0;
glyphname = m;
lastChange = "2013-12-03 23:01:42 -0500";
layers = (
{
layerId = UUID0;
name = Regular;
paths = (
{
closed = 1;
nodes = (
"102 0 LINE",
"102 589 LINE",
"106 589 LINE",
"177 150 LINE",
"210 157 LINE",
"279 535 LINE",
"286 535 LINE",
"286 0 LINE",
"352 0 LINE",
"329 710 LINE",
"271 710 LINE",
"203 276 LINE",
"195 276 LINE",
"122 710 LINE",
"50 710 LINE",
"50 0 LINE"
);
}
);
width = 394;
}
);
unicode = 006D;
},
{
color = 0;
glyphname = n;
lastChange = "2013-12-03 23:01:42 -0500";
layers = (
{
anchors = (
{
name = bottom;
position = "{168, 0}";
},
{
name = top;
position = "{168, 492}";
}
);
layerId = UUID0;
name = Regular;
paths = (
{
closed = 1;
nodes = (
"295 710 LINE",
"236 710 LINE",
"236 131 LINE",
"229 131 LINE",
"128 710 LINE",
"67 710 LINE",
"35 -20 LINE",
"86 -20 LINE",
"105 554 LINE",
"109 554 LINE",
"207 -20 LINE",
"275 -20 LINE"
);
}
);
width = 335;
}
);
unicode = 006E;
},
{
color = 0;
glyphname = nacute;
lastChange = "2013-12-03 23:01:42 -0500";
layers = (
{
layerId = UUID0;
name = Regular;
paths = (
{
closed = 1;
nodes = (
"275 -20 LINE",
"207 -20 LINE",
"109 554 LINE",
"105 554 LINE",
"86 -20 LINE",
"35 -20 LINE",
"67 710 LINE",
"128 710 LINE",
"229 131 LINE",
"236 131 LINE",
"236 710 LINE",
"295 710 LINE"
);
},
{
closed = 1;
nodes = (
"131 792 LINE",
"165 768 LINE",
"261 852 LINE",
"215 900 LINE"
);
}
);
width = 335;
}
);
unicode = 0144;
},
{
color = 0;
glyphname = napostrophe;
lastChange = "2013-12-03 23:01:42 -0500";
layers = (
{
layerId = UUID0;
name = Regular;
paths = (
{
closed = 1;
nodes = (
"405 710 LINE",
"346 710 LINE",
"346 131 LINE",
"339 131 LINE",
"238 710 LINE",
"177 710 LINE",
"145 -20 LINE",
"196 -20 LINE",
"215 554 LINE",
"219 554 LINE",
"317 -20 LINE",
"385 -20 LINE"
);
},
{
closed = 1;
nodes = (
"39 628 LINE",
"81 628 LINE",
"35 554 LINE",
"90 538 LINE",
"123 628 LINE",
"120 710 LINE",
"39 710 LINE"
);
}
);
width = 444;
}
);
unicode = 0149;
},
{
color = 0;
glyphname = ncaron;
lastChange = "2013-12-03 23:01:42 -0500";
layers = (
{
layerId = UUID0;
name = Regular;
paths = (
{
closed = 1;
nodes = (
"295 710 LINE",
"236 710 LINE",
"236 131 LINE",
"229 131 LINE",
"128 710 LINE",
"67 710 LINE",
"35 -20 LINE",
"86 -20 LINE",
"105 554 LINE",
"109 554 LINE",
"207 -20 LINE",
"275 -20 LINE"
);
},
{
closed = 1;
nodes = (
"261 881 LINE",
"232 900 LINE",
"167 838 LINE",
"102 900 LINE",
"73 881 LINE",
"147 771 LINE",
"187 768 LINE"
);
}
);
width = 335;
}
);
unicode = 0148;
},
{
color = 0;
glyphname = ncommaaccent;
lastChange = "2013-12-03 23:01:42 -0500";
layers = (
{
layerId = UUID0;
name = Regular;
paths = (
{
closed = 1;
nodes = (
"295 710 LINE",
"236 710 LINE",
"236 131 LINE",
"229 131 LINE",
"128 710 LINE",
"67 710 LINE",
"35 -20 LINE",
"86 -20 LINE",
"105 554 LINE",
"109 554 LINE",
"207 -20 LINE",
"275 -20 LINE"
);
},
{
closed = 1;
nodes = (
"127 -160 LINE",
"169 -160 LINE",
"123 -234 LINE",
"178 -250 LINE",
"211 -160 LINE",
"208 -78 LINE",
"127 -78 LINE"
);
}
);
width = 335;
}
);
unicode = 0146;
},
{
color = 0;
glyphname = ndotaccent;
lastChange = "2013-12-03 23:01:42 -0500";
layers = (
{
layerId = UUID0;
name = Regular;
paths = (
{
closed = 1;
nodes = (
"275 -20 LINE",
"207 -20 LINE",
"109 554 LINE",
"105 554 LINE",
"86 -20 LINE",
"35 -20 LINE",
"67 710 LINE",
"128 710 LINE",
"229 131 LINE",
"236 131 LINE",
"236 710 LINE",
"295 710 LINE"
);
},
{
closed = 1;
nodes = (
"140 802 LINE",
"229 805 LINE",
"229 900 LINE",
"136 900 LINE"
);
}
);
width = 335;
}
);
unicode = 1E45;
},
{
color = 0;
glyphname = eng;
lastChange = "2013-12-03 23:01:42 -0500";
layers = (
{
layerId = UUID0;
name = Regular;
paths = (
{
closed = 1;
nodes = (
"294 720 LINE",
"257 720 LINE",
"214 706 LINE",
"226 338 LINE",
"220 338 LINE",
"128 710 LINE",
"67 710 LINE",
"35 20 LINE",
"86 20 LINE",
"105 554 LINE",
"109 554 LINE",
"233 136 LINE",
"236 39 LINE",
"191 44 LINE",
"186 102 LINE",
"137 102 LINE",
"145 8 LINE SMOOTH",
"146 -11 OFFCURVE",
"169 -30 OFFCURVE",
"188 -30 CURVE SMOOTH",
"294 -30 LINE"
);
}
);
width = 335;
}
);
unicode = 014B;
},
{
color = 0;
glyphname = nj;
lastChange = "2013-12-03 23:01:42 -0500";
layers = (
{
layerId = UUID0;
name = Regular;
paths = (
{
closed = 1;
nodes = (
"295 710 LINE",
"236 710 LINE",
"236 131 LINE",
"229 131 LINE",
"128 710 LINE",
"67 710 LINE",
"35 -20 LINE",
"86 -20 LINE",
"105 554 LINE",
"109 554 LINE",
"207 -20 LINE",
"275 -20 LINE"
);
},
{
closed = 1;
nodes = (
"576 710 LINE",
"539 710 LINE",
"499 696 LINE",
"499 89 LINE",
"424 94 LINE",
"419 172 LINE",
"370 172 LINE",
"378 38 LINE SMOOTH",
"379 19 OFFCURVE",
"402 0 OFFCURVE",
"421 0 CURVE SMOOTH",
"557 0 LINE"
);
}
);
width = 620;
}
);
unicode = 01CC;
},
{
color = 0;
glyphname = ntilde;
lastChange = "2013-12-03 23:01:42 -0500";
layers = (
{
layerId = UUID0;
name = Regular;
paths = (
{
closed = 1;
nodes = (
"275 -20 LINE",
"207 -20 LINE",
"109 554 LINE",
"105 554 LINE",
"86 -20 LINE",
"35 -20 LINE",
"67 710 LINE",
"128 710 LINE",
"229 131 LINE",
"236 131 LINE",
"236 710 LINE",
"295 710 LINE"
);
},
{
closed = 1;
nodes = (
"125 897 OFFCURVE",
"113 892 OFFCURVE",
"102 883 CURVE SMOOTH",
"76 860 LINE",
"79 791 LINE",
"147 844 LINE",
"191 813 LINE SMOOTH",
"208 801 OFFCURVE",
"221 794 OFFCURVE",
"236 794 CURVE SMOOTH",
"248 794 OFFCURVE",
"267 805 OFFCURVE",
"280 817 CURVE SMOOTH",
"304 840 LINE",
"304 900 LINE",
"232 852 LINE",
"194 877 LINE SMOOTH",
"178 888 OFFCURVE",
"159 897 OFFCURVE",
"140 897 CURVE SMOOTH"
);
}
);
width = 335;
}
);
unicode = 00F1;
},
{
color = 0;
glyphname = o;
lastChange = "2013-12-03 23:01:42 -0500";
layers = (
{
anchors = (
{
name = top;
position = "{156, 492}";
}
);
layerId = UUID0;
name = Regular;
paths = (
{
closed = 1;
nodes = (
"262 662 LINE SMOOTH",
"262 689 OFFCURVE",
"238 710 OFFCURVE",
"201 710 CURVE SMOOTH",
"120 710 OFFCURVE",
"78 702 OFFCURVE",
"49 686 CURVE",
"49 56 LINE SMOOTH",
"49 17 OFFCURVE",
"66 0 OFFCURVE",
"122 0 CURVE SMOOTH",
"255 0 LINE"
);
},
{
closed = 1;
nodes = (
"119 640 LINE",
"128 646 LINE",
"190 643 LINE",
"196 642 OFFCURVE",
"199 640 OFFCURVE",
"199 637 CURVE SMOOTH",
"193 66 LINE",
"184 57 LINE",
"113 63 LINE"
);
}
);
width = 312;
}
);
unicode = 006F;
},
{
color = 0;
glyphname = oacute;
lastChange = "2013-12-03 23:01:42 -0500";
layers = (
{
layerId = UUID0;
name = Regular;
paths = (
{
closed = 1;
nodes = (
"262 662 LINE SMOOTH",
"262 689 OFFCURVE",
"238 710 OFFCURVE",
"201 710 CURVE SMOOTH",
"120 710 OFFCURVE",
"78 702 OFFCURVE",
"49 686 CURVE",
"49 56 LINE SMOOTH",
"49 17 OFFCURVE",
"66 0 OFFCURVE",
"122 0 CURVE SMOOTH",
"255 0 LINE"
);
},
{
closed = 1;
nodes = (
"119 640 LINE",
"128 646 LINE",
"190 643 LINE",
"196 642 OFFCURVE",
"199 640 OFFCURVE",
"199 637 CURVE SMOOTH",
"193 66 LINE",
"184 57 LINE",
"113 63 LINE"
);
},
{
closed = 1;
nodes = (
"114 792 LINE",
"148 768 LINE",
"244 852 LINE",
"198 900 LINE"
);
}
);
width = 312;
}
);
unicode = 00F3;
},
{
color = 0;
glyphname = obreve;
lastChange = "2013-12-03 23:01:42 -0500";
layers = (
{
layerId = UUID0;
name = Regular;
paths = (
{
closed = 1;
nodes = (
"262 662 LINE SMOOTH",
"262 689 OFFCURVE",
"238 710 OFFCURVE",
"201 710 CURVE SMOOTH",
"120 710 OFFCURVE",
"78 702 OFFCURVE",
"49 686 CURVE",
"49 56 LINE SMOOTH",
"49 17 OFFCURVE",
"66 0 OFFCURVE",
"122 0 CURVE SMOOTH",
"255 0 LINE"
);
},
{
closed = 1;
nodes = (
"119 640 LINE",
"128 646 LINE",
"190 643 LINE",
"196 642 OFFCURVE",
"199 640 OFFCURVE",
"199 637 CURVE SMOOTH",
"193 66 LINE",
"184 57 LINE",
"113 63 LINE"
);
},
{
closed = 1;
nodes = (
"56 894 LINE",
"60 813 LINE",
"105 785 LINE",
"230 785 LINE",
"269 824 LINE",
"269 900 LINE",
"223 896 LINE",
"226 830 LINE",
"116 835 LINE",
"104 846 LINE",
"109 894 LINE"
);
}
);
width = 312;
}
);
unicode = 014F;
},
{
color = 0;
glyphname = ocircumflex;
lastChange = "2013-12-03 23:01:42 -0500";
layers = (
{
layerId = UUID0;
name = Regular;
paths = (
{
closed = 1;
nodes = (
"262 662 LINE SMOOTH",
"262 689 OFFCURVE",
"238 710 OFFCURVE",
"201 710 CURVE SMOOTH",
"120 710 OFFCURVE",
"78 702 OFFCURVE",
"49 686 CURVE",
"49 56 LINE SMOOTH",
"49 17 OFFCURVE",
"66 0 OFFCURVE",
"122 0 CURVE SMOOTH",
"255 0 LINE"
);
},
{
closed = 1;
nodes = (
"119 640 LINE",
"128 646 LINE",
"190 643 LINE",
"196 642 OFFCURVE",
"199 640 OFFCURVE",
"199 637 CURVE SMOOTH",
"193 66 LINE",
"184 57 LINE",
"113 63 LINE"
);
},
{
closed = 1;
nodes = (
"62 787 LINE",
"91 768 LINE",
"156 830 LINE",
"221 768 LINE",
"250 787 LINE",
"176 897 LINE",
"136 900 LINE"
);
}
);
width = 312;
}
);
unicode = 00F4;
},
{
color = 0;
glyphname = odieresis;
lastChange = "2013-12-03 23:01:42 -0500";
layers = (
{
layerId = UUID0;
name = Regular;
paths = (
{
closed = 1;
nodes = (
"262 662 LINE SMOOTH",
"262 689 OFFCURVE",
"238 710 OFFCURVE",
"201 710 CURVE SMOOTH",
"120 710 OFFCURVE",
"78 702 OFFCURVE",
"49 686 CURVE",
"49 56 LINE SMOOTH",
"49 17 OFFCURVE",
"66 0 OFFCURVE",
"122 0 CURVE SMOOTH",
"255 0 LINE"
);
},
{
closed = 1;
nodes = (
"119 640 LINE",
"128 646 LINE",
"190 643 LINE",
"196 642 OFFCURVE",
"199 640 OFFCURVE",
"199 637 CURVE SMOOTH",
"193 66 LINE",
"184 57 LINE",
"113 63 LINE"
);
},
{
closed = 1;
nodes = (
"41 815 LINE",
"120 815 LINE",
"124 898 LINE",
"41 895 LINE"
);
},
{
closed = 1;
nodes = (
"194 815 LINE",
"270 818 LINE",
"270 898 LINE",
"191 898 LINE"
);
}
);
width = 312;
}
);
unicode = 00F6;
},
{
color = 0;
glyphname = odotbelow;
lastChange = "2013-12-03 23:01:42 -0500";
layers = (
{
layerId = UUID0;
name = Regular;
paths = (
{
closed = 1;
nodes = (
"262 662 LINE SMOOTH",
"262 689 OFFCURVE",
"238 710 OFFCURVE",
"201 710 CURVE SMOOTH",
"120 710 OFFCURVE",
"78 702 OFFCURVE",
"49 686 CURVE",
"49 56 LINE SMOOTH",
"49 17 OFFCURVE",
"66 0 OFFCURVE",
"122 0 CURVE SMOOTH",
"255 0 LINE"
);
},
{
closed = 1;
nodes = (
"119 640 LINE",
"128 646 LINE",
"190 643 LINE",
"196 642 OFFCURVE",
"199 640 OFFCURVE",
"199 637 CURVE SMOOTH",
"193 66 LINE",
"184 57 LINE",
"113 63 LINE"
);
},
{
closed = 1;
nodes = (
"113 -154 LINE",
"202 -151 LINE",
"202 -56 LINE",
"109 -56 LINE"
);
}
);
width = 312;
}
);
unicode = 1ECD;
},
{
color = 0;
glyphname = ograve;
lastChange = "2013-12-03 23:01:42 -0500";
layers = (
{
layerId = UUID0;
name = Regular;
paths = (
{
closed = 1;
nodes = (
"262 662 LINE SMOOTH",
"262 689 OFFCURVE",
"238 710 OFFCURVE",
"201 710 CURVE SMOOTH",
"120 710 OFFCURVE",
"78 702 OFFCURVE",
"49 686 CURVE",
"49 56 LINE SMOOTH",
"49 17 OFFCURVE",
"66 0 OFFCURVE",
"122 0 CURVE SMOOTH",
"255 0 LINE"
);
},
{
closed = 1;
nodes = (
"119 640 LINE",
"128 646 LINE",
"190 643 LINE",
"196 642 OFFCURVE",
"199 640 OFFCURVE",
"199 637 CURVE SMOOTH",
"193 66 LINE",
"184 57 LINE",
"113 63 LINE"
);
},
{
closed = 1;
nodes = (
"140 900 LINE",
"94 852 LINE",
"190 768 LINE",
"224 792 LINE"
);
}
);
width = 312;
}
);
unicode = 00F2;
},
{
color = 0;
glyphname = ohungarumlaut;
lastChange = "2013-12-03 23:01:42 -0500";
layers = (
{
layerId = UUID0;
name = Regular;
paths = (
{
closed = 1;
nodes = (
"262 662 LINE SMOOTH",
"262 689 OFFCURVE",
"238 710 OFFCURVE",
"201 710 CURVE SMOOTH",
"120 710 OFFCURVE",
"78 702 OFFCURVE",
"49 686 CURVE",
"49 56 LINE SMOOTH",
"49 17 OFFCURVE",
"66 0 OFFCURVE",
"122 0 CURVE SMOOTH",
"255 0 LINE"
);
},
{
closed = 1;
nodes = (
"119 640 LINE",
"128 646 LINE",
"190 643 LINE",
"196 642 OFFCURVE",
"199 640 OFFCURVE",
"199 637 CURVE SMOOTH",
"193 66 LINE",
"184 57 LINE",
"113 63 LINE"
);
},
{
closed = 1;
nodes = (
"37 792 LINE",
"71 768 LINE",
"167 852 LINE",
"121 900 LINE"
);
},
{
closed = 1;
nodes = (
"167 792 LINE",
"201 768 LINE",
"297 852 LINE",
"251 900 LINE"
);
}
);
width = 312;
}
);
unicode = 0151;
},
{
color = 0;
glyphname = omacron;
lastChange = "2013-12-03 23:01:42 -0500";
layers = (
{
layerId = UUID0;
name = Regular;
paths = (
{
closed = 1;
nodes = (
"262 662 LINE SMOOTH",
"262 689 OFFCURVE",
"238 710 OFFCURVE",
"201 710 CURVE SMOOTH",
"120 710 OFFCURVE",
"78 702 OFFCURVE",
"49 686 CURVE",
"49 56 LINE SMOOTH",
"49 17 OFFCURVE",
"66 0 OFFCURVE",
"122 0 CURVE SMOOTH",
"255 0 LINE"
);
},
{
closed = 1;
nodes = (
"119 640 LINE",
"128 646 LINE",
"190 643 LINE",
"196 642 OFFCURVE",
"199 640 OFFCURVE",
"199 637 CURVE SMOOTH",
"193 66 LINE",
"184 57 LINE",
"113 63 LINE"
);
},
{
closed = 1;
nodes = (
"22 891 LINE",
"25 827 LINE",
"290 836 LINE",
"290 891 LINE"
);
}
);
width = 312;
}
);
unicode = 014D;
},
{
color = 0;
glyphname = oogonek;
lastChange = "2013-12-03 23:01:42 -0500";
layers = (
{
layerId = UUID0;
name = Regular;
paths = (
{
closed = 1;
nodes = (
"262 662 LINE SMOOTH",
"262 689 OFFCURVE",
"238 710 OFFCURVE",
"201 710 CURVE SMOOTH",
"120 710 OFFCURVE",
"78 702 OFFCURVE",
"49 686 CURVE",
"49 56 LINE SMOOTH",
"49 17 OFFCURVE",
"65 0 OFFCURVE",
"119 0 CURVE",
"71 -95 LINE",
"159 -209 LINE",
"272 -146 LINE",
"256 -100 LINE",
"167 -145 LINE",
"133 -83 LINE",
"159 0 LINE",
"255 0 LINE"
);
},
{
closed = 1;
nodes = (
"119 640 LINE",
"128 646 LINE",
"190 643 LINE",
"196 642 OFFCURVE",
"199 640 OFFCURVE",
"199 637 CURVE SMOOTH",
"193 66 LINE",
"184 57 LINE",
"113 63 LINE"
);
}
);
width = 312;
}
);
unicode = 01EB;
},
{
color = 0;
glyphname = oslash;
lastChange = "2013-12-03 23:01:42 -0500";
layers = (
{
anchors = (
{
name = top;
position = "{156, 492}";
}
);
layerId = UUID0;
name = Regular;
paths = (
{
closed = 1;
nodes = (
"292 776 LINE",
"256 789 LINE",
"231 699 LINE",
"207 706 OFFCURVE",
"170 710 OFFCURVE",
"110 710 CURVE SMOOTH",
"73 710 OFFCURVE",
"49 696 OFFCURVE",
"49 685 CURVE SMOOTH",
"58 58 LINE",
"23 -72 LINE",
"66 -88 LINE",
"89 0 LINE",
"208 0 LINE SMOOTH",
"248 0 OFFCURVE",
"262 14 OFFCURVE",
"262 37 CURVE SMOOTH",
"262 661 LINE"
);
},
{
closed = 1;
nodes = (
"186 639 LINE",
"195 633 LINE",
"196 568 LINE",
"116 272 LINE",
"104 643 LINE SMOOTH",
"104 646 OFFCURVE",
"107 648 OFFCURVE",
"113 649 CURVE"
);
},
{
closed = 1;
nodes = (
"205 77 LINE",
"132 52 LINE",
"123 61 LINE",
"121 122 LINE",
"198 419 LINE"
);
}
);
width = 312;
}
);
unicode = 00F8;
},
{
color = 0;
glyphname = oslashacute;
lastChange = "2013-12-03 23:01:42 -0500";
layers = (
{
layerId = UUID0;
name = Regular;
paths = (
{
closed = 1;
nodes = (
"292 776 LINE",
"256 789 LINE",
"231 699 LINE",
"207 706 OFFCURVE",
"170 710 OFFCURVE",
"110 710 CURVE SMOOTH",
"73 710 OFFCURVE",
"49 696 OFFCURVE",
"49 685 CURVE SMOOTH",
"58 58 LINE",
"23 -72 LINE",
"66 -88 LINE",
"89 0 LINE",
"208 0 LINE SMOOTH",
"248 0 OFFCURVE",
"262 14 OFFCURVE",
"262 37 CURVE SMOOTH",
"262 661 LINE"
);
},
{
closed = 1;
nodes = (
"186 639 LINE",
"195 633 LINE",
"196 568 LINE",
"116 272 LINE",
"104 643 LINE SMOOTH",
"104 646 OFFCURVE",
"107 648 OFFCURVE",
"113 649 CURVE"
);
},
{
closed = 1;
nodes = (
"205 77 LINE",
"132 52 LINE",
"123 61 LINE",
"121 122 LINE",
"198 419 LINE"
);
},
{
closed = 1;
nodes = (
"100 792 LINE",
"134 768 LINE",
"230 852 LINE",
"184 900 LINE"
);
}
);
width = 312;
}
);
unicode = 01FF;
},
{
color = 0;
glyphname = otilde;
lastChange = "2013-12-03 23:01:42 -0500";
layers = (
{
layerId = UUID0;
name = Regular;
paths = (
{
closed = 1;
nodes = (
"262 662 LINE SMOOTH",
"262 689 OFFCURVE",
"238 710 OFFCURVE",
"201 710 CURVE SMOOTH",
"120 710 OFFCURVE",
"78 702 OFFCURVE",
"49 686 CURVE",
"49 56 LINE SMOOTH",
"49 17 OFFCURVE",
"66 0 OFFCURVE",
"122 0 CURVE SMOOTH",
"255 0 LINE"
);
},
{
closed = 1;
nodes = (
"119 640 LINE",
"128 646 LINE",
"190 643 LINE",
"196 642 OFFCURVE",
"199 640 OFFCURVE",
"199 637 CURVE SMOOTH",
"193 66 LINE",
"184 57 LINE",
"113 63 LINE"
);
},
{
closed = 1;
nodes = (
"99 897 OFFCURVE",
"87 892 OFFCURVE",
"76 883 CURVE SMOOTH",
"50 860 LINE",
"53 791 LINE",
"121 844 LINE",
"165 813 LINE SMOOTH",
"182 801 OFFCURVE",
"195 794 OFFCURVE",
"210 794 CURVE SMOOTH",
"222 794 OFFCURVE",
"241 805 OFFCURVE",
"254 817 CURVE SMOOTH",
"278 840 LINE",
"278 900 LINE",
"206 852 LINE",
"168 877 LINE SMOOTH",
"152 888 OFFCURVE",
"133 897 OFFCURVE",
"114 897 CURVE SMOOTH"
);
}
);
width = 312;
}
);
unicode = 00F5;
},
{
color = 0;
glyphname = oe;
lastChange = "2013-12-03 23:01:42 -0500";
layers = (
{
anchors = (
{
name = top;
position = "{230, 492}";
}
);
layerId = UUID0;
name = Regular;
paths = (
{
closed = 1;
nodes = (
"419 83 LINE",
"277 75 LINE",
"277 362 LINE",
"419 356 LINE",
"419 404 LINE",
"294 427 LINE",
"294 654 LINE",
"419 648 LINE",
"419 710 LINE",
"235 703 LINE",
"225 707 OFFCURVE",
"214 710 OFFCURVE",
"201 710 CURVE SMOOTH",
"120 710 OFFCURVE",
"78 702 OFFCURVE",
"49 686 CURVE",
"49 56 LINE SMOOTH",
"49 17 OFFCURVE",
"66 0 OFFCURVE",
"122 0 CURVE SMOOTH",
"419 0 LINE"
);
},
{
closed = 1;
nodes = (
"119 640 LINE",
"128 646 LINE",
"190 643 LINE",
"196 642 OFFCURVE",
"199 640 OFFCURVE",
"199 637 CURVE SMOOTH",
"193 66 LINE",
"184 57 LINE",
"113 63 LINE"
);
}
);
width = 459;
}
);
unicode = 0153;
},
{
color = 0;
glyphname = p;
lastChange = "2013-12-03 23:01:42 -0500";
layers = (
{
layerId = UUID0;
name = Regular;
paths = (
{
closed = 1;
nodes = (
"35 0 LINE",
"104 0 LINE",
"112 306 LINE",
"222 317 LINE",
"257 379 LINE",
"246 689 LINE SMOOTH",
"246 704 OFFCURVE",
"225 710 OFFCURVE",
"210 710 CURVE SMOOTH",
"167 710 LINE SMOOTH",
"127 710 OFFCURVE",
"58 701 OFFCURVE",
"58 687 CURVE SMOOTH"
);
},
{
closed = 1;
nodes = (
"118 658 LINE",
"174 665 LINE",
"189 650 LINE",
"189 391 LINE SMOOTH",
"189 387 OFFCURVE",
"187 385 OFFCURVE",
"183 385 CURVE SMOOTH",
"118 382 LINE"
);
}
);
width = 292;
}
);
unicode = 0070;
},
{
color = 0;
glyphname = thorn;
lastChange = "2013-12-03 23:01:42 -0500";
layers = (
{
layerId = UUID0;
name = Regular;
paths = (
{
closed = 1;
nodes = (
"35 0 LINE",
"81 0 LINE",
"102 156 LINE",
"222 167 LINE",
"257 229 LINE",
"246 539 LINE SMOOTH",
"246 554 OFFCURVE",
"225 560 OFFCURVE",
"210 560 CURVE SMOOTH",
"167 560 LINE SMOOTH",
"154 560 OFFCURVE",
"130 557 OFFCURVE",
"115 554 CURVE",
"115 710 LINE",
"65 710 LINE"
);
},
{
closed = 1;
nodes = (
"118 508 LINE",
"174 515 LINE",
"189 500 LINE",
"189 231 LINE SMOOTH",
"189 227 OFFCURVE",
"187 225 OFFCURVE",
"183 225 CURVE SMOOTH",
"118 222 LINE"
);
}
);
width = 292;
}
);
unicode = 00FE;
},
{
color = 0;
glyphname = q;
lastChange = "2013-12-03 23:01:42 -0500";
layers = (
{
layerId = UUID0;
name = Regular;
paths = (
{
closed = 1;
nodes = (
"50 0 LINE",
"113 0 LINE",
"192 -121 LINE",
"217 -134 LINE",
"276 -114 LINE",
"166 0 LINE",
"203 0 LINE SMOOTH",
"243 0 OFFCURVE",
"257 14 OFFCURVE",
"257 37 CURVE SMOOTH",
"257 685 LINE SMOOTH",
"257 692 OFFCURVE",
"223 710 OFFCURVE",
"111 710 CURVE SMOOTH",
"74 710 OFFCURVE",
"50 696 OFFCURVE",
"50 685 CURVE SMOOTH"
);
},
{
closed = 1;
nodes = (
"200 65 LINE",
"122 52 LINE",
"110 61 LINE",
"130 633 LINE SMOOTH",
"130 636 OFFCURVE",
"133 638 OFFCURVE",
"139 639 CURVE",
"191 639 LINE",
"200 633 LINE"
);
}
);
width = 307;
}
);
unicode = 0071;
},
{
color = 0;
glyphname = r;
lastChange = "2013-12-03 23:01:42 -0500";
layers = (
{
anchors = (
{
name = bottom;
position = "{160, 0}";
},
{
name = top;
position = "{160, 492}";
}
);
layerId = UUID0;
name = Regular;
paths = (
{
closed = 1;
nodes = (
"50 0 LINE",
"96 0 LINE",
"117 306 LINE",
"168 311 LINE",
"219 0 LINE",
"278 0 LINE",
"297 22 LINE",
"217 320 LINE",
"262 379 LINE",
"252 667 LINE SMOOTH",
"251 692 OFFCURVE",
"236 710 OFFCURVE",
"215 710 CURVE SMOOTH",
"172 710 LINE SMOOTH",
"132 710 OFFCURVE",
"50 707 OFFCURVE",
"50 699 CURVE SMOOTH"
);
},
{
closed = 1;
nodes = (
"110 648 LINE",
"179 655 LINE",
"194 640 LINE",
"194 391 LINE SMOOTH",
"194 387 OFFCURVE",
"192 385 OFFCURVE",
"188 385 CURVE SMOOTH",
"113 381 LINE"
);
}
);
width = 319;
}
);
unicode = 0072;
},
{
color = 0;
glyphname = racute;
lastChange = "2013-12-03 23:01:42 -0500";
layers = (
{
layerId = UUID0;
name = Regular;
paths = (
{
closed = 1;
nodes = (
"50 0 LINE",
"96 0 LINE",
"117 306 LINE",
"168 311 LINE",
"219 0 LINE",
"278 0 LINE",
"297 22 LINE",
"217 320 LINE",
"262 379 LINE",
"252 667 LINE SMOOTH",
"251 692 OFFCURVE",
"236 710 OFFCURVE",
"215 710 CURVE SMOOTH",
"172 710 LINE SMOOTH",
"132 710 OFFCURVE",
"50 707 OFFCURVE",
"50 699 CURVE SMOOTH"
);
},
{
closed = 1;
nodes = (
"110 648 LINE",
"179 655 LINE",
"194 640 LINE",
"194 391 LINE SMOOTH",
"194 387 OFFCURVE",
"192 385 OFFCURVE",
"188 385 CURVE SMOOTH",
"113 381 LINE"
);
},
{
closed = 1;
nodes = (
"104 792 LINE",
"138 768 LINE",
"234 852 LINE",
"188 900 LINE"
);
}
);
width = 319;
}
);
unicode = 0155;
},
{
color = 0;
glyphname = rcaron;
lastChange = "2013-12-03 23:01:42 -0500";
layers = (
{
layerId = UUID0;
name = Regular;
paths = (
{
closed = 1;
nodes = (
"50 0 LINE",
"96 0 LINE",
"117 306 LINE",
"168 311 LINE",
"219 0 LINE",
"278 0 LINE",
"297 22 LINE",
"217 320 LINE",
"262 379 LINE",
"252 667 LINE SMOOTH",
"251 692 OFFCURVE",
"236 710 OFFCURVE",
"215 710 CURVE SMOOTH",
"172 710 LINE SMOOTH",
"132 710 OFFCURVE",
"50 707 OFFCURVE",
"50 699 CURVE SMOOTH"
);
},
{
closed = 1;
nodes = (
"110 648 LINE",
"179 655 LINE",
"194 640 LINE",
"194 391 LINE SMOOTH",
"194 387 OFFCURVE",
"192 385 OFFCURVE",
"188 385 CURVE SMOOTH",
"113 381 LINE"
);
},
{
closed = 1;
nodes = (
"246 881 LINE",
"217 900 LINE",
"152 838 LINE",
"87 900 LINE",
"58 881 LINE",
"132 771 LINE",
"172 768 LINE"
);
}
);
width = 319;
}
);
unicode = 0159;
},
{
color = 0;
glyphname = rcommaaccent;
lastChange = "2013-12-03 23:01:42 -0500";
layers = (
{
layerId = UUID0;
name = Regular;
paths = (
{
closed = 1;
nodes = (
"50 0 LINE",
"96 0 LINE",
"117 306 LINE",
"168 311 LINE",
"219 0 LINE",
"278 0 LINE",
"297 22 LINE",
"217 320 LINE",
"262 379 LINE",
"252 667 LINE SMOOTH",
"251 692 OFFCURVE",
"236 710 OFFCURVE",
"215 710 CURVE SMOOTH",
"172 710 LINE SMOOTH",
"132 710 OFFCURVE",
"50 707 OFFCURVE",
"50 699 CURVE SMOOTH"
);
},
{
closed = 1;
nodes = (
"110 648 LINE",
"179 655 LINE",
"194 640 LINE",
"194 391 LINE SMOOTH",
"194 387 OFFCURVE",
"192 385 OFFCURVE",
"188 385 CURVE SMOOTH",
"113 381 LINE"
);
},
{
closed = 1;
nodes = (
"119 -160 LINE",
"161 -160 LINE",
"115 -234 LINE",
"170 -250 LINE",
"203 -160 LINE",
"200 -78 LINE",
"119 -78 LINE"
);
}
);
width = 319;
}
);
unicode = 0157;
},
{
color = 0;
glyphname = rdotbelow;
lastChange = "2013-12-03 23:01:42 -0500";
layers = (
{
layerId = UUID0;
name = Regular;
paths = (
{
closed = 1;
nodes = (
"50 0 LINE",
"96 0 LINE",
"117 306 LINE",
"168 311 LINE",
"219 0 LINE",
"278 0 LINE",
"297 22 LINE",
"217 320 LINE",
"262 379 LINE",
"252 667 LINE SMOOTH",
"251 692 OFFCURVE",
"236 710 OFFCURVE",
"215 710 CURVE SMOOTH",
"172 710 LINE SMOOTH",
"132 710 OFFCURVE",
"50 707 OFFCURVE",
"50 699 CURVE SMOOTH"
);
},
{
closed = 1;
nodes = (
"110 648 LINE",
"179 655 LINE",
"194 640 LINE",
"194 391 LINE SMOOTH",
"194 387 OFFCURVE",
"192 385 OFFCURVE",
"188 385 CURVE SMOOTH",
"113 381 LINE"
);
},
{
closed = 1;
nodes = (
"114 -154 LINE",
"203 -151 LINE",
"203 -56 LINE",
"110 -56 LINE"
);
}
);
width = 319;
}
);
unicode = 1E5B;
},
{
color = 0;
glyphname = s;
lastChange = "2013-12-03 23:01:42 -0500";
layers = (
{
anchors = (
{
name = bottom;
position = "{145, 0}";
},
{
name = top;
position = "{145, 492}";
}
);
layerId = UUID0;
name = Regular;
paths = (
{
closed = 1;
nodes = (
"244 710 LINE",
"87 710 LINE",
"47 686 LINE",
"47 364 LINE",
"182 334 LINE",
"166 68 LINE",
"96 84 LINE",
"97 171 LINE",
"38 171 LINE",
"47 0 LINE",
"164 0 LINE SMOOTH",
"192 0 OFFCURVE",
"238 32 OFFCURVE",
"238 60 CURVE",
"252 392 LINE",
"107 418 LINE",
"122 640 LINE",
"182 647 LINE",
"202 569 LINE",
"239 569 LINE"
);
}
);
width = 289;
}
);
unicode = 0073;
},
{
color = 0;
glyphname = sacute;
lastChange = "2013-12-03 23:01:42 -0500";
layers = (
{
layerId = UUID0;
name = Regular;
paths = (
{
closed = 1;
nodes = (
"244 710 LINE",
"87 710 LINE",
"47 686 LINE",
"47 364 LINE",
"182 334 LINE",
"166 68 LINE",
"96 84 LINE",
"97 171 LINE",
"38 171 LINE",
"47 0 LINE",
"164 0 LINE SMOOTH",
"192 0 OFFCURVE",
"238 32 OFFCURVE",
"238 60 CURVE",
"252 392 LINE",
"107 418 LINE",
"122 640 LINE",
"182 647 LINE",
"202 569 LINE",
"239 569 LINE"
);
},
{
closed = 1;
nodes = (
"105 792 LINE",
"139 768 LINE",
"235 852 LINE",
"189 900 LINE"
);
}
);
width = 289;
}
);
unicode = 015B;
},
{
color = 0;
glyphname = scaron;
lastChange = "2013-12-03 23:01:42 -0500";
layers = (
{
layerId = UUID0;
name = Regular;
paths = (
{
closed = 1;
nodes = (
"244 710 LINE",
"87 710 LINE",
"47 686 LINE",
"47 364 LINE",
"182 334 LINE",
"166 68 LINE",
"96 84 LINE",
"97 171 LINE",
"38 171 LINE",
"47 0 LINE",
"164 0 LINE SMOOTH",
"192 0 OFFCURVE",
"238 32 OFFCURVE",
"238 60 CURVE",
"252 392 LINE",
"107 418 LINE",
"122 640 LINE",
"182 647 LINE",
"202 569 LINE",
"239 569 LINE"
);
},
{
closed = 1;
nodes = (
"255 881 LINE",
"226 900 LINE",
"161 838 LINE",
"96 900 LINE",
"67 881 LINE",
"141 771 LINE",
"181 768 LINE"
);
}
);
width = 289;
}
);
unicode = 0161;
},
{
color = 0;
glyphname = scedilla;
lastChange = "2013-12-03 23:01:42 -0500";
layers = (
{
layerId = UUID0;
name = Regular;
paths = (
{
closed = 1;
nodes = (
"244 710 LINE",
"87 710 LINE",
"47 686 LINE",
"47 364 LINE",
"182 334 LINE",
"166 68 LINE",
"96 84 LINE",
"97 171 LINE",
"38 171 LINE",
"47 0 LINE",
"95 0 LINE",
"70 -89 LINE",
"175 -97 LINE",
"165 -150 LINE",
"36 -150 LINE",
"36 -208 LINE",
"159 -208 LINE SMOOTH",
"188 -208 OFFCURVE",
"223 -176 OFFCURVE",
"223 -148 CURVE",
"247 -45 LINE",
"135 -45 LINE",
"158 0 LINE",
"164 0 LINE SMOOTH",
"192 0 OFFCURVE",
"238 32 OFFCURVE",
"238 60 CURVE",
"252 392 LINE",
"107 418 LINE",
"122 640 LINE",
"182 647 LINE",
"202 569 LINE",
"239 569 LINE"
);
}
);
width = 289;
}
);
unicode = 015F;
},
{
color = 0;
glyphname = scircumflex;
lastChange = "2013-12-03 23:01:42 -0500";
layers = (
{
layerId = UUID0;
name = Regular;
paths = (
{
closed = 1;
nodes = (
"244 710 LINE",
"87 710 LINE",
"47 686 LINE",
"47 364 LINE",
"182 334 LINE",
"166 68 LINE",
"96 84 LINE",
"97 171 LINE",
"38 171 LINE",
"47 0 LINE",
"164 0 LINE SMOOTH",
"192 0 OFFCURVE",
"238 32 OFFCURVE",
"238 60 CURVE",
"252 392 LINE",
"107 418 LINE",
"122 640 LINE",
"182 647 LINE",
"202 569 LINE",
"239 569 LINE"
);
},
{
closed = 1;
nodes = (
"64 787 LINE",
"93 768 LINE",
"158 830 LINE",
"223 768 LINE",
"252 787 LINE",
"178 897 LINE",
"138 900 LINE"
);
}
);
width = 289;
}
);
unicode = 015D;
},
{
color = 0;
glyphname = scommaaccent;
lastChange = "2013-12-03 23:01:42 -0500";
layers = (
{
layerId = UUID0;
name = Regular;
paths = (
{
closed = 1;
nodes = (
"244 710 LINE",
"87 710 LINE",
"47 686 LINE",
"47 364 LINE",
"182 334 LINE",
"166 68 LINE",
"96 84 LINE",
"97 171 LINE",
"38 171 LINE",
"47 0 LINE",
"164 0 LINE SMOOTH",
"192 0 OFFCURVE",
"238 32 OFFCURVE",
"238 60 CURVE",
"252 392 LINE",
"107 418 LINE",
"122 640 LINE",
"182 647 LINE",
"202 569 LINE",
"239 569 LINE"
);
},
{
closed = 1;
nodes = (
"96 -160 LINE",
"138 -160 LINE",
"92 -234 LINE",
"147 -250 LINE",
"180 -160 LINE",
"177 -78 LINE",
"96 -78 LINE"
);
}
);
width = 289;
}
);
unicode = 0219;
},
{
color = 0;
glyphname = sdotbelow;
lastChange = "2013-12-03 23:01:42 -0500";
layers = (
{
layerId = UUID0;
name = Regular;
paths = (
{
closed = 1;
nodes = (
"244 710 LINE",
"87 710 LINE",
"47 686 LINE",
"47 364 LINE",
"182 334 LINE",
"166 68 LINE",
"96 84 LINE",
"97 171 LINE",
"38 171 LINE",
"47 0 LINE",
"164 0 LINE SMOOTH",
"192 0 OFFCURVE",
"238 32 OFFCURVE",
"238 60 CURVE",
"252 392 LINE",
"107 418 LINE",
"122 640 LINE",
"182 647 LINE",
"202 569 LINE",
"239 569 LINE"
);
},
{
closed = 1;
nodes = (
"96 -154 LINE",
"185 -151 LINE",
"185 -56 LINE",
"92 -56 LINE"
);
}
);
width = 289;
}
);
unicode = 1E63;
},
{
color = 0;
glyphname = germandbls;
lastChange = "2013-12-03 23:01:42 -0500";
layers = (
{
layerId = UUID0;
name = Regular;
paths = (
{
closed = 1;
nodes = (
"239 379 LINE",
"238 384 LINE",
"341 601 LINE",
"229 710 LINE",
"156 710 LINE",
"55 640 LINE",
"55 -1 LINE",
"137 -1 LINE",
"116 616 LINE",
"212 640 LINE",
"237 602 LINE",
"171 389 LINE",
"197 326 LINE",
"306 296 LINE",
"306 68 LINE",
"244 84 LINE",
"252 171 LINE",
"185 171 LINE",
"197 0 LINE",
"300 0 LINE SMOOTH",
"329 0 OFFCURVE",
"371 32 OFFCURVE",
"374 60 CURVE",
"374 365 LINE"
);
}
);
width = 435;
}
);
unicode = 00DF;
},
{
color = 0;
glyphname = longs;
lastChange = "2013-12-03 23:01:42 -0500";
layers = (
{
layerId = UUID0;
name = Regular;
paths = (
{
closed = 1;
nodes = (
"137 -20 LINE",
"110 616 LINE",
"269 628 LINE",
"269 690 LINE",
"55 710 LINE",
"55 -20 LINE"
);
}
);
width = 311;
}
);
unicode = 017F;
},
{
color = 0;
glyphname = schwa;
lastChange = "2013-12-03 23:01:42 -0500";
layers = (
{
layerId = UUID0;
name = Regular;
paths = (
{
closed = 1;
nodes = (
"52 387 LINE",
"52 58 LINE SMOOTH",
"52 22 OFFCURVE",
"87 0 OFFCURVE",
"122 0 CURVE SMOOTH",
"272 0 LINE",
"294 656 LINE",
"293 687 OFFCURVE",
"274 710 OFFCURVE",
"245 710 CURVE SMOOTH",
"45 710 LINE",
"45 668 LINE",
"219 630 LINE",
"211 387 LINE"
);
},
{
closed = 1;
nodes = (
"135 94 LINE SMOOTH",
"127 94 OFFCURVE",
"115 98 OFFCURVE",
"115 106 CURVE SMOOTH",
"115 317 LINE",
"209 329 LINE",
"202 112 LINE SMOOTH",
"202 103 OFFCURVE",
"190 94 OFFCURVE",
"181 94 CURVE"
);
}
);
width = 328;
}
);
unicode = 0259;
},
{
color = 0;
glyphname = t;
lastChange = "2013-12-03 23:01:42 -0500";
layers = (
{
anchors = (
{
name = bottom;
position = "{138, 0}";
},
{
name = center;
position = "{138, 246}";
}
);
layerId = UUID0;
name = Regular;
paths = (
{
closed = 1;
nodes = (
"38 710 LINE",
"25 639 LINE",
"97 615 LINE",
"77 0 LINE",
"162 0 LINE",
"162 633 LINE",
"250 633 LINE",
"245 696 LINE"
);
}
);
width = 275;
}
);
unicode = 0074;
},
{
color = 0;
glyphname = tbar;
lastChange = "2013-12-03 23:01:42 -0500";
layers = (
{
layerId = UUID0;
name = Regular;
paths = (
{
closed = 1;
nodes = (
"4 492 LINE",
"7 428 LINE",
"91 431 LINE",
"77 0 LINE",
"162 0 LINE",
"162 433 LINE",
"272 437 LINE",
"272 492 LINE",
"162 492 LINE",
"162 633 LINE",
"250 633 LINE",
"245 696 LINE",
"38 710 LINE",
"25 639 LINE",
"97 615 LINE",
"93 492 LINE"
);
}
);
width = 275;
}
);
unicode = 0167;
},
{
color = 0;
glyphname = tcaron;
lastChange = "2013-12-03 23:01:42 -0500";
layers = (
{
layerId = UUID0;
name = Regular;
paths = (
{
closed = 1;
nodes = (
"38 710 LINE",
"25 639 LINE",
"97 615 LINE",
"77 0 LINE",
"162 0 LINE",
"162 633 LINE",
"250 633 LINE",
"245 696 LINE"
);
},
{
closed = 1;
nodes = (
"233 881 LINE",
"204 900 LINE",
"139 838 LINE",
"74 900 LINE",
"45 881 LINE",
"119 771 LINE",
"159 768 LINE"
);
}
);
width = 275;
}
);
unicode = 0165;
},
{
color = 0;
glyphname = tcedilla;
lastChange = "2013-12-03 23:01:42 -0500";
layers = (
{
layerId = UUID0;
name = Regular;
paths = (
{
closed = 1;
nodes = (
"38 710 LINE",
"25 639 LINE",
"97 615 LINE",
"77 0 LINE",
"52 -89 LINE",
"157 -97 LINE",
"147 -150 LINE",
"18 -150 LINE",
"18 -208 LINE",
"141 -208 LINE SMOOTH",
"170 -208 OFFCURVE",
"205 -176 OFFCURVE",
"205 -148 CURVE",
"229 -45 LINE",
"117 -45 LINE",
"140 0 LINE",
"162 0 LINE",
"162 633 LINE",
"250 633 LINE",
"245 696 LINE"
);
}
);
width = 275;
}
);
unicode = 0163;
},
{
color = 0;
glyphname = tcommaaccent;
lastChange = "2013-12-03 23:01:42 -0500";
layers = (
{
layerId = UUID0;
name = Regular;
paths = (
{
closed = 1;
nodes = (
"38 710 LINE",
"25 639 LINE",
"97 615 LINE",
"77 0 LINE",
"162 0 LINE",
"162 633 LINE",
"250 633 LINE",
"245 696 LINE"
);
},
{
closed = 1;
nodes = (
"97 -160 LINE",
"139 -160 LINE",
"93 -234 LINE",
"148 -250 LINE",
"181 -160 LINE",
"178 -78 LINE",
"97 -78 LINE"
);
}
);
width = 275;
}
);
unicode = 021B;
},
{
color = 0;
glyphname = tdotbelow;
lastChange = "2013-12-03 23:01:42 -0500";
layers = (
{
layerId = UUID0;
name = Regular;
paths = (
{
closed = 1;
nodes = (
"38 710 LINE",
"25 639 LINE",
"97 615 LINE",
"77 0 LINE",
"162 0 LINE",
"162 633 LINE",
"250 633 LINE",
"245 696 LINE"
);
},
{
closed = 1;
nodes = (
"77 -154 LINE",
"166 -151 LINE",
"166 -56 LINE",
"73 -56 LINE"
);
}
);
width = 275;
}
);
unicode = 1E6D;
},
{
color = 0;
glyphname = u;
lastChange = "2013-12-03 23:01:42 -0500";
layers = (
{
anchors = (
{
name = ogonek;
position = "{274, 10}";
},
{
name = top;
position = "{152, 492}";
}
);
layerId = UUID0;
name = Regular;
paths = (
{
closed = 1;
nodes = (
"58 700 LINE",
"35 -20 LINE",
"265 -20 LINE",
"265 683 LINE",
"195 687 LINE",
"195 68 LINE",
"111 62 LINE",
"132 700 LINE"
);
}
);
width = 304;
}
);
unicode = 0075;
},
{
color = 0;
glyphname = uacute;
lastChange = "2013-12-03 23:01:42 -0500";
layers = (
{
layerId = UUID0;
name = Regular;
paths = (
{
closed = 1;
nodes = (
"58 700 LINE",
"35 -20 LINE",
"265 -20 LINE",
"265 683 LINE",
"195 687 LINE",
"195 68 LINE",
"111 62 LINE",
"132 700 LINE"
);
},
{
closed = 1;
nodes = (
"105 792 LINE",
"139 768 LINE",
"235 852 LINE",
"189 900 LINE"
);
}
);
width = 304;
}
);
unicode = 00FA;
},
{
color = 0;
glyphname = ubreve;
lastChange = "2013-12-03 23:01:42 -0500";
layers = (
{
layerId = UUID0;
name = Regular;
paths = (
{
closed = 1;
nodes = (
"58 700 LINE",
"35 -20 LINE",
"265 -20 LINE",
"265 683 LINE",
"195 687 LINE",
"195 68 LINE",
"111 62 LINE",
"132 700 LINE"
);
},
{
closed = 1;
nodes = (
"58 894 LINE",
"62 813 LINE",
"107 785 LINE",
"232 785 LINE",
"271 824 LINE",
"271 900 LINE",
"225 896 LINE",
"228 830 LINE",
"118 835 LINE",
"106 846 LINE",
"111 894 LINE"
);
}
);
width = 304;
}
);
unicode = 016D;
},
{
color = 0;
glyphname = ucircumflex;
lastChange = "2013-12-03 23:01:42 -0500";
layers = (
{
layerId = UUID0;
name = Regular;
paths = (
{
closed = 1;
nodes = (
"58 700 LINE",
"35 -20 LINE",
"265 -20 LINE",
"265 683 LINE",
"195 687 LINE",
"195 68 LINE",
"111 62 LINE",
"132 700 LINE"
);
},
{
closed = 1;
nodes = (
"70 787 LINE",
"99 768 LINE",
"164 830 LINE",
"229 768 LINE",
"258 787 LINE",
"184 897 LINE",
"144 900 LINE"
);
}
);
width = 304;
}
);
unicode = 00FB;
},
{
color = 0;
glyphname = udieresis;
lastChange = "2013-12-03 23:01:42 -0500";
layers = (
{
layerId = UUID0;
name = Regular;
paths = (
{
closed = 1;
nodes = (
"58 700 LINE",
"35 -20 LINE",
"265 -20 LINE",
"265 683 LINE",
"195 687 LINE",
"195 68 LINE",
"111 62 LINE",
"132 700 LINE"
);
},
{
closed = 1;
nodes = (
"37 815 LINE",
"116 815 LINE",
"120 898 LINE",
"37 895 LINE"
);
},
{
closed = 1;
nodes = (
"190 815 LINE",
"266 818 LINE",
"266 898 LINE",
"187 898 LINE"
);
}
);
width = 304;
}
);
unicode = 00FC;
},
{
color = 0;
glyphname = udotbelow;
lastChange = "2013-12-03 23:01:42 -0500";
layers = (
{
layerId = UUID0;
name = Regular;
paths = (
{
closed = 1;
nodes = (
"58 700 LINE",
"35 -20 LINE",
"265 -20 LINE",
"265 683 LINE",
"195 687 LINE",
"195 68 LINE",
"111 62 LINE",
"132 700 LINE"
);
},
{
closed = 1;
nodes = (
"113 -154 LINE",
"202 -151 LINE",
"202 -56 LINE",
"109 -56 LINE"
);
}
);
width = 304;
}
);
unicode = 1EE5;
},
{
color = 0;
glyphname = ugrave;
lastChange = "2013-12-03 23:01:42 -0500";
layers = (
{
layerId = UUID0;
name = Regular;
paths = (
{
closed = 1;
nodes = (
"58 700 LINE",
"35 -20 LINE",
"265 -20 LINE",
"265 683 LINE",
"195 687 LINE",
"195 68 LINE",
"111 62 LINE",
"132 700 LINE"
);
},
{
closed = 1;
nodes = (
"146 900 LINE",
"100 852 LINE",
"196 768 LINE",
"230 792 LINE"
);
}
);
width = 304;
}
);
unicode = 00F9;
},
{
color = 0;
glyphname = uhungarumlaut;
lastChange = "2013-12-03 23:01:42 -0500";
layers = (
{
layerId = UUID0;
name = Regular;
paths = (
{
closed = 1;
nodes = (
"58 700 LINE",
"35 -20 LINE",
"265 -20 LINE",
"265 683 LINE",
"195 687 LINE",
"195 68 LINE",
"111 62 LINE",
"132 700 LINE"
);
},
{
closed = 1;
nodes = (
"47 792 LINE",
"81 768 LINE",
"177 852 LINE",
"131 900 LINE"
);
},
{
closed = 1;
nodes = (
"177 792 LINE",
"211 768 LINE",
"307 852 LINE",
"261 900 LINE"
);
}
);
width = 304;
}
);
unicode = 0171;
},
{
color = 0;
glyphname = umacron;
lastChange = "2013-12-03 23:01:42 -0500";
layers = (
{
layerId = UUID0;
name = Regular;
paths = (
{
closed = 1;
nodes = (
"58 700 LINE",
"35 -20 LINE",
"265 -20 LINE",
"265 683 LINE",
"195 687 LINE",
"195 68 LINE",
"111 62 LINE",
"132 700 LINE"
);
},
{
closed = 1;
nodes = (
"25 891 LINE",
"28 827 LINE",
"293 836 LINE",
"293 891 LINE"
);
}
);
width = 304;
}
);
unicode = 016B;
},
{
color = 0;
glyphname = uogonek;
lastChange = "2013-12-03 23:01:42 -0500";
layers = (
{
layerId = UUID0;
name = Regular;
paths = (
{
closed = 1;
nodes = (
"58 700 LINE",
"35 -20 LINE",
"128 -20 LINE",
"90 -95 LINE",
"178 -209 LINE",
"291 -146 LINE",
"275 -100 LINE",
"186 -145 LINE",
"152 -83 LINE",
"171 -20 LINE",
"265 -20 LINE",
"265 683 LINE",
"195 687 LINE",
"195 68 LINE",
"111 62 LINE",
"132 700 LINE"
);
}
);
width = 304;
}
);
unicode = 0173;
},
{
color = 0;
glyphname = uring;
lastChange = "2013-12-03 23:01:42 -0500";
layers = (
{
layerId = UUID0;
name = Regular;
paths = (
{
closed = 1;
nodes = (
"58 700 LINE",
"35 -20 LINE",
"265 -20 LINE",
"265 683 LINE",
"195 687 LINE",
"195 68 LINE",
"111 62 LINE",
"132 700 LINE"
);
},
{
closed = 1;
nodes = (
"96 900 LINE",
"96 765 LINE",
"210 765 LINE",
"235 791 LINE",
"235 900 LINE"
);
},
{
closed = 1;
nodes = (
"145 800 LINE SMOOTH",
"141 800 OFFCURVE",
"139 801 OFFCURVE",
"139 804 CURVE SMOOTH",
"139 870 LINE SMOOTH",
"139 872 OFFCURVE",
"142 873 OFFCURVE",
"147 873 CURVE",
"187 868 LINE",
"191 866 OFFCURVE",
"193 864 OFFCURVE",
"193 862 CURVE SMOOTH",
"193 806 LINE SMOOTH",
"193 802 OFFCURVE",
"191 800 OFFCURVE",
"186 800 CURVE SMOOTH"
);
}
);
width = 304;
}
);
unicode = 016F;
},
{
color = 0;
glyphname = utilde;
lastChange = "2013-12-03 23:01:42 -0500";
layers = (
{
layerId = UUID0;
name = Regular;
paths = (
{
closed = 1;
nodes = (
"58 700 LINE",
"35 -20 LINE",
"265 -20 LINE",
"265 683 LINE",
"195 687 LINE",
"195 68 LINE",
"111 62 LINE",
"132 700 LINE"
);
},
{
closed = 1;
nodes = (
"87 897 OFFCURVE",
"75 892 OFFCURVE",
"64 883 CURVE SMOOTH",
"38 860 LINE",
"41 791 LINE",
"109 844 LINE",
"153 813 LINE SMOOTH",
"170 801 OFFCURVE",
"183 794 OFFCURVE",
"198 794 CURVE SMOOTH",
"210 794 OFFCURVE",
"229 805 OFFCURVE",
"242 817 CURVE SMOOTH",
"266 840 LINE",
"266 900 LINE",
"194 852 LINE",
"156 877 LINE SMOOTH",
"140 888 OFFCURVE",
"121 897 OFFCURVE",
"102 897 CURVE SMOOTH"
);
}
);
width = 304;
}
);
unicode = 0169;
},
{
color = 0;
glyphname = v;
lastChange = "2013-12-03 23:01:42 -0500";
layers = (
{
layerId = UUID0;
name = Regular;
paths = (
{
closed = 1;
nodes = (
"181 0 LINE",
"278 700 LINE",
"212 700 LINE",
"145 25 LINE",
"140 25 LINE",
"80 710 LINE",
"17 710 LINE",
"76 0 LINE"
);
}
);
width = 281;
}
);
unicode = 0076;
},
{
color = 0;
glyphname = w;
lastChange = "2013-12-03 23:01:42 -0500";
layers = (
{
anchors = (
{
name = top;
position = "{210, 492}";
}
);
layerId = UUID0;
name = Regular;
paths = (
{
closed = 1;
nodes = (
"379 10 LINE",
"412 700 LINE",
"351 700 LINE",
"329 33 LINE",
"324 33 LINE",
"241 539 LINE",
"247 690 LINE",
"175 690 LINE",
"126 37 LINE",
"122 37 LINE",
"71 710 LINE",
"6 710 LINE",
"75 0 LINE",
"180 0 LINE",
"203 500 LINE",
"207 500 LINE",
"283 10 LINE"
);
}
);
width = 419;
}
);
unicode = 0077;
},
{
color = 0;
glyphname = wacute;
lastChange = "2013-12-03 23:01:42 -0500";
layers = (
{
layerId = UUID0;
name = Regular;
paths = (
{
closed = 1;
nodes = (
"283 10 LINE",
"207 500 LINE",
"203 500 LINE",
"180 0 LINE",
"75 0 LINE",
"6 710 LINE",
"71 710 LINE",
"122 37 LINE",
"126 37 LINE",
"175 690 LINE",
"247 690 LINE",
"241 539 LINE",
"324 33 LINE",
"329 33 LINE",
"351 700 LINE",
"412 700 LINE",
"379 10 LINE"
);
},
{
closed = 1;
nodes = (
"144 792 LINE",
"178 768 LINE",
"274 852 LINE",
"228 900 LINE"
);
}
);
width = 419;
}
);
unicode = 1E83;
},
{
color = 0;
glyphname = wcircumflex;
lastChange = "2013-12-03 23:01:42 -0500";
layers = (
{
layerId = UUID0;
name = Regular;
paths = (
{
closed = 1;
nodes = (
"379 10 LINE",
"412 700 LINE",
"351 700 LINE",
"329 33 LINE",
"324 33 LINE",
"241 539 LINE",
"247 690 LINE",
"175 690 LINE",
"126 37 LINE",
"122 37 LINE",
"71 710 LINE",
"6 710 LINE",
"75 0 LINE",
"180 0 LINE",
"203 500 LINE",
"207 500 LINE",
"283 10 LINE"
);
},
{
closed = 1;
nodes = (
"115 787 LINE",
"144 768 LINE",
"209 830 LINE",
"274 768 LINE",
"303 787 LINE",
"229 897 LINE",
"189 900 LINE"
);
}
);
width = 419;
}
);
unicode = 0175;
},
{
color = 0;
glyphname = wdieresis;
lastChange = "2013-12-03 23:01:42 -0500";
layers = (
{
layerId = UUID0;
name = Regular;
paths = (
{
closed = 1;
nodes = (
"283 10 LINE",
"207 500 LINE",
"203 500 LINE",
"180 0 LINE",
"75 0 LINE",
"6 710 LINE",
"71 710 LINE",
"122 37 LINE",
"126 37 LINE",
"175 690 LINE",
"247 690 LINE",
"241 539 LINE",
"324 33 LINE",
"329 33 LINE",
"351 700 LINE",
"412 700 LINE",
"379 10 LINE"
);
},
{
closed = 1;
nodes = (
"95 815 LINE",
"174 815 LINE",
"178 898 LINE",
"95 895 LINE"
);
},
{
closed = 1;
nodes = (
"248 815 LINE",
"324 818 LINE",
"324 898 LINE",
"245 898 LINE"
);
}
);
width = 419;
}
);
unicode = 1E85;
},
{
color = 0;
glyphname = wgrave;
lastChange = "2013-12-03 23:01:42 -0500";
layers = (
{
layerId = UUID0;
name = Regular;
paths = (
{
closed = 1;
nodes = (
"379 10 LINE",
"412 700 LINE",
"351 700 LINE",
"329 33 LINE",
"324 33 LINE",
"241 539 LINE",
"247 690 LINE",
"175 690 LINE",
"126 37 LINE",
"122 37 LINE",
"71 710 LINE",
"6 710 LINE",
"75 0 LINE",
"180 0 LINE",
"203 500 LINE",
"207 500 LINE",
"283 10 LINE"
);
},
{
closed = 1;
nodes = (
"184 900 LINE",
"138 852 LINE",
"234 768 LINE",
"268 792 LINE"
);
}
);
width = 419;
}
);
unicode = 1E81;
},
{
color = 0;
glyphname = x;
lastChange = "2013-12-03 23:01:42 -0500";
layers = (
{
layerId = UUID0;
name = Regular;
paths = (
{
closed = 1;
nodes = (
"298 -11 LINE",
"209 343 LINE",
"280 690 LINE",
"213 690 LINE",
"176 399 LINE",
"141 390 LINE",
"101 710 LINE",
"23 710 LINE",
"87 386 LINE",
"9 0 LINE",
"87 0 LINE",
"131 324 LINE",
"159 339 LINE",
"202 -11 LINE"
);
}
);
width = 304;
}
);
unicode = 0078;
},
{
color = 0;
glyphname = y;
lastChange = "2013-12-03 23:01:42 -0500";
layers = (
{
anchors = (
{
name = top;
position = "{132, 492}";
}
);
layerId = UUID0;
name = Regular;
paths = (
{
closed = 1;
nodes = (
"168 369 LINE",
"204 431 LINE",
"248 710 LINE",
"178 710 LINE",
"148 415 LINE",
"140 413 LINE",
"106 700 LINE",
"15 700 LINE",
"108 374 LINE",
"108 0 LINE",
"185 0 LINE"
);
}
);
width = 263;
}
);
unicode = 0079;
},
{
color = 0;
glyphname = yacute;
lastChange = "2013-12-03 23:01:42 -0500";
layers = (
{
layerId = UUID0;
name = Regular;
paths = (
{
closed = 1;
nodes = (
"185 0 LINE",
"108 0 LINE",
"108 374 LINE",
"15 700 LINE",
"106 700 LINE",
"140 413 LINE",
"148 415 LINE",
"178 710 LINE",
"248 710 LINE",
"204 431 LINE",
"168 369 LINE"
);
},
{
closed = 1;
nodes = (
"81 792 LINE",
"115 768 LINE",
"211 852 LINE",
"165 900 LINE"
);
}
);
width = 263;
}
);
unicode = 00FD;
},
{
color = 0;
glyphname = ycircumflex;
lastChange = "2013-12-03 23:01:42 -0500";
layers = (
{
layerId = UUID0;
name = Regular;
paths = (
{
closed = 1;
nodes = (
"168 369 LINE",
"204 431 LINE",
"248 710 LINE",
"178 710 LINE",
"148 415 LINE",
"140 413 LINE",
"106 700 LINE",
"15 700 LINE",
"108 374 LINE",
"108 0 LINE",
"185 0 LINE"
);
},
{
closed = 1;
nodes = (
"47 787 LINE",
"76 768 LINE",
"141 830 LINE",
"206 768 LINE",
"235 787 LINE",
"161 897 LINE",
"121 900 LINE"
);
}
);
width = 263;
}
);
unicode = 0177;
},
{
color = 0;
glyphname = ydieresis;
lastChange = "2013-12-03 23:01:42 -0500";
layers = (
{
layerId = UUID0;
name = Regular;
paths = (
{
closed = 1;
nodes = (
"185 0 LINE",
"108 0 LINE",
"108 374 LINE",
"15 700 LINE",
"106 700 LINE",
"140 413 LINE",
"148 415 LINE",
"178 710 LINE",
"248 710 LINE",
"204 431 LINE",
"168 369 LINE"
);
},
{
closed = 1;
nodes = (
"17 815 LINE",
"96 815 LINE",
"100 898 LINE",
"17 895 LINE"
);
},
{
closed = 1;
nodes = (
"170 815 LINE",
"246 818 LINE",
"246 898 LINE",
"167 898 LINE"
);
}
);
width = 263;
}
);
unicode = 00FF;
},
{
color = 0;
glyphname = ygrave;
lastChange = "2013-12-03 23:01:42 -0500";
layers = (
{
layerId = UUID0;
name = Regular;
paths = (
{
closed = 1;
nodes = (
"168 369 LINE",
"204 431 LINE",
"248 710 LINE",
"178 710 LINE",
"148 415 LINE",
"140 413 LINE",
"106 700 LINE",
"15 700 LINE",
"108 374 LINE",
"108 0 LINE",
"185 0 LINE"
);
},
{
closed = 1;
nodes = (
"112 900 LINE",
"66 852 LINE",
"162 768 LINE",
"196 792 LINE"
);
}
);
width = 263;
}
);
unicode = 1EF3;
},
{
color = 0;
glyphname = ytilde;
lastChange = "2013-12-03 23:01:42 -0500";
layers = (
{
layerId = UUID0;
name = Regular;
paths = (
{
closed = 1;
nodes = (
"185 0 LINE",
"108 0 LINE",
"108 374 LINE",
"15 700 LINE",
"106 700 LINE",
"140 413 LINE",
"148 415 LINE",
"178 710 LINE",
"248 710 LINE",
"204 431 LINE",
"168 369 LINE"
);
},
{
closed = 1;
nodes = (
"69 897 OFFCURVE",
"57 892 OFFCURVE",
"46 883 CURVE SMOOTH",
"20 860 LINE",
"23 791 LINE",
"91 844 LINE",
"135 813 LINE SMOOTH",
"152 801 OFFCURVE",
"165 794 OFFCURVE",
"180 794 CURVE SMOOTH",
"192 794 OFFCURVE",
"211 805 OFFCURVE",
"224 817 CURVE SMOOTH",
"248 840 LINE",
"248 900 LINE",
"176 852 LINE",
"138 877 LINE SMOOTH",
"122 888 OFFCURVE",
"103 897 OFFCURVE",
"84 897 CURVE SMOOTH"
);
}
);
width = 263;
}
);
unicode = 1EF9;
},
{
color = 0;
glyphname = z;
lastChange = "2013-12-03 23:01:42 -0500";
layers = (
{
anchors = (
{
name = top;
position = "{146, 492}";
}
);
layerId = UUID0;
name = Regular;
paths = (
{
closed = 1;
nodes = (
"267 0 LINE",
"267 47 LINE",
"133 56 LINE",
"247 710 LINE",
"41 710 LINE",
"41 646 LINE",
"169 662 LINE",
"25 33 LINE",
"43 0 LINE"
);
}
);
width = 292;
}
);
unicode = 007A;
},
{
color = 0;
glyphname = zacute;
lastChange = "2013-12-03 23:01:42 -0500";
layers = (
{
layerId = UUID0;
name = Regular;
paths = (
{
closed = 1;
nodes = (
"43 0 LINE",
"25 33 LINE",
"169 662 LINE",
"41 646 LINE",
"41 710 LINE",
"247 710 LINE",
"133 56 LINE",
"267 47 LINE",
"267 0 LINE"
);
},
{
closed = 1;
nodes = (
"92 792 LINE",
"126 768 LINE",
"222 852 LINE",
"176 900 LINE"
);
}
);
width = 292;
}
);
unicode = 017A;
},
{
color = 0;
glyphname = zcaron;
lastChange = "2013-12-03 23:01:42 -0500";
layers = (
{
layerId = UUID0;
name = Regular;
paths = (
{
closed = 1;
nodes = (
"267 0 LINE",
"267 47 LINE",
"133 56 LINE",
"247 710 LINE",
"41 710 LINE",
"41 646 LINE",
"169 662 LINE",
"25 33 LINE",
"43 0 LINE"
);
},
{
closed = 1;
nodes = (
"251 881 LINE",
"222 900 LINE",
"157 838 LINE",
"92 900 LINE",
"63 881 LINE",
"137 771 LINE",
"177 768 LINE"
);
}
);
width = 292;
}
);
unicode = 017E;
},
{
color = 0;
glyphname = zdotaccent;
lastChange = "2013-12-03 23:01:42 -0500";
layers = (
{
layerId = UUID0;
name = Regular;
paths = (
{
closed = 1;
nodes = (
"43 0 LINE",
"25 33 LINE",
"169 662 LINE",
"41 646 LINE",
"41 710 LINE",
"247 710 LINE",
"133 56 LINE",
"267 47 LINE",
"267 0 LINE"
);
},
{
closed = 1;
nodes = (
"116 802 LINE",
"205 805 LINE",
"205 900 LINE",
"112 900 LINE"
);
}
);
width = 292;
}
);
unicode = 017C;
},
{
color = 0;
glyphname = zdotbelow;
lastChange = "2013-12-03 23:01:42 -0500";
layers = (
{
layerId = UUID0;
name = Regular;
paths = (
{
closed = 1;
nodes = (
"267 0 LINE",
"267 47 LINE",
"133 56 LINE",
"247 710 LINE",
"41 710 LINE",
"41 646 LINE",
"169 662 LINE",
"25 33 LINE",
"43 0 LINE"
);
},
{
closed = 1;
nodes = (
"113 -154 LINE",
"202 -151 LINE",
"202 -56 LINE",
"109 -56 LINE"
);
}
);
width = 292;
}
);
unicode = 1E93;
},
{
color = 0;
glyphname = fi;
lastChange = "2013-12-03 23:01:42 -0500";
layers = (
{
layerId = UUID0;
name = Regular;
paths = (
{
closed = 1;
nodes = (
"137 -20 LINE",
"117 372 LINE",
"306 387 LINE",
"306 20 LINE",
"390 20 LINE",
"369 447 LINE",
"134 447 LINE",
"134 616 LINE",
"353 628 LINE",
"353 690 LINE",
"55 710 LINE",
"55 -20 LINE"
);
}
);
width = 426;
}
);
unicode = FB01;
},
{
color = 0;
glyphname = fl;
lastChange = "2013-12-03 23:01:42 -0500";
layers = (
{
layerId = UUID0;
name = Regular;
paths = (
{
closed = 1;
nodes = (
"518 69 LINE",
"405 82 LINE",
"390 105 LINE",
"390 690 LINE",
"55 710 LINE",
"55 -20 LINE",
"137 -20 LINE",
"117 372 LINE",
"259 389 LINE",
"259 447 LINE",
"134 447 LINE",
"134 616 LINE",
"321 625 LINE",
"321 0 LINE",
"518 0 LINE"
);
}
);
width = 548;
}
);
unicode = FB02;
},
{
color = 0;
glyphname = Y.loclGUA;
lastChange = "2013-12-03 23:01:42 -0500";
layers = (
{
anchors = (
{
name = top;
position = "{124, 710}";
}
);
layerId = UUID0;
name = Regular;
paths = (
{
closed = 1;
nodes = (
"217 710 LINE",
"151 710 LINE",
"151 388 LINE",
"102 391 LINE",
"89 690 LINE",
"30 690 LINE",
"30 338 LINE",
"144 323 LINE",
"159 57 LINE",
"47 72 LINE",
"37 0 LINE",
"217 0 LINE"
);
}
);
width = 247;
}
);
},
{
color = 0;
glyphname = Yacute.loclGUA;
lastChange = "2013-12-03 23:01:42 -0500";
layers = (
{
layerId = UUID0;
name = Regular;
paths = (
{
closed = 1;
nodes = (
"217 0 LINE",
"37 0 LINE",
"47 72 LINE",
"159 57 LINE",
"144 323 LINE",
"30 338 LINE",
"30 690 LINE",
"89 690 LINE",
"102 391 LINE",
"151 388 LINE",
"151 710 LINE",
"217 710 LINE"
);
},
{
closed = 1;
nodes = (
"68 792 LINE",
"102 768 LINE",
"198 852 LINE",
"152 900 LINE"
);
}
);
width = 247;
}
);
},
{
color = 0;
glyphname = Ycircumflex.loclGUA;
lastChange = "2013-12-03 23:01:42 -0500";
layers = (
{
layerId = UUID0;
name = Regular;
paths = (
{
closed = 1;
nodes = (
"217 710 LINE",
"151 710 LINE",
"151 388 LINE",
"102 391 LINE",
"89 690 LINE",
"30 690 LINE",
"30 338 LINE",
"144 323 LINE",
"159 57 LINE",
"47 72 LINE",
"37 0 LINE",
"217 0 LINE"
);
},
{
closed = 1;
nodes = (
"33 787 LINE",
"62 768 LINE",
"127 830 LINE",
"192 768 LINE",
"221 787 LINE",
"147 897 LINE",
"107 900 LINE"
);
}
);
width = 247;
}
);
},
{
color = 0;
glyphname = Ydieresis.loclGUA;
lastChange = "2013-12-03 23:01:42 -0500";
layers = (
{
layerId = UUID0;
name = Regular;
paths = (
{
closed = 1;
nodes = (
"217 0 LINE",
"37 0 LINE",
"47 72 LINE",
"159 57 LINE",
"144 323 LINE",
"30 338 LINE",
"30 690 LINE",
"89 690 LINE",
"102 391 LINE",
"151 388 LINE",
"151 710 LINE",
"217 710 LINE"
);
},
{
closed = 1;
nodes = (
"10 815 LINE",
"89 815 LINE",
"93 898 LINE",
"10 895 LINE"
);
},
{
closed = 1;
nodes = (
"163 815 LINE",
"239 818 LINE",
"239 898 LINE",
"160 898 LINE"
);
}
);
width = 247;
}
);
},
{
color = 0;
glyphname = Ygrave.loclGUA;
lastChange = "2013-12-03 23:01:42 -0500";
layers = (
{
layerId = UUID0;
name = Regular;
paths = (
{
closed = 1;
nodes = (
"217 710 LINE",
"151 710 LINE",
"151 388 LINE",
"102 391 LINE",
"89 690 LINE",
"30 690 LINE",
"30 338 LINE",
"144 323 LINE",
"159 57 LINE",
"47 72 LINE",
"37 0 LINE",
"217 0 LINE"
);
},
{
closed = 1;
nodes = (
"90 900 LINE",
"44 852 LINE",
"140 768 LINE",
"174 792 LINE"
);
}
);
width = 247;
}
);
},
{
color = 0;
glyphname = Ytilde.loclGUA;
lastChange = "2013-12-03 23:01:42 -0500";
layers = (
{
layerId = UUID0;
name = Regular;
paths = (
{
closed = 1;
nodes = (
"217 0 LINE",
"37 0 LINE",
"47 72 LINE",
"159 57 LINE",
"144 323 LINE",
"30 338 LINE",
"30 690 LINE",
"89 690 LINE",
"102 391 LINE",
"151 388 LINE",
"151 710 LINE",
"217 710 LINE"
);
},
{
closed = 1;
nodes = (
"58 897 OFFCURVE",
"46 892 OFFCURVE",
"35 883 CURVE SMOOTH",
"9 860 LINE",
"12 791 LINE",
"80 844 LINE",
"124 813 LINE SMOOTH",
"141 801 OFFCURVE",
"154 794 OFFCURVE",
"169 794 CURVE SMOOTH",
"181 794 OFFCURVE",
"200 805 OFFCURVE",
"213 817 CURVE SMOOTH",
"237 840 LINE",
"237 900 LINE",
"165 852 LINE",
"127 877 LINE SMOOTH",
"111 888 OFFCURVE",
"92 897 OFFCURVE",
"73 897 CURVE SMOOTH"
);
}
);
width = 247;
}
);
},
{
color = 0;
glyphname = Cacute.loclPLK;
lastChange = "2013-12-03 23:01:42 -0500";
layers = (
{
layerId = UUID0;
name = Regular;
paths = (
{
closed = 1;
nodes = (
"232 167 LINE",
"212 89 LINE",
"212 85 OFFCURVE",
"208 83 OFFCURVE",
"200 83 CURVE SMOOTH",
"141 83 LINE SMOOTH",
"137 83 OFFCURVE",
"132 83 OFFCURVE",
"132 86 CURVE SMOOTH",
"132 87 OFFCURVE",
"133 88 OFFCURVE",
"135 89 CURVE",
"115 588 LINE",
"113 589 OFFCURVE",
"112 593 OFFCURVE",
"112 601 CURVE SMOOTH",
"112 621 OFFCURVE",
"120 651 OFFCURVE",
"148 651 CURVE SMOOTH",
"190 651 LINE SMOOTH",
"198 651 OFFCURVE",
"202 648 OFFCURVE",
"202 642 CURVE SMOOTH",
"212 529 LINE",
"278 529 LINE",
"294 654 LINE",
"294 710 LINE",
"130 710 LINE SMOOTH",
"78 710 OFFCURVE",
"50 685 OFFCURVE",
"50 654 CURVE SMOOTH",
"50 62 LINE SMOOTH",
"50 29 OFFCURVE",
"78 0 OFFCURVE",
"151 0 CURVE SMOOTH",
"294 0 LINE",
"294 167 LINE"
);
},
{
closed = 1;
nodes = (
"161 769 LINE",
"202 761 LINE",
"255 877 LINE",
"192 897 LINE"
);
}
);
width = 334;
}
);
},
{
color = 0;
glyphname = Nacute.loclPLK;
lastChange = "2013-12-03 23:01:42 -0500";
layers = (
{
layerId = UUID0;
name = Regular;
paths = (
{
closed = 1;
nodes = (
"310 0 LINE",
"195 0 LINE",
"93 651 LINE",
"89 651 LINE",
"89 0 LINE",
"30 0 LINE",
"30 710 LINE",
"146 710 LINE",
"236 58 LINE",
"240 58 LINE",
"262 710 LINE",
"320 710 LINE"
);
},
{
closed = 1;
nodes = (
"163 769 LINE",
"204 761 LINE",
"257 877 LINE",
"194 897 LINE"
);
}
);
width = 344;
}
);
},
